<?xml version="1.0" encoding="UTF-8" standalone="no"?>
<svg
   xmlns:dc="http://purl.org/dc/elements/1.1/"
   xmlns:cc="http://creativecommons.org/ns#"
   xmlns:rdf="http://www.w3.org/1999/02/22-rdf-syntax-ns#"
   xmlns:svg="http://www.w3.org/2000/svg"
   xmlns="http://www.w3.org/2000/svg"
   id="svg8"
   version="1.1"
   viewBox="0 0 151.84206 200.70261"
   height="200.70261mm"
   width="151.84206mm">
  <defs
     id="defs2" />
  <metadata
     id="metadata5">
    <rdf:RDF>
      <cc:Work
         rdf:about="">
        <dc:format>image/svg+xml</dc:format>
        <dc:type
           rdf:resource="http://purl.org/dc/dcmitype/StillImage" />
        <dc:title></dc:title>
      </cc:Work>
    </rdf:RDF>
  </metadata>
  <g
     transform="translate(-61.284322,-111.72921)"
     id="layer1">
    <g
       id="g909"
       transform="matrix(2.2774003,0,0,2.2774003,-93.621333,2.7940456)">
      <rect
         y="48.108524"
         x="71.042908"
         height="87.577141"
         width="63.373741"
         id="rect1211"
         style="opacity:1;vector-effect:none;fill:#ffffff;fill-opacity:1;fill-rule:nonzero;stroke:#000000;stroke-width:0.55080283;stroke-linecap:butt;stroke-linejoin:miter;stroke-miterlimit:4;stroke-dasharray:none;stroke-dashoffset:0;stroke-opacity:1;paint-order:fill markers stroke" />
      <g
         id="g874"
         transform="translate(2.8979494e-7,-11.527439)">
        <path
           d="m 95.959445,74.455081 c 0,-0.22716 0.183485,-0.41073 0.410533,-0.41073 0.226471,0 0.410533,0.18357 0.410533,0.41073 0,0.22716 -0.184062,0.41131 -0.410533,0.41131 -0.227048,0 -0.410533,-0.18415 -0.410533,-0.41131 z m 7.884365,0.38793 h -3.22252 c 0.25417,-0.7467 0.96156,-1.26394 1.58616,-1.26394 0.6722,0 1.39431,0.61191 1.63636,1.26394 z m 3.85463,-0.38793 c 0,-0.22716 0.18435,-0.41073 0.41082,-0.41073 0.22705,0 0.41082,0.18357 0.41082,0.41073 0,0.22716 -0.18377,0.41131 -0.41082,0.41131 -0.22647,0 -0.41082,-0.18415 -0.41082,-0.41131 z m -3.16223,0 c 0,-0.22716 0.18377,-0.41073 0.41082,-0.41073 0.22676,0 0.41053,0.18357 0.41053,0.41073 0,0.22716 -0.18377,0.41131 -0.41053,0.41131 -0.22705,0 -0.41082,-0.18415 -0.41082,-0.41131 z m -5.412228,0 c 0,-0.22716 0.183485,-0.41073 0.41111,-0.41073 0.226471,0 0.410245,0.18357 0.410245,0.41073 0,0.22716 -0.183774,0.41131 -0.410245,0.41131 -0.227625,0 -0.41111,-0.18415 -0.41111,-0.41131 z m -3.166989,0.69143 v 0.53398 H 93.48312 v 0.77932 h 0.0577 c 0.140787,0 0.259648,0.1117 0.259648,0.25256 v 0.93085 c 0,0.20465 -0.123708,0.25256 -0.259648,0.25256 h -0.0577 v 0.95972 h 0.0577 c 0.140787,0 0.259648,0.11199 0.259648,0.25255 v 0.93807 c 0,0.19622 -0.123111,0.25256 -0.259648,0.25256 h -0.0577 v 0.95972 h 0.0577 c 0.140787,0 0.259648,0.11228 0.259648,0.25256 v 0.93085 c 0,0.19993 -0.121763,0.25977 -0.259648,0.25977 h -0.0577 v 0.95251 h 0.0577 c 0.140787,0 0.259648,0.11949 0.259648,0.25977 v 0.93085 c 0,0.19994 -0.121784,0.25978 -0.259648,0.25978 h -0.0577 v 0.78653 h 2.473873 v 0.8154 h 12.556887 v -0.8154 h 2.55321 v -0.78653 h -0.13704 c -0.18722,0 -0.25243,-0.13191 -0.25243,-0.25978 v -0.93085 c 0,-0.20085 0.11539,-0.25977 0.25243,-0.25977 h 0.13704 v -0.95251 h -0.13704 c -0.1405,0 -0.25243,-0.11891 -0.25243,-0.25977 v -0.93085 c 0,-0.16466 0.11743,-0.25256 0.25243,-0.25256 h 0.13704 v -0.95972 h -0.13704 c -0.20075,0 -0.25243,-0.0994 -0.25243,-0.25256 v -0.93807 c 0,-0.14609 0.11656,-0.25255 0.25243,-0.25255 h 0.13704 v -0.96694 h -0.13704 c -0.1405,0 -0.25243,-0.1117 -0.25243,-0.25255 v -0.92364 c 0,-0.20554 0.11732,-0.25256 0.25243,-0.25256 h 0.13704 v -0.77932 h -2.55321 v -0.53398 z m -1.067444,1.3133 h 0.771733 c 0.171368,0 0.295711,0.11113 0.295711,0.25256 v 0.93085 c 0,0.14115 -0.124343,0.25256 -0.295711,0.25256 h -0.771733 c -0.171656,0 -0.281286,-0.11141 -0.281286,-0.25256 v -0.93085 c 0,-0.20747 0.126769,-0.25256 0.281286,-0.25256 z m 2.185374,0 h 1.745415 c 0.183485,0 0.302923,0.16972 0.302923,0.31028 v 0.80819 c 0,0.14056 -0.119727,0.3175 -0.302923,0.3175 h -1.738202 c -0.204675,0 -0.310136,-0.1415 -0.310136,-0.3175 v -0.80819 c 0,-0.14056 0.119727,-0.31028 0.302923,-0.31028 z m 3.130207,0 h 4.0534 c 0.14021,0 0.27407,0.11834 0.27407,0.25977 v 0.89478 c 0,0.14114 -0.13386,0.28142 -0.27407,0.28142 h -4.0534 c -0.18354,0 -0.274074,-0.1271 -0.274074,-0.28142 v -0.89478 c 0,-0.14143 0.133864,-0.25977 0.274074,-0.25977 z m 5.4454,0 h 1.74542 c 0.1832,0 0.30292,0.16972 0.30292,0.31028 v 0.80819 c 0,0.14056 -0.12694,0.3175 -0.31013,0.3175 h -1.74542 c -0.20582,0 -0.30449,-0.14183 -0.30292,-0.3175 l 0.007,-0.80819 c 0.001,-0.14056 0.11973,-0.31028 0.30292,-0.31028 z m 3.15185,0 h 0.77894 c 0.17166,0 0.28129,0.11113 0.28129,0.25256 v 0.93085 c 0,0.14115 -0.10963,0.25256 -0.28129,0.25256 h -0.77894 c -0.19155,0 -0.29571,-0.0922 -0.29571,-0.25256 v -0.93085 c 0,-0.14143 0.12405,-0.25256 0.29571,-0.25256 z m -13.912831,2.39569 h 0.771733 c 0.171368,0 0.295711,0.11141 0.295711,0.25255 v 0.93086 c 0,0.14143 -0.124343,0.25977 -0.295711,0.25977 h -0.771733 c -0.212966,0 -0.281286,-0.0882 -0.281286,-0.25977 v -0.93086 c 0,-0.19967 0.127026,-0.25255 0.281286,-0.25255 z m 2.185374,0 h 1.745415 c 0.183485,0 0.302923,0.16972 0.302923,0.31028 v 0.8154 c 0,0.14086 -0.119727,0.3175 -0.302923,0.3175 h -1.738202 c -0.204773,0 -0.310136,-0.14142 -0.310136,-0.3175 v -0.8154 c 0,-0.14056 0.119727,-0.31028 0.302923,-0.31028 z m 3.130207,0 h 4.0534 c 0.14021,0 0.27407,0.12555 0.27407,0.26699 v 0.88755 c 0,0.14115 -0.13386,0.28864 -0.27407,0.28864 h -4.0534 c -0.19468,0 -0.274074,-0.12834 -0.274074,-0.28864 v -0.88755 c 0,-0.14144 0.133864,-0.26699 0.274074,-0.26699 z m 5.4454,0 h 1.74542 c 0.18348,0 0.30292,0.16972 0.30292,0.31028 v 0.8154 c 0,0.14086 -0.12694,0.3175 -0.31013,0.3175 h -1.73821 c -0.21842,0 -0.30292,-0.13345 -0.30292,-0.3175 v -0.8154 c 0,-0.14056 0.11944,-0.31028 0.30292,-0.31028 z m 3.15185,0 h 0.77894 c 0.17108,0 0.28129,0.11141 0.28129,0.25255 v 0.93086 c 0,0.14143 -0.11021,0.25977 -0.28129,0.25977 h -0.77894 c -0.18925,0 -0.2885,-0.10015 -0.2885,-0.25977 v -0.93086 c 0,-0.14114 0.11684,-0.25255 0.2885,-0.25255 z m -13.912831,2.4029 h 0.771733 c 0.171368,0 0.295711,0.11141 0.295711,0.25256 v 0.93085 c 0,0.14086 -0.124343,0.25256 -0.295711,0.25256 h -0.771733 c -0.190074,0 -0.281286,-0.0916 -0.281286,-0.25256 v -0.93085 c 0,-0.20745 0.12681,-0.25256 0.281286,-0.25256 z m 2.185374,0 h 1.745415 c 0.183485,0 0.302923,0.16943 0.302923,0.31028 v 0.80819 c 0,0.14085 -0.119727,0.3175 -0.302923,0.3175 h -1.738202 c -0.204739,0 -0.310136,-0.14146 -0.310136,-0.3175 v -0.80819 c 0,-0.14085 0.119727,-0.31028 0.302923,-0.31028 z m 3.130207,0 h 4.0534 c 0.14021,0 0.27407,0.11805 0.27407,0.25977 v 0.89478 c 0,0.14143 -0.13386,0.28142 -0.27407,0.28142 h -4.0534 c -0.17615,0 -0.274074,-0.13071 -0.274074,-0.28142 v -0.89478 c 0,-0.14172 0.133864,-0.25977 0.274074,-0.25977 z m 5.4454,0 h 1.74542 c 0.18348,0 0.30292,0.16943 0.30292,0.31028 v 0.80819 c 0,0.14085 -0.12694,0.3175 -0.31013,0.3175 h -1.73821 c -0.20345,0 -0.30292,-0.14228 -0.30292,-0.3175 v -0.80819 c 0,-0.14085 0.11944,-0.31028 0.30292,-0.31028 z m 3.15185,0 h 0.77894 c 0.17108,0 0.28129,0.11141 0.28129,0.25256 v 0.93085 c 0,0.14086 -0.11021,0.25256 -0.28129,0.25256 h -0.77894 c -0.19117,0 -0.2885,-0.0917 -0.2885,-0.25256 v -0.93085 c 0,-0.14115 0.11684,-0.25256 0.2885,-0.25256 z m -13.912831,2.39569 h 0.771733 c 0.171368,0 0.295711,0.11834 0.295711,0.25977 v 0.93085 c 0,0.14144 -0.124343,0.25256 -0.295711,0.25256 h -0.771733 c -0.198697,0 -0.281286,-0.11631 -0.281286,-0.25256 v -0.93085 c 0,-0.20324 0.126452,-0.25977 0.281286,-0.25977 z m 2.185374,0 h 1.745415 c 0.183485,0 0.302923,0.16943 0.302923,0.31028 v 0.8154 c 0,0.14114 -0.119727,0.3175 -0.302923,0.3175 h -1.738202 c -0.204837,0 -0.310136,-0.14138 -0.310136,-0.3175 v -0.8154 c 0,-0.14085 0.119727,-0.31028 0.302923,-0.31028 z m 3.130207,0 h 4.0534 c 0.14021,0 0.27407,0.12527 0.27407,0.26699 v 0.88755 c 0,0.14115 -0.13386,0.28864 -0.27407,0.28864 h -4.0534 c -0.18593,0 -0.274074,-0.13193 -0.274074,-0.28864 v -0.88755 c 0,-0.14172 0.133864,-0.26699 0.274074,-0.26699 z m 5.4454,0 h 1.74542 c 0.1832,0 0.30292,0.16943 0.30292,0.31028 v 0.8154 c 0,0.14114 -0.12694,0.3175 -0.31013,0.3175 h -1.74542 c -0.20593,0 -0.30448,-0.14175 -0.30292,-0.3175 l 0.007,-0.8154 c 0.001,-0.14085 0.11973,-0.31028 0.30292,-0.31028 z m 3.15185,0 h 0.77894 c 0.17108,0 0.28129,0.11834 0.28129,0.25977 v 0.93085 c 0,0.14144 -0.11021,0.25256 -0.28129,0.25256 h -0.77894 c -0.18661,0 -0.2885,-0.0957 -0.2885,-0.25256 v -0.93085 c 0,-0.14143 0.11684,-0.25977 0.2885,-0.25977 z M 96.772,85.891021 h 10.92687 v 0.10103 c 0,0.0569 -0.0828,0.10824 -0.18752,0.10824 H 96.959524 c -0.104148,0 -0.187524,-0.0514 -0.187524,-0.10824 z"
           id="path325"
           style="fill:#000000;fill-opacity:1;fill-rule:nonzero;stroke:#000000;stroke-width:0.04597136;stroke-linecap:butt;stroke-linejoin:miter;stroke-miterlimit:3.86400008;stroke-dasharray:none;stroke-opacity:1" />
        <path
           d="m 95.595649,95.809891 -0.06751,-0.1423 c -0.01529,-0.0303 -0.04876,-0.0488 -0.09376,-0.0266 -0.06347,0.0303 -0.205411,0.0716 -0.306962,0.0716 -0.370432,0 -0.64364,-0.29585 -0.64364,-1.00013 0,-0.6858 0.231953,-0.9779 0.651429,-0.9779 0.115977,0 0.201949,0.03 0.28821,0.0713 0.04501,0.0222 0.08222,0.008 0.100974,-0.0303 l 0.05972,-0.11604 c 0.0225,-0.041 0.0075,-0.086 -0.02972,-0.10852 -0.130978,-0.0791 -0.284459,-0.0976 -0.430728,-0.0976 -0.57238,0 -0.969354,0.46441 -0.969354,1.2547 0,0.82435 0.348218,1.29281 0.946852,1.29281 0.228779,0 0.363507,-0.0525 0.46102,-0.10103 0.02943,-0.015 0.05193,-0.0491 0.03347,-0.09 z m 2.35328,0.0976 v -2.36019 c 0,-0.045 -0.03722,-0.0753 -0.07876,-0.0753 h -0.14223 c -0.04126,0 -0.07847,0.0303 -0.07847,0.0753 v 0.9704 h -0.94714 v -0.9704 c 0,-0.045 -0.0375,-0.0753 -0.07876,-0.0753 h -0.14223 c -0.04097,0 -0.07847,0.0303 -0.07847,0.0753 v 2.36019 c 0,0.041 0.0375,0.0745 0.07847,0.0745 h 0.14223 c 0.04125,0 0.07876,-0.0335 0.07876,-0.0745 v -1.12049 h 0.94714 v 1.12049 c 0,0.041 0.03722,0.0745 0.07847,0.0745 h 0.14223 c 0.04154,0 0.07876,-0.0335 0.07876,-0.0745 z m 2.327031,0 v -0.13508 c 0,-0.045 -0.0372,-0.0791 -0.0822,-0.0791 h -0.939924 v -0.90199 h 0.823664 c 0.045,0 0.0788,-0.0338 0.0788,-0.0831 v -0.11574 c 0,-0.0413 -0.0338,-0.0748 -0.0788,-0.0748 h -0.823664 v -0.7646 h 0.913674 c 0.0488,0 0.0788,-0.0372 0.0788,-0.0823 v -0.12354 c 0,-0.045 -0.0375,-0.0753 -0.0788,-0.0753 h -1.137837 c -0.04125,0 -0.07905,0.0303 -0.07905,0.0753 v 2.36019 c 0,0.041 0.03779,0.0745 0.07905,0.0745 h 1.167837 c 0.0413,0 0.0785,-0.0335 0.0785,-0.0745 z m 2.91123,0.0107 -0.18723,-2.37491 c -0.004,-0.0485 -0.0375,-0.0713 -0.0825,-0.0713 h -0.28071 c -0.0375,0 -0.0713,0.0266 -0.0788,0.0603 l -0.40794,1.55807 c -0.0337,0.12411 -0.045,0.28488 -0.056,0.42372 -0.0153,-0.13884 -0.0263,-0.30365 -0.0563,-0.41997 l -0.40822,-1.56182 c -0.007,-0.03 -0.0372,-0.0603 -0.0747,-0.0603 h -0.28821 c -0.0447,0 -0.0822,0.0303 -0.0863,0.0713 l -0.19099,2.36423 c -0.004,0.041 0.0228,0.0745 0.06,0.0745 h 0.18724 c 0.0372,0 0.0597,-0.0257 0.0635,-0.0673 l 0.10848,-1.74192 c 0.008,-0.0935 0.008,-0.38591 0.008,-0.50598 0.0222,0.12758 0.0372,0.34117 0.0822,0.50598 l 0.40073,1.47609 c 0.015,0.0522 0.0338,0.0748 0.0785,0.0748 h 0.22099 c 0.045,0 0.0635,-0.0225 0.0785,-0.0748 l 0.40043,-1.47609 c 0.0413,-0.15356 0.0638,-0.40063 0.0788,-0.50598 0,0.12758 0.007,0.42025 0.0113,0.50973 l 0.0972,1.74164 c 0.004,0.0381 0.0262,0.0638 0.0713,0.0638 h 0.19849 c 0.041,0 0.056,-0.0257 0.0525,-0.0638 z m 2.50619,-0.007 v -2.36769 c 0,-0.041 -0.0369,-0.0713 -0.0782,-0.0713 h -0.13155 c -0.041,0 -0.0782,0.0303 -0.0782,0.0713 l 0.007,1.70469 c 0,0.16077 0.0262,0.36369 0.0375,0.51291 -0.0447,-0.127 -0.086,-0.29585 -0.16098,-0.46413 l -0.77866,-1.77194 c -0.015,-0.0338 -0.045,-0.0528 -0.086,-0.0528 h -0.28446 c -0.045,0 -0.0788,0.0228 -0.0788,0.0713 v 2.36769 c 0,0.0375 0.0378,0.071 0.0788,0.071 h 0.13069 c 0.0415,0 0.079,-0.0335 0.079,-0.071 l -0.008,-1.73442 c 0,-0.11978 -0.026,-0.3631 -0.0375,-0.51695 0.0453,0.16106 0.0938,0.33367 0.16502,0.49069 l 0.79337,1.77194 c 0.019,0.0375 0.0528,0.0597 0.09,0.0597 h 0.26224 c 0.0413,0 0.0782,-0.0335 0.0782,-0.071 z m 1.55991,-0.007 v -0.0823 c 0,-0.0413 -0.0303,-0.0788 -0.0753,-0.0788 h -0.18695 v -2.02999 h 0.18695 c 0.045,0 0.0753,-0.0375 0.0753,-0.0791 v -0.0823 c 0,-0.0413 -0.0303,-0.0791 -0.0753,-0.0791 h -0.67365 c -0.045,0 -0.0747,0.0378 -0.0747,0.0791 v 0.0823 c 0,0.0416 0.0297,0.0791 0.0747,0.0791 h 0.18753 v 2.02999 h -0.18753 c -0.045,0 -0.0747,0.0375 -0.0747,0.0788 v 0.0823 c 0,0.0413 0.0297,0.0785 0.0747,0.0785 h 0.67365 c 0.045,0 0.0753,-0.0372 0.0753,-0.0785 z m 2.05872,-2.23261 v -0.12354 c 0,-0.045 -0.0343,-0.0753 -0.075,-0.0753 h -1.44134 c -0.045,0 -0.0822,0.0303 -0.0822,0.0753 v 0.12354 c 0,0.045 0.0372,0.0751 0.0822,0.0751 h 0.56863 v 2.1616 c 0,0.041 0.0378,0.0745 0.0788,0.0745 h 0.14598 c 0.0413,0 0.0788,-0.0335 0.0788,-0.0745 v -2.1616 h 0.56921 c 0.0407,0 0.075,-0.03 0.075,-0.0751 z m 1.94852,2.23665 v -0.13133 c 0,-0.041 -0.0335,-0.0751 -0.075,-0.0751 h -0.96186 c -0.075,0 -0.15001,0.015 -0.19444,0.0225 0.0444,-0.0335 0.0972,-0.0898 0.13819,-0.16482 l 1.01061,-1.75289 c 0.0225,-0.0375 0.0412,-0.0825 0.0412,-0.12382 v -0.1348 c 0,-0.045 -0.0337,-0.0753 -0.0747,-0.0753 h -1.26506 c -0.045,0 -0.0825,0.0303 -0.0825,0.0753 v 0.12354 c 0,0.0416 0.0375,0.0751 0.0825,0.0751 h 0.86059 c 0.086,0 0.16098,-0.008 0.21752,-0.0225 -0.045,0.0375 -0.10097,0.0935 -0.13876,0.15731 l -1.02186,1.76819 c -0.0153,0.0263 -0.0338,0.0638 -0.0338,0.10477 v 0.15385 c 0,0.041 0.0338,0.0745 0.0747,0.0745 h 1.34758 c 0.0415,0 0.075,-0.0335 0.075,-0.0745 z"
           id="path343"
           style="fill:#000000;fill-opacity:1;fill-rule:nonzero;stroke:#000000;stroke-width:0.04597136;stroke-linecap:butt;stroke-linejoin:miter;stroke-miterlimit:3.86400008;stroke-dasharray:none;stroke-opacity:1" />
        <path
           d="m 81.902944,89.382811 v -0.12383 c 0,-0.045 -0.03375,-0.0748 -0.07443,-0.0748 h -1.441338 c -0.04501,0 -0.0828,0.0297 -0.0828,0.0748 v 0.12383 c 0,0.0447 0.03779,0.075 0.0828,0.075 h 0.568919 v 2.16074 c 0,0.0416 0.03751,0.0756 0.07876,0.0756 h 0.145403 c 0.04154,0 0.07905,-0.0341 0.07905,-0.0756 v -2.16074 h 0.569208 c 0.04068,0 0.07443,-0.0303 0.07443,-0.075 z m 1.964096,2.23578 v -0.1345 c 0,-0.045 -0.0375,-0.0785 -0.08222,-0.0785 h -0.939639 v -0.90315 h 0.823374 c 0.04472,0 0.07876,-0.0338 0.07876,-0.0823 v -0.11603 c 0,-0.0413 -0.03404,-0.0748 -0.07876,-0.0748 h -0.823374 v -0.7646 h 0.913386 c 0.04847,0 0.07818,-0.0372 0.07818,-0.082 v -0.12383 c 0,-0.045 -0.03722,-0.0748 -0.07818,-0.0748 h -1.138414 c -0.04097,0 -0.07818,0.0297 -0.07818,0.0748 v 2.35961 c 0,0.0416 0.03722,0.0756 0.07818,0.0756 h 1.168129 c 0.04126,0 0.07876,-0.0341 0.07876,-0.0756 z m 2.113539,-0.097 -0.06751,-0.1423 c -0.015,-0.0303 -0.04876,-0.0488 -0.09376,-0.0263 -0.06347,0.03 -0.205411,0.071 -0.306385,0.071 -0.371009,0 -0.644217,-0.29614 -0.644217,-1.00013 0,-0.68551 0.231953,-0.9779 0.651429,-0.9779 0.116265,0 0.202238,0.03 0.28821,0.0716 0.04501,0.0222 0.08222,0.007 0.100974,-0.03 l 0.05972,-0.11632 c 0.02279,-0.041 0.0078,-0.086 -0.02972,-0.10824 -0.130978,-0.0788 -0.284459,-0.0978 -0.430439,-0.0978 -0.572669,0 -0.969643,0.46441 -0.969643,1.25499 0,0.82406 0.348218,1.29252 0.94714,1.29252 0.228491,0 0.363219,-0.0525 0.460732,-0.10103 0.02971,-0.0153 0.05193,-0.0491 0.03347,-0.09 z m 2.35328,0.097 v -2.35961 c 0,-0.045 -0.03722,-0.0748 -0.07847,-0.0748 h -0.142518 c -0.04097,0 -0.07847,0.0297 -0.07847,0.0748 v 0.9704 h -0.94714 v -0.9704 c 0,-0.045 -0.03722,-0.0748 -0.07876,-0.0748 H 86.86656 c -0.04126,0 -0.07876,0.0297 -0.07876,0.0748 v 2.35961 c 0,0.0416 0.0375,0.0756 0.07876,0.0756 h 0.141941 c 0.04154,0 0.07876,-0.0341 0.07876,-0.0756 v -1.11933 h 0.94714 v 1.11933 c 0,0.0416 0.0375,0.0756 0.07847,0.0756 h 0.142518 c 0.04126,0 0.07847,-0.0341 0.07847,-0.0756 z m 2.633989,0.004 v -2.36769 c 0,-0.041 -0.03722,-0.0707 -0.07847,-0.0707 H 90.7584 c -0.04097,0 -0.07876,0.0297 -0.07876,0.0707 l 0.0075,1.70469 c 0,0.16077 0.02625,0.36311 0.0375,0.51291 -0.04501,-0.12729 -0.08597,-0.29585 -0.160982,-0.46413 l -0.778368,-1.77194 c -0.01529,-0.0335 -0.04501,-0.0522 -0.08626,-0.0522 h -0.28446 c -0.04501,0 -0.07876,0.0219 -0.07876,0.0707 v 2.36769 c 0,0.0375 0.03722,0.0716 0.07876,0.0716 h 0.130979 c 0.04125,0 0.07876,-0.0341 0.07876,-0.0716 l -0.0078,-1.73471 c 0,-0.11949 -0.02596,-0.3631 -0.03722,-0.51666 0.04501,0.16135 0.09347,0.33367 0.164732,0.49098 l 0.793659,1.77165 c 0.01846,0.0375 0.05251,0.0603 0.08972,0.0603 h 0.261956 c 0.04126,0 0.07847,-0.0341 0.07847,-0.0716 z m 1.55991,-0.007 v -0.0823 c 0,-0.0413 -0.03029,-0.0788 -0.07501,-0.0788 h -0.187235 v -2.03027 h 0.187235 c 0.04472,0 0.07501,-0.0372 0.07501,-0.0788 v -0.082 c 0,-0.0416 -0.03029,-0.0788 -0.07501,-0.0788 h -0.673931 c -0.04501,0 -0.07472,0.0372 -0.07472,0.0788 v 0.082 c 0,0.0416 0.02971,0.0788 0.07472,0.0788 h 0.187523 v 2.03027 h -0.187523 c -0.04501,0 -0.07472,0.0375 -0.07472,0.0788 v 0.0823 c 0,0.0416 0.02971,0.0791 0.07472,0.0791 h 0.673931 c 0.04472,0 0.07501,-0.0375 0.07501,-0.0791 z m 2.032182,-0.62202 c 0,-0.40062 -0.231953,-0.56919 -0.508911,-0.68522 l -0.205988,-0.0863 c -0.20945,-0.0898 -0.385722,-0.17953 -0.385722,-0.40092 0,-0.23206 0.127228,-0.3709 0.43419,-0.3709 0.153192,0 0.261956,0.0341 0.385433,0.0713 0.03029,0.007 0.0753,-0.0188 0.08626,-0.0598 l 0.03,-0.12007 c 0.01096,-0.0413 -0.01125,-0.0863 -0.04501,-0.0973 -0.112226,-0.0378 -0.303501,-0.0788 -0.456693,-0.0788 -0.486697,0 -0.756154,0.28459 -0.756154,0.66704 0,0.41968 0.28821,0.54696 0.557667,0.66704 l 0.176272,0.0785 c 0.19791,0.0898 0.359181,0.19483 0.359181,0.4266 0,0.2514 -0.190986,0.41968 -0.490447,0.41968 -0.186947,0 -0.366682,-0.06 -0.50141,-0.10853 -0.05251,-0.0185 -0.08597,0.011 -0.0978,0.0528 l -0.03722,0.14548 c -0.01096,0.0416 0.0037,0.075 0.05222,0.0935 0.142518,0.0528 0.374759,0.10536 0.580458,0.10536 0.550455,0 0.823663,-0.34117 0.823663,-0.71958 z m 2.07286,0.5285 -0.06751,-0.1423 c -0.01471,-0.0303 -0.04847,-0.0488 -0.09347,-0.0263 -0.06376,0.03 -0.205988,0.071 -0.306962,0.071 -0.370432,0 -0.643929,-0.29614 -0.643929,-1.00013 0,-0.68551 0.232242,-0.9779 0.651141,-0.9779 0.116265,0 0.202237,0.03 0.288498,0.0716 0.04501,0.0222 0.08251,0.007 0.100975,-0.03 l 0.06001,-0.11632 c 0.0225,-0.041 0.0072,-0.086 -0.03,-0.10824 -0.130979,-0.0788 -0.28446,-0.0978 -0.43044,-0.0978 -0.572957,0 -0.969931,0.46441 -0.969931,1.25499 0,0.82406 0.348506,1.29252 0.947428,1.29252 0.228202,0 0.362931,-0.0525 0.460443,-0.10103 0.02972,-0.0153 0.0528,-0.0491 0.03375,-0.09 z m 2.35328,0.097 v -2.35961 c 0,-0.045 -0.0375,-0.0748 -0.07847,-0.0748 h -0.14252 c -0.04126,0 -0.07847,0.0297 -0.07847,0.0748 v 0.9704 h -0.94714 v -0.9704 c 0,-0.045 -0.03722,-0.0748 -0.07847,-0.0748 h -0.14223 c -0.04125,0 -0.07876,0.0297 -0.07876,0.0748 v 2.35961 c 0,0.0416 0.03751,0.0756 0.07876,0.0756 h 0.14223 c 0.04126,0 0.07847,-0.0341 0.07847,-0.0756 v -1.11933 h 0.94714 v 1.11933 c 0,0.0416 0.03722,0.0756 0.07847,0.0756 h 0.142519 c 0.04097,0 0.07847,-0.0341 0.07847,-0.0756 z m 2.32732,0 v -0.1345 c 0,-0.045 -0.0378,-0.0785 -0.0828,-0.0785 h -0.93907 v -0.90315 h 0.82309 c 0.0453,0 0.079,-0.0338 0.079,-0.0823 v -0.11603 c 0,-0.0413 -0.0338,-0.0748 -0.079,-0.0748 h -0.82309 v -0.7646 h 0.9131 c 0.0485,0 0.0788,-0.0372 0.0788,-0.082 v -0.12383 c 0,-0.045 -0.0378,-0.0748 -0.0788,-0.0748 h -1.13784 c -0.0412,0 -0.07847,0.0297 -0.07847,0.0748 v 2.35961 c 0,0.0416 0.03722,0.0756 0.07847,0.0756 h 1.16785 c 0.041,0 0.0788,-0.0341 0.0788,-0.0756 z"
           id="path359"
           style="fill:#000000;fill-opacity:1;fill-rule:nonzero;stroke:#000000;stroke-width:0.04597136;stroke-linecap:butt;stroke-linejoin:miter;stroke-miterlimit:3.86400008;stroke-dasharray:none;stroke-opacity:1" />
        <path
           d="m 104.72518,90.940871 v -1.68189 c 0,-0.045 -0.0378,-0.0748 -0.0785,-0.0748 h -0.1428 c -0.0413,0 -0.0785,0.0297 -0.0785,0.0748 v 1.65938 c 0,0.44565 -0.20974,0.53571 -0.48641,0.53571 -0.35947,0 -0.47198,-0.22081 -0.47198,-0.58045 v -1.61464 c 0,-0.045 -0.0375,-0.0748 -0.0785,-0.0748 h -0.14251 c -0.0407,0 -0.0785,0.0297 -0.0785,0.0748 v 1.68189 c 0,0.47221 0.22099,0.77182 0.77145,0.77182 0.51987,0 0.78616,-0.27738 0.78616,-0.77182 z m 2.61581,0.68176 v -2.36769 c 0,-0.041 -0.0375,-0.0707 -0.0788,-0.0707 h -0.13098 c -0.0412,0 -0.0788,0.0297 -0.0788,0.0707 l 0.008,1.70469 c 0,0.16077 0.026,0.36311 0.0372,0.51291 -0.045,-0.12729 -0.086,-0.29585 -0.16098,-0.46413 l -0.77866,-1.77194 c -0.015,-0.0335 -0.0447,-0.0522 -0.086,-0.0522 h -0.28446 c -0.0447,0 -0.0785,0.0219 -0.0785,0.0707 v 2.36769 c 0,0.0375 0.0375,0.0716 0.0785,0.0716 h 0.13097 c 0.041,0 0.0788,-0.0341 0.0788,-0.0716 l -0.007,-1.73471 c 0,-0.11949 -0.0265,-0.3631 -0.0375,-0.51666 0.045,0.16135 0.0938,0.33367 0.16444,0.49098 l 0.79366,1.77165 c 0.0188,0.0375 0.0525,0.0603 0.0897,0.0603 h 0.26225 c 0.0412,0 0.0788,-0.0341 0.0788,-0.0716 z m 1.55933,-0.007 v -0.0823 c 0,-0.0413 -0.0297,-0.0788 -0.0747,-0.0788 h -0.18723 v -2.03027 h 0.18723 c 0.045,0 0.0747,-0.0372 0.0747,-0.0788 v -0.082 c 0,-0.0416 -0.0297,-0.0788 -0.0747,-0.0788 h -0.67364 c -0.045,0 -0.075,0.0372 -0.075,0.0788 v 0.082 c 0,0.0416 0.03,0.0788 0.075,0.0788 h 0.18695 v 2.03027 h -0.18695 c -0.045,0 -0.075,0.0375 -0.075,0.0788 v 0.0823 c 0,0.0416 0.03,0.0791 0.075,0.0791 h 0.67364 c 0.045,0 0.0747,-0.0375 0.0747,-0.0791 z m 2.32068,-2.35615 c 0.0112,-0.0413 -0.0187,-0.0748 -0.06,-0.0748 h -0.16099 c -0.041,0 -0.0785,0.0297 -0.09,0.0748 l -0.48641,1.81293 c -0.0263,0.0938 -0.06,0.28489 -0.0822,0.41218 -0.019,-0.13104 -0.0525,-0.31837 -0.079,-0.41218 l -0.4864,-1.81293 c -0.0147,-0.0528 -0.0485,-0.0748 -0.0972,-0.0748 h -0.19098 c -0.0407,0 -0.071,0.0335 -0.056,0.0788 l 0.70018,2.35557 c 0.0107,0.0416 0.0597,0.0756 0.10098,0.0756 h 0.20945 c 0.0415,0 0.0897,-0.0341 0.10097,-0.0756 z m 2.09623,2.35961 v -0.1345 c 0,-0.045 -0.0375,-0.0785 -0.0825,-0.0785 h -0.93964 v -0.90315 h 0.82338 c 0.045,0 0.0788,-0.0338 0.0788,-0.0823 v -0.11603 c 0,-0.0413 -0.0338,-0.0748 -0.0788,-0.0748 h -0.82338 v -0.7646 h 0.91339 c 0.0487,0 0.0785,-0.0372 0.0785,-0.082 v -0.12383 c 0,-0.045 -0.0372,-0.0748 -0.0785,-0.0748 h -1.13813 c -0.0413,0 -0.0785,0.0297 -0.0785,0.0748 v 2.35961 c 0,0.0416 0.0372,0.0756 0.0785,0.0756 h 1.16813 c 0.0413,0 0.0788,-0.0341 0.0788,-0.0756 z m 0.91613,-2.43711 c -0.0413,0 -0.0793,0.0343 -0.0793,0.0794 v 2.35961 c 0,0.0416 0.0381,0.0722 0.0793,0.0722 h 0.15146 c 0.0412,0 0.0793,-0.0306 0.0793,-0.0722 v -1.07518 h 0.19473 c 0.27667,0 0.39669,0.16366 0.48324,0.31751 0.10818,0.19078 0.17656,0.46037 0.28128,0.78653 0.0112,0.0338 0.0352,0.0433 0.0649,0.0433 h 0.22359 c 0.0281,0 0.0493,-0.006 0.0577,-0.0217 0.008,-0.016 0.009,-0.0387 0,-0.0649 -0.14973,-0.41968 -0.26225,-0.70803 -0.29571,-0.77932 -0.0411,-0.0882 -0.10451,-0.17719 -0.18031,-0.25256 -0.0379,-0.0377 -0.0757,-0.0748 -0.12261,-0.10102 -0.0469,-0.0263 -0.10249,-0.0411 -0.15868,-0.0505 l 0.0361,-0.007 c 0.40794,-0.0447 0.56258,-0.34694 0.56258,-0.62057 0,-0.23553 -0.12925,-0.61336 -0.74289,-0.61336 z m 0.2308,0.27421 h 0.40389 c 0.2885,0 0.43275,0.16164 0.43275,0.38244 0,0.27738 -0.18031,0.44017 -0.47602,0.44018 h -0.36062 z m 3.33172,1.53742 c 0,-0.40062 -0.23224,-0.56919 -0.50891,-0.68522 l -0.20628,-0.0863 c -0.20974,-0.0898 -0.38543,-0.17953 -0.38543,-0.40092 0,-0.23206 0.12723,-0.3709 0.4339,-0.3709 0.15348,0 0.26253,0.0341 0.38601,0.0713 0.0297,0.007 0.0747,-0.0188 0.086,-0.0598 l 0.0303,-0.12007 c 0.011,-0.0413 -0.0115,-0.0863 -0.0453,-0.0973 -0.11251,-0.0378 -0.3035,-0.0788 -0.45698,-0.0788 -0.48641,0 -0.75587,0.28459 -0.75587,0.66704 0,0.41968 0.28821,0.54696 0.55796,0.66704 l 0.17569,0.0785 c 0.1982,0.0898 0.35947,0.19483 0.35947,0.4266 0,0.2514 -0.19098,0.41968 -0.49044,0.41968 -0.18724,0 -0.36669,-0.06 -0.50199,-0.10853 -0.0522,-0.0185 -0.0857,0.011 -0.0969,0.0528 l -0.0375,0.14548 c -0.011,0.0416 0.004,0.075 0.0525,0.0935 0.14223,0.0528 0.37418,0.10536 0.58017,0.10536 0.55016,0 0.82366,-0.34117 0.82366,-0.71958 z m 1.36142,0.62202 v -0.0823 c 0,-0.0413 -0.0297,-0.0788 -0.0747,-0.0788 h -0.18723 v -2.03027 h 0.18723 c 0.045,0 0.0747,-0.0372 0.0747,-0.0788 v -0.082 c 0,-0.0416 -0.0297,-0.0788 -0.0747,-0.0788 h -0.67393 c -0.045,0 -0.075,0.0372 -0.075,0.0788 v 0.082 c 0,0.0416 0.03,0.0788 0.075,0.0788 h 0.18752 v 2.03027 h -0.18752 c -0.045,0 -0.075,0.0375 -0.075,0.0788 v 0.0823 c 0,0.0416 0.03,0.0791 0.075,0.0791 h 0.67393 c 0.045,0 0.0747,-0.0375 0.0747,-0.0791 z m 2.05815,-2.23232 v -0.12383 c 0,-0.045 -0.0335,-0.0748 -0.0744,-0.0748 h -1.44134 c -0.0447,0 -0.0825,0.0297 -0.0825,0.0748 v 0.12383 c 0,0.0447 0.0378,0.075 0.0825,0.075 h 0.56892 v 2.16074 c 0,0.0416 0.0378,0.0756 0.0785,0.0756 h 0.14627 c 0.041,0 0.0785,-0.0341 0.0785,-0.0756 v -2.16074 h 0.56921 c 0.041,0 0.0744,-0.0303 0.0744,-0.075 z m 1.45648,-0.80025 c -0.10472,0 -0.18031,0.0791 -0.18031,0.1804 0,0.10506 0.0828,0.1804 0.18752,0.1804 0.0897,0 0.1731,-0.0753 0.1731,-0.1804 0,-0.10131 -0.0903,-0.1804 -0.18031,-0.1804 z m -0.65633,0 c -0.0897,0 -0.16589,0.0791 -0.16589,0.1804 0,0.10506 0.0793,0.1804 0.1731,0.1804 0.10444,0 0.18031,-0.0753 0.18031,-0.1804 0,-0.10131 -0.0825,-0.1804 -0.18752,-0.1804 z m 0.21637,0.59892 c -0.041,1e-5 -0.086,0.0266 -0.10097,0.0794 l -0.6924,2.35239 c -0.0147,0.045 0.009,0.0794 0.0505,0.0794 h 0.18752 c 0.0413,0 0.0753,-0.0306 0.0866,-0.0722 l 0.1731,-0.62779 h 0.83665 l 0.18031,0.62779 c 0.003,0.0104 0.008,0.0198 0.0144,0.0289 0.0203,0.0271 0.0554,0.0433 0.0866,0.0433 h 0.19474 c 0.0407,0 0.0655,-0.0344 0.0505,-0.0794 l -0.73568,-2.35239 c -0.015,-0.0528 -0.0591,-0.0794 -0.10097,-0.0794 z m 0.1154,0.16597 c 0.008,0.0505 0.0127,0.099 0.0216,0.15154 0.009,0.0525 0.0156,0.10477 0.0288,0.15153 l 0.30292,1.0896 h -0.69961 l 0.2885,-1.0896 c 0.026,-0.0976 0.0464,-0.19829 0.0577,-0.30307 z m 2.80781,0.0354 v -0.12383 c 0,-0.045 -0.0337,-0.0748 -0.0747,-0.0748 h -1.44134 c -0.0447,0 -0.0825,0.0297 -0.0825,0.0748 v 0.12383 c 0,0.0447 0.0378,0.075 0.0825,0.075 h 0.56921 v 2.16074 c 0,0.0416 0.0372,0.0756 0.0782,0.0756 h 0.14598 c 0.0413,0 0.079,-0.0341 0.079,-0.0756 v -2.16074 h 0.56892 c 0.041,0 0.0747,-0.0303 0.0747,-0.075 z"
           id="path379"
           style="fill:#000000;fill-opacity:1;fill-rule:nonzero;stroke:#000000;stroke-width:0.04597136;stroke-linecap:butt;stroke-linejoin:miter;stroke-miterlimit:3.86400008;stroke-dasharray:none;stroke-opacity:1" />
      </g>
      <rect
         transform="scale(-1,1)"
         y="48.368622"
         x="-70.447006"
         height="87.056946"
         width="1.8928759"
         id="rect1239"
         style="opacity:1;vector-effect:none;fill:#000000;fill-opacity:1;fill-rule:nonzero;stroke:#000000;stroke-width:1.0709945;stroke-linecap:butt;stroke-linejoin:miter;stroke-miterlimit:4;stroke-dasharray:none;stroke-dashoffset:0;stroke-opacity:1;paint-order:fill markers stroke" />
      <text
         transform="scale(0.99974517,1.0002549)"
         id="text1261"
         y="106.98598"
         x="102.63622"
         style="font-style:normal;font-variant:normal;font-weight:normal;font-stretch:normal;font-size:4.08709478px;line-height:1.25;font-family:'Roboto Condensed';-inkscape-font-specification:'Roboto Condensed, ';letter-spacing:0px;word-spacing:0px;fill:#000000;fill-opacity:1;stroke:none;stroke-width:0.09643988"
         xml:space="preserve"><tspan
           id="tspan861"
           style="font-style:normal;font-variant:normal;font-weight:normal;font-stretch:normal;font-family:'Roboto Condensed';-inkscape-font-specification:'Roboto Condensed, ';text-align:center;text-anchor:middle;stroke-width:0.09643988"
           y="106.98598"
           x="102.63622">Identikation von Frageduplikaten für</tspan><tspan
           style="font-style:normal;font-variant:normal;font-weight:normal;font-stretch:normal;font-family:'Roboto Condensed';-inkscape-font-specification:'Roboto Condensed, ';text-align:center;text-anchor:middle;stroke-width:0.09643988"
           y="112.09485"
           x="102.63622"
           id="tspan865">Q&amp;A-Portale mittels Verfahren des</tspan><tspan
           style="font-style:normal;font-variant:normal;font-weight:normal;font-stretch:normal;font-family:'Roboto Condensed';-inkscape-font-specification:'Roboto Condensed, ';text-align:center;text-anchor:middle;stroke-width:0.09643988"
           y="117.20371"
           x="103.1032"
           id="tspan867">maschinellen Lernens </tspan></text>
    </g>
  </g>
</svg>
