<svg xmlns="http://www.w3.org/2000/svg" viewBox="0 0 151.84 200.7"><path fill="#fff" stroke="#000" stroke-width="1.25" d="M6.88.63H151.2V200.1H6.88z" paint-order="fill markers stroke"/><path stroke="#000" stroke-miterlimit="3.86" stroke-width=".11" d="M63.63 34.38a.93.93 0 1 1 1.87 0 .93.93 0 0 1-1.87 0zm17.96.88h-7.34c.58-1.7 2.19-2.88 3.61-2.88 1.53 0 3.18 1.4 3.73 2.88zm8.78-.88a.94.94 0 1 1 1.87 0 .94.94 0 0 1-1.87 0zm-7.2 0a.93.93 0 1 1 1.86 0 .93.93 0 0 1-1.86 0zm-12.33 0a.93.93 0 1 1 1.87 0 .93.93 0 0 1-1.87 0zm-7.21 1.57v1.22h-5.64v1.77h.13c.32 0 .6.26.6.58v2.12c0 .46-.29.57-.6.57H58v2.19h.13c.32 0 .6.25.6.57v2.14c0 .45-.28.57-.6.57H58v2.19h.13c.32 0 .6.26.6.58v2.12c0 .45-.28.59-.6.59H58v2.17h.13c.32 0 .6.27.6.59v2.12c0 .45-.28.59-.6.59H58v1.79h5.64v1.86h28.6v-1.86h5.8v-1.8h-.3c-.43 0-.58-.3-.58-.58v-2.12c0-.46.26-.6.58-.6h.3v-2.16h-.3a.59.59 0 0 1-.58-.6v-2.11c0-.38.27-.58.58-.58h.3v-2.19h-.3c-.46 0-.58-.22-.58-.57v-2.14c0-.33.27-.57.58-.57h.3v-2.2h-.3a.57.57 0 0 1-.58-.58v-2.1c0-.47.27-.58.58-.58h.3v-1.77h-5.8v-1.22zm-2.43 3h1.75c.4 0 .68.24.68.57v2.12c0 .32-.29.57-.68.57H61.2c-.4 0-.64-.25-.64-.57v-2.12c0-.48.28-.58.64-.58zm4.97 0h3.98c.42 0 .69.38.69.7v1.84c0 .32-.27.72-.7.72H66.2c-.47 0-.7-.32-.7-.72v-1.84c0-.32.27-.7.68-.7zm7.13 0h9.23c.32 0 .63.26.63.58v2.04c0 .32-.3.64-.63.64H73.3c-.42 0-.62-.29-.62-.64v-2.04c0-.32.3-.59.62-.59zm12.4 0h3.98c.42 0 .69.38.69.7v1.84c0 .32-.3.72-.7.72h-3.98c-.47 0-.7-.32-.7-.72l.02-1.84c0-.32.28-.7.7-.7zm7.18 0h1.77c.4 0 .65.24.65.57v2.12c0 .32-.25.57-.65.57h-1.77c-.44 0-.67-.2-.67-.57v-2.12c0-.33.28-.58.67-.58zM61.2 44.4h1.75c.4 0 .68.25.68.57v2.12c0 .32-.29.6-.68.6H61.2c-.49 0-.64-.2-.64-.6v-2.12c0-.45.28-.57.64-.57zm4.97 0h3.98c.42 0 .69.38.69.7v1.86c0 .32-.27.72-.7.72H66.2c-.47 0-.7-.32-.7-.72V45.1c0-.32.27-.7.68-.7zm7.13 0h9.23c.32 0 .63.28.63.6v2.03c0 .32-.3.65-.63.65H73.3c-.44 0-.62-.29-.62-.65V45c0-.33.3-.61.62-.61zm12.4 0h3.98c.42 0 .69.38.69.7v1.86c0 .32-.3.72-.7.72H85.7c-.5 0-.69-.3-.69-.72V45.1c0-.32.28-.7.7-.7zm7.18 0h1.77c.4 0 .65.25.65.57v2.12c0 .32-.26.6-.65.6h-1.77c-.43 0-.66-.23-.66-.6v-2.12c0-.32.27-.57.66-.57zM61.2 49.87h1.75c.4 0 .68.25.68.58v2.12c0 .32-.29.57-.68.57H61.2c-.44 0-.64-.2-.64-.57v-2.12c0-.48.28-.58.64-.58zm4.97 0h3.98c.42 0 .69.39.69.7v1.85c0 .32-.27.72-.7.72H66.2c-.47 0-.7-.32-.7-.72v-1.84c0-.32.27-.71.68-.71zm7.13 0h9.23c.32 0 .63.27.63.6v2.03c0 .32-.3.64-.63.64H73.3c-.4 0-.62-.3-.62-.64v-2.04c0-.32.3-.59.62-.59zm12.4 0h3.98c.42 0 .69.39.69.7v1.85c0 .32-.3.72-.7.72H85.7c-.46 0-.69-.32-.69-.72v-1.84c0-.32.28-.71.7-.71zm7.18 0h1.77c.4 0 .65.25.65.58v2.12c0 .32-.26.57-.65.57h-1.77c-.43 0-.66-.2-.66-.57v-2.12c0-.33.27-.58.66-.58zM61.2 55.33h1.75c.4 0 .68.27.68.59v2.12c0 .32-.29.57-.68.57H61.2c-.46 0-.64-.26-.64-.57v-2.12c0-.47.28-.6.64-.6zm4.97 0h3.98c.42 0 .69.38.69.7v1.86c0 .32-.27.72-.7.72H66.2c-.47 0-.7-.32-.7-.72v-1.86c0-.32.27-.7.68-.7zm7.13 0h9.23c.32 0 .63.28.63.6v2.03c0 .32-.3.65-.63.65H73.3c-.42 0-.62-.3-.62-.65v-2.03c0-.32.3-.6.62-.6zm12.4 0h3.98c.42 0 .69.38.69.7v1.86c0 .32-.3.72-.7.72h-3.98c-.47 0-.7-.32-.7-.72l.02-1.86c0-.32.28-.7.7-.7zm7.18 0h1.77c.4 0 .65.27.65.59v2.12c0 .32-.26.57-.65.57h-1.77c-.42 0-.66-.22-.66-.57v-2.12c0-.32.27-.6.66-.6zm-27.4 5.09h24.89v.23c0 .13-.2.25-.43.25H65.91c-.24 0-.43-.12-.43-.25zM62.8 83.01l-.15-.32c-.03-.07-.11-.12-.21-.06-.15.06-.47.16-.7.16-.85 0-1.47-.68-1.47-2.28 0-1.56.53-2.23 1.49-2.23.26 0 .46.07.65.17.1.05.19.01.23-.07l.14-.27c.05-.1.01-.2-.07-.24-.3-.18-.65-.23-.98-.23-1.3 0-2.2 1.06-2.2 2.86 0 1.88.78 2.94 2.15 2.94.52 0 .83-.11 1.05-.23.06-.03.12-.1.07-.2zm5.36.22v-5.37c0-.1-.08-.17-.18-.17h-.32c-.1 0-.18.06-.18.17v2.2h-2.16v-2.2c0-.1-.08-.17-.18-.17h-.32c-.1 0-.18.06-.18.17v5.37c0 .1.09.17.18.17h.32c.1 0 .18-.07.18-.17v-2.55h2.16v2.55c0 .1.09.17.18.17h.32c.1 0 .18-.07.18-.17zm5.3 0v-.3c0-.1-.08-.19-.18-.19h-2.14V80.7H73c.1 0 .18-.08.18-.19v-.26c0-.1-.08-.17-.18-.17h-1.87v-1.74h2.08c.1 0 .18-.09.18-.2v-.27c0-.1-.09-.17-.18-.17h-2.6c-.09 0-.18.06-.18.17v5.37c0 .1.1.17.18.17h2.66c.1 0 .18-.07.18-.17zm6.63.03l-.42-5.41c-.01-.11-.09-.16-.2-.16h-.63a.19.19 0 0 0-.18.13l-.93 3.55c-.08.28-.1.65-.13.97-.03-.32-.06-.7-.12-.96l-.93-3.56a.18.18 0 0 0-.17-.13h-.66c-.1 0-.19.06-.2.16l-.43 5.38c-.01.1.05.17.13.17h.43c.09 0 .14-.06.15-.15l.24-3.97c.02-.21.02-.88.02-1.15.05.29.09.78.19 1.15l.91 3.36c.03.12.08.17.18.17h.5c.1 0 .15-.05.18-.17l.91-3.36c.1-.35.15-.91.18-1.15l.03 1.16.22 3.97c0 .08.06.14.16.14h.45c.1 0 .13-.06.12-.14zm5.71-.02v-5.4c0-.09-.08-.15-.18-.15h-.3c-.1 0-.18.06-.18.16l.02 3.88c0 .37.06.83.09 1.17-.1-.3-.2-.68-.37-1.06l-1.77-4.03c-.04-.08-.1-.12-.2-.12h-.65c-.1 0-.18.05-.18.16v5.39c0 .09.09.16.18.16h.3c.1 0 .18-.07.18-.16l-.02-3.95c0-.27-.06-.83-.08-1.18.1.37.21.76.37 1.12l1.8 4.04c.05.08.13.13.21.13h.6c.1 0 .18-.07.18-.16zm3.55-.02v-.18c0-.1-.07-.18-.17-.18h-.42v-4.63h.42c.1 0 .17-.08.17-.18v-.18c0-.1-.07-.18-.17-.18h-1.53c-.1 0-.17.08-.17.18v.18c0 .1.06.18.17.18h.42v4.63h-.42c-.1 0-.17.08-.17.18v.18c0 .1.06.18.17.18h1.53c.1 0 .17-.08.17-.18zm4.7-5.08v-.28c0-.1-.09-.17-.18-.17H90.6c-.1 0-.19.07-.19.17v.28c0 .1.09.17.19.17h1.3v4.92c0 .1.08.17.17.17h.34c.09 0 .17-.07.17-.17v-4.92h1.3c.1 0 .17-.07.17-.17zm4.43 5.1v-.3c0-.1-.08-.18-.17-.18h-2.2c-.16 0-.33.04-.44.05.1-.07.23-.2.32-.37l2.3-4c.05-.08.1-.18.1-.27v-.31c0-.1-.08-.17-.18-.17h-2.88c-.1 0-.18.07-.18.17v.28c0 .1.08.17.18.17h1.96c.2 0 .37-.02.5-.05-.1.08-.23.21-.32.36l-2.32 4.02a.49.49 0 0 0-.08.24v.35c0 .1.08.17.17.17h3.07c.1 0 .17-.07.17-.17zM31.62 68.37v-.28c0-.1-.08-.17-.17-.17h-3.28c-.1 0-.19.07-.19.17v.28c0 .1.09.17.19.17h1.3v4.92c0 .1.08.18.17.18h.33c.1 0 .18-.08.18-.18v-4.92h1.3c.1 0 .17-.07.17-.17zm4.47 5.1v-.31c0-.1-.08-.18-.18-.18h-2.14v-2.06h1.87c.1 0 .18-.07.18-.18v-.27c0-.1-.08-.17-.18-.17h-1.87v-1.74h2.08c.1 0 .17-.09.17-.19v-.28c0-.1-.08-.17-.17-.17h-2.6a.17.17 0 0 0-.17.17v5.37c0 .1.08.18.17.18h2.66c.1 0 .18-.08.18-.18zm4.82-.23l-.16-.32c-.03-.07-.1-.11-.21-.06a2 2 0 0 1-.7.16c-.84 0-1.47-.67-1.47-2.28 0-1.56.53-2.22 1.49-2.22.26 0 .46.06.65.16.1.05.2.02.23-.07l.14-.26c.05-.1.02-.2-.07-.25-.3-.18-.65-.22-.98-.22-1.3 0-2.2 1.05-2.2 2.86 0 1.87.79 2.94 2.15 2.94.52 0 .83-.12 1.05-.23.07-.04.12-.11.08-.2zm5.36.22V68.1c0-.1-.09-.17-.18-.17h-.33c-.1 0-.18.07-.18.17v2.21h-2.15v-2.2a.18.18 0 0 0-.18-.18h-.33c-.09 0-.18.07-.18.17v5.37c0 .1.09.18.18.18h.33c.1 0 .18-.08.18-.18v-2.54h2.15v2.54c0 .1.09.18.18.18h.33c.1 0 .18-.08.18-.18zm6 .01v-5.39c0-.1-.09-.16-.18-.16h-.3c-.1 0-.18.07-.18.16l.02 3.88c0 .37.06.83.08 1.17-.1-.29-.2-.67-.37-1.06l-1.77-4.03c-.03-.08-.1-.12-.2-.12h-.64c-.1 0-.18.05-.18.16v5.4c0 .08.08.16.18.16h.3c.09 0 .17-.08.17-.17l-.01-3.95c0-.27-.06-.82-.09-1.17.1.36.22.76.38 1.11l1.8 4.04c.05.08.12.14.2.14h.6c.1 0 .18-.08.18-.17zm3.55-.01v-.19c0-.1-.07-.18-.17-.18h-.43v-4.62h.43c.1 0 .17-.09.17-.18v-.19c0-.1-.07-.18-.17-.18H54.1c-.1 0-.17.09-.17.18v.19c0 .1.07.18.17.18h.43v4.62h-.43c-.1 0-.17.09-.17.18v.19c0 .1.07.18.17.18h1.54c.1 0 .17-.09.17-.18zm4.63-1.42c0-.91-.53-1.3-1.16-1.56l-.47-.2c-.48-.2-.88-.4-.88-.9 0-.54.29-.85.99-.85.35 0 .6.07.88.16.06.01.17-.04.2-.14l.06-.27c.02-.1-.03-.2-.1-.22a3.7 3.7 0 0 0-1.04-.18c-1.11 0-1.72.65-1.72 1.52 0 .95.65 1.24 1.27 1.52l.4.17c.45.2.81.45.81.98 0 .57-.43.95-1.11.95-.43 0-.84-.13-1.14-.24-.12-.05-.2.02-.23.12l-.08.33c-.03.1 0 .17.12.21.32.12.85.24 1.32.24 1.25 0 1.88-.78 1.88-1.64zm4.72 1.2l-.16-.32c-.03-.07-.1-.11-.21-.06a2 2 0 0 1-.7.16c-.84 0-1.47-.67-1.47-2.28 0-1.56.53-2.22 1.49-2.22.26 0 .46.07.65.16.1.05.2.02.23-.07l.14-.26c.05-.1.02-.2-.07-.25-.3-.18-.65-.22-.98-.22-1.3 0-2.2 1.06-2.2 2.86 0 1.87.79 2.94 2.15 2.94.52 0 .83-.12 1.05-.23.07-.04.12-.11.08-.2zm5.36.23v-5.38c0-.1-.09-.17-.18-.17h-.33c-.1 0-.18.07-.18.17v2.21H67.7v-2.2a.18.18 0 0 0-.18-.18h-.33c-.09 0-.18.07-.18.17v5.38c0 .09.09.17.18.17h.33c.1 0 .18-.08.18-.17v-2.55h2.15v2.55c0 .09.09.17.18.17h.33c.09 0 .18-.08.18-.17zm5.3 0v-.31c0-.1-.1-.18-.2-.18H73.5v-2.06h1.87c.1 0 .18-.07.18-.18v-.27c0-.1-.07-.17-.18-.17H73.5v-1.74h2.08c.1 0 .18-.08.18-.19v-.28c0-.1-.09-.17-.18-.17h-2.6a.17.17 0 0 0-.17.17v5.38c0 .09.08.17.18.17h2.66c.09 0 .18-.08.18-.17zm7.77-1.55V68.1c0-.1-.1-.17-.18-.17h-.33c-.1 0-.18.07-.18.17v3.78c0 1.01-.47 1.22-1.1 1.22-.82 0-1.08-.5-1.08-1.32V68.1c0-.1-.09-.17-.18-.17h-.32c-.1 0-.18.07-.18.17v3.83c0 1.08.5 1.76 1.75 1.76 1.19 0 1.8-.63 1.8-1.76zm5.95 1.55v-5.39c0-.1-.08-.16-.18-.16h-.3c-.09 0-.17.07-.17.16l.01 3.88c0 .37.06.83.09 1.17-.1-.29-.2-.67-.37-1.06l-1.77-4.03c-.04-.08-.1-.12-.2-.12h-.65c-.1 0-.17.05-.17.16v5.4c0 .08.08.16.17.16h.3c.1 0 .18-.08.18-.17l-.01-3.95c0-.27-.06-.82-.09-1.17.1.36.21.76.38 1.11l1.8 4.04c.05.08.12.14.2.14h.6c.1 0 .18-.08.18-.17zm3.55-.01v-.19c0-.1-.06-.18-.17-.18h-.42v-4.62h.42c.1 0 .17-.09.17-.18v-.19c0-.1-.06-.18-.17-.18H91.4c-.1 0-.17.09-.17.18v.19c0 .1.07.18.17.18h.43v4.62h-.43c-.1 0-.17.09-.17.18v.19c0 .1.07.18.17.18h1.53c.1 0 .17-.09.17-.18zm5.29-5.37c.02-.1-.04-.17-.14-.17h-.36a.2.2 0 0 0-.2.17l-1.12 4.13c-.06.21-.13.65-.18.94-.05-.3-.12-.73-.18-.94L95.1 68.1c-.04-.12-.11-.17-.22-.17h-.44c-.1 0-.16.08-.13.18l1.6 5.37c.02.09.13.17.23.17h.48c.09 0 .2-.08.23-.17zm4.77 5.38v-.31c0-.1-.08-.18-.18-.18h-2.14v-2.06h1.87c.1 0 .18-.07.18-.18v-.27c0-.1-.08-.17-.18-.17h-1.87v-1.74h2.08c.1 0 .17-.08.17-.19v-.28c0-.1-.08-.17-.17-.17h-2.6c-.1 0-.18.07-.18.17v5.38c0 .09.09.17.18.17h2.66c.1 0 .18-.08.18-.17zm2.09-5.55c-.1 0-.18.07-.18.18v5.37c0 .1.09.16.18.16h.34c.1 0 .18-.07.18-.16v-2.45h.45c.63 0 .9.37 1.1.72.25.44.4 1.05.64 1.8.03.07.08.1.15.1h.5c.07 0 .12-.02.14-.06.02-.03.02-.08 0-.14a25.3 25.3 0 0 0-.68-1.78 2.06 2.06 0 0 0-.69-.8c-.1-.06-.23-.1-.36-.12l.09-.01c.92-.1 1.28-.8 1.28-1.42 0-.53-.3-1.4-1.7-1.4zm.53.62h.91c.66 0 .99.37.99.87 0 .63-.41 1-1.08 1h-.82zm7.58 3.5c0-.91-.53-1.3-1.16-1.56l-.47-.2c-.47-.2-.87-.4-.87-.9 0-.54.29-.85.98-.85.35 0 .6.07.88.16.07.01.17-.04.2-.14l.07-.27c.02-.1-.03-.2-.1-.22a3.7 3.7 0 0 0-1.05-.18c-1.1 0-1.72.65-1.72 1.52 0 .95.66 1.24 1.27 1.52l.4.18c.46.2.82.44.82.97 0 .57-.43.95-1.11.95a3.5 3.5 0 0 1-1.15-.24c-.12-.05-.2.02-.22.12l-.08.33c-.03.1 0 .17.12.21.32.12.85.24 1.32.24 1.25 0 1.87-.78 1.87-1.64zm3.1 1.42v-.19c0-.1-.06-.18-.17-.18h-.42v-4.62h.42c.1 0 .17-.09.17-.18v-.19c0-.1-.06-.18-.17-.18h-1.53c-.1 0-.17.09-.17.18v.19c0 .1.07.18.17.18h.43v4.62h-.43c-.1 0-.17.09-.17.18v.19c0 .1.07.18.17.18h1.53c.1 0 .17-.09.17-.18zm4.69-5.09v-.28c0-.1-.08-.17-.17-.17h-3.28c-.1 0-.19.07-.19.17v.28c0 .1.09.17.19.17h1.3v4.93c0 .09.08.17.17.17h.34c.09 0 .17-.08.17-.17v-4.93h1.3c.1 0 .17-.06.17-.17zm3.32-1.82a.4.4 0 0 0-.41.41c0 .24.19.41.42.41.2 0 .4-.17.4-.4 0-.24-.2-.42-.41-.42zm-1.5 0c-.2 0-.38.18-.38.41 0 .24.19.41.4.41a.4.4 0 0 0 .41-.4.41.41 0 0 0-.43-.42zm.5 1.37c-.1 0-.2.06-.23.18l-1.58 5.35c-.03.1.02.18.11.18h.43c.1 0 .17-.07.2-.16l.4-1.43h1.9l.4 1.43.04.07c.05.06.13.1.2.1h.44c.1 0 .15-.08.12-.19l-1.68-5.35a.24.24 0 0 0-.23-.18zm.26.37l.05.35c.02.12.03.24.06.34l.7 2.48h-1.6l.66-2.48c.06-.22.1-.45.13-.69zm6.4.08v-.28c0-.1-.08-.17-.18-.17h-3.28c-.1 0-.19.07-.19.17v.28c0 .1.09.17.19.17h1.3v4.93c0 .09.08.17.17.17h.34c.1 0 .18-.08.18-.17v-4.93h1.3c.09 0 .16-.06.16-.17z"/><path stroke="#000" stroke-width="2.44" d="M5.54 1.22h-4.3V199.5h4.3z" paint-order="fill markers stroke"/><text style="line-height:1.25;-inkscape-font-specification:'Roboto Condensed, '" x="102.64" y="106.99" stroke-width=".1" font-family="Roboto Condensed" font-size="4.09" font-weight="400" letter-spacing="0" transform="matrix(2.27682 0 0 2.27798 -154.9 -108.94)" word-spacing="0"><tspan x="102.64" y="106.99" text-anchor="middle" style="-inkscape-font-specification:'Roboto Condensed, ';text-align:center">Identikation von Frageduplikaten für</tspan><tspan x="102.64" y="112.09" text-anchor="middle" style="-inkscape-font-specification:'Roboto Condensed, ';text-align:center">Q&amp;A-Portale mittels Verfahren des</tspan><tspan x="103.1" y="117.2" text-anchor="middle" style="-inkscape-font-specification:'Roboto Condensed, ';text-align:center">maschinellen Lernens</tspan></text></svg>