<svg xmlns="http://www.w3.org/2000/svg" xmlns:xlink="http://www.w3.org/1999/xlink" viewBox="0 0 166.76 166.76"><defs><linearGradient id="t" x1="80.05" x2="80.05" y1="73.99" y2="129.18" gradientTransform="translate(-157.02 155.4) scale(.01887)" gradientUnits="userSpaceOnUse" xlink:href="#a"/><linearGradient id="a"><stop offset="0" stop-color="#ff8080"/><stop offset="1" stop-color="#ff3737"/></linearGradient><linearGradient id="u" x1="62.37" x2="62.37" y1="127.04" y2="76.13" gradientTransform="translate(-157.02 155.4) scale(.01887)" gradientUnits="userSpaceOnUse" xlink:href="#b"/><linearGradient id="b"><stop offset="0" stop-color="#ff8080"/><stop offset="1" stop-color="#ff2f2f"/></linearGradient><linearGradient id="v" x1="62.93" x2="62.93" y1="99.89" y2="73.99" gradientUnits="userSpaceOnUse" xlink:href="#c"/><linearGradient id="c"><stop offset="0" stop-color="red"/><stop offset="1" stop-color="#ff2f2f" stop-opacity="0"/></linearGradient><clipPath id="p"/><linearGradient id="q" x1="80.05" x2="80.05" y1="73.99" y2="129.18" gradientTransform="translate(-157.02 154.3) scale(.01887)" gradientUnits="userSpaceOnUse" xlink:href="#d"/><linearGradient id="d"><stop offset="0" stop-color="#8080ff"/><stop offset="1" stop-color="#3737ff"/></linearGradient><linearGradient id="r" x1="62.37" x2="62.37" y1="127.04" y2="76.13" gradientTransform="translate(-157.02 154.3) scale(.01887)" gradientUnits="userSpaceOnUse" xlink:href="#e"/><linearGradient id="e"><stop offset="0" stop-color="#8080ff"/><stop offset="1" stop-color="#2f2fff"/></linearGradient><linearGradient id="s" x1="62.93" x2="62.93" y1="99.89" y2="73.99" gradientUnits="userSpaceOnUse" xlink:href="#f"/><linearGradient id="f"><stop offset="0" stop-color="#00f"/><stop offset="1" stop-color="#2f2fff" stop-opacity="0"/></linearGradient><clipPath id="l"/><linearGradient id="h" x1="-1924.74" x2="-1905.36" y1="-130.34" y2="-58.04" gradientUnits="userSpaceOnUse" xlink:href="#g"/><linearGradient id="g"><stop offset="0" stop-color="#f9f9f9"/><stop offset="1" stop-color="#ccc"/></linearGradient><linearGradient id="i" x1="80.05" x2="80.05" y1="73.99" y2="129.18" gradientTransform="translate(-157.02 154.3) scale(.01887)" gradientUnits="userSpaceOnUse" xlink:href="#d"/><linearGradient id="j" x1="62.37" x2="62.37" y1="127.04" y2="76.13" gradientTransform="translate(-157.02 154.3) scale(.01887)" gradientUnits="userSpaceOnUse" xlink:href="#e"/><linearGradient id="k" x1="62.93" x2="62.93" y1="99.89" y2="73.99" gradientUnits="userSpaceOnUse" xlink:href="#f"/><linearGradient id="m" x1="80.05" x2="80.05" y1="73.99" y2="129.18" gradientTransform="translate(-157.02 155.4) scale(.01887)" gradientUnits="userSpaceOnUse" xlink:href="#a"/><linearGradient id="n" x1="62.37" x2="62.37" y1="127.04" y2="76.13" gradientTransform="translate(-157.02 155.4) scale(.01887)" gradientUnits="userSpaceOnUse" xlink:href="#b"/><linearGradient id="o" x1="62.93" x2="62.93" y1="99.89" y2="73.99" gradientUnits="userSpaceOnUse" xlink:href="#c"/></defs><path fill="url(#h)" d="M-1866.54-68.44l-73.4 19.67-19.67-73.4 73.4-19.68z" opacity=".98" transform="rotate(15 -3168.33 16197.53) scale(2.19441)"/><g transform="translate(9399.34 -9338.29) scale(60.04669)"><circle cx="-155.84" cy="156.21" r=".52" fill="url(#i)" opacity=".99" paint-order="fill markers stroke"/><circle cx="-155.84" cy="156.21" r=".48" fill="url(#j)" paint-order="fill markers stroke"/><ellipse cx="62.37" cy="76.13" fill="url(#k)" clip-path="url(#l)" opacity=".38" paint-order="fill markers stroke" rx="37.75" ry="23.85" transform="matrix(.01887 0 0 -.01887 -157.02 158.13)"/></g><g transform="translate(9399.37 -9321.56) scale(60.04687)"><circle cx="-155.84" cy="157.31" r=".52" fill="url(#m)" paint-order="fill markers stroke"/><circle cx="-155.84" cy="157.31" r=".48" fill="url(#n)" paint-order="fill markers stroke"/><ellipse cx="62.37" cy="76.13" fill="url(#o)" clip-path="url(#p)" opacity=".38" paint-order="fill markers stroke" rx="37.75" ry="23.85" transform="matrix(.01887 0 0 -.01887 -157.02 159.23)"/></g><g transform="translate(9482.72 -9254.9) scale(60.04669)"><circle cx="-155.84" cy="156.21" r=".52" fill="url(#q)" opacity=".99" paint-order="fill markers stroke"/><circle cx="-155.84" cy="156.21" r=".48" fill="url(#r)" paint-order="fill markers stroke"/><ellipse cx="62.37" cy="76.13" fill="url(#s)" clip-path="url(#l)" opacity=".38" paint-order="fill markers stroke" rx="37.75" ry="23.85" transform="matrix(.01887 0 0 -.01887 -157.02 158.13)"/></g><g transform="translate(9482.75 -9404.28) scale(60.04687)"><circle cx="-155.84" cy="157.31" r=".52" fill="url(#t)" paint-order="fill markers stroke"/><circle cx="-155.84" cy="157.31" r=".48" fill="url(#u)" paint-order="fill markers stroke"/><ellipse cx="62.37" cy="76.13" fill="url(#v)" clip-path="url(#p)" opacity=".38" paint-order="fill markers stroke" rx="37.75" ry="23.85" transform="matrix(.01887 0 0 -.01887 -157.02 159.23)"/></g></svg>