<svg xmlns="http://www.w3.org/2000/svg" viewBox="0 0 493.4 493.4"><g><path fill="#f9f9f9" stroke="#fff" stroke-width="2.73" d="M25.44 248.07h219.89v219.89H25.44zM25.44 25.44h219.89v219.89H25.44zM248.07 25.44h219.89v219.89H248.07zM248.07 248.07h219.89v219.89H248.07z"/><path fill="#ececec" stroke="#000" stroke-width="9.26" d="M4.63 4.64h484.14v484.14H4.63z"/><g fill="none" stroke="#000" stroke-linecap="round" stroke-linejoin="round" stroke-width="9.26"><path d="M223.36 277.44H47.4v175.95h175.95z"/><path d="M202.06 342.17h-25.93v25.93h25.93zM148.35 342.17h-25.93v25.93h25.93zM94.64 342.17H68.7v25.93h25.93zM202.06 399.32h-25.93v25.93h25.93zM148.35 399.32h-25.93v25.93h25.93zM94.64 399.32H68.7v25.93h25.93z"/><path d="M223.36 314.04H47.4v139.34h175.95z"/></g><g fill="none" stroke="#000" stroke-linecap="round" stroke-width=".66"><g transform="matrix(1.5227 0 0 1.52124 2645.89 -638.72)"><path stroke-linejoin="round" stroke-width="6.0853399999999995" d="M-1691 468.42v-19.23M-1691 564.76v-65.34"/><circle cx="-1690.99" cy="483.92" r="15.5" stroke-linejoin="bevel" stroke-width="6.08"/></g><g transform="matrix(1.5227 0 0 1.52124 2648.4 -638.72)"><path stroke-linejoin="round" stroke-width="6.0853399999999995" d="M-1650.37 512.32V449.2M-1650.37 564.76v-21.44"/><circle cx="-1650.37" cy="527.82" r="15.5" stroke-linejoin="bevel" stroke-width="6.08"/></g><g transform="matrix(1.5227 0 0 1.52124 2603.7 -637.1)"><path stroke-linejoin="round" stroke-width="6.0853399999999995" d="M-1578.74 480.96v-32.84M-1578.74 563.7v-51.73"/><circle cx="-1578.74" cy="496.46" r="15.5" stroke-linejoin="bevel" stroke-width="6.08"/></g></g><path fill="none" stroke="#000" stroke-linecap="round" stroke-linejoin="round" stroke-width="9.26" d="M270.06 353.3h175.95l-90.04-75.86zm106.82 100.08h46.53V353.3H294.23v100.08h46.54m36.11-.12V405.2h-36.12v48.06"/><g fill="none" stroke="#000" stroke-linecap="round" stroke-linejoin="round" stroke-width="9.26" transform="translate(-456.1 984.36)"><path d="M763.42-840.02a150.89 154.11 0 0 1 50.69-8.95 150.89 154.11 0 0 1 50.68 8.95M744.76-873a187.69 191.7 0 0 1 69.35-13.56A187.69 191.7 0 0 1 883.45-873M726.2-905.84a224.49 229.29 0 0 1 87.9-18.3 224.49 229.29 0 0 1 87.92 18.3"/><ellipse cx="814.1" cy="-798.32" rx="18.76" ry="18.77"/></g></g></svg>