<svg xmlns="http://www.w3.org/2000/svg" id="svg8" viewBox="0 0 151.8 200.7" height="758.6" width="573.9"><g transform="translate(-61.3 -111.7)" id="layer1"><g id="g909" transform="translate(-93.6 2.8) scale(2.2774)"><path id="rect1211" fill="#fff" stroke="#000" stroke-width=".6" paint-order="fill markers stroke" d="M71 48.1h63.4v87.6H71z"/><path id="rect1239" stroke="#000" stroke-width="1.1" paint-order="fill markers stroke" d="M70.4 48.4h-1.9v87.1h1.9z"/><g transform="translate(70 54.4) scale(1.03159)" id="g855" fill="#fff" stroke="#000"><path id="path851" d="M41.2 19.5c0 5.2-9.4 16.6-9.4 16.6s-9.4-11.5-9.4-16.6c0-5.1 4.2-9.4 9.4-9.4s9.4 4.3 9.4 9.4z" stroke-miterlimit="10"/><circle id="circle853" r="3.1" cy="19" cx="31.9"/></g><text style="line-height:1.25;-inkscape-font-specification:'Helvetica, Normal';font-variant-ligatures:normal;font-variant-caps:normal;font-variant-numeric:normal;font-feature-settings:normal;text-align:start" x="47.2" y="112.5" id="text957" font-weight="400" font-size="1.9" font-family="Helvetica" letter-spacing=".8" word-spacing="0" stroke-width=".1"/><g aria-label="Species Prediction based on Environmental Variables using Machine Learning Techniquespecies Prediction based on Environmental" transform="matrix(.11618 0 0 .11618 137.5 87.1)" style="line-height:1.25;-inkscape-font-specification:'Helvetica, Normal';font-variant-ligatures:normal;font-variant-caps:normal;font-variant-numeric:normal;font-feature-settings:normal;text-align:start" id="flowRoot959" font-weight="400" font-size="35.2" font-family="Roboto Condensed" letter-spacing="0" word-spacing="0" text-anchor="middle"><path d="M-478.5 164.8q0-.9-.2-1.5-.2-.7-.8-1.2-.5-.6-1.4-1.1l-2.3-1q-1.6-.5-2.8-1.2-1.3-.7-2.2-1.6-.9-.9-1.4-2-.4-1.1-.4-2.6t.5-2.7q.5-1.2 1.4-2.2 1-.9 2.3-1.4 1.3-.5 3-.5 1.8 0 3.2.6 1.4.7 2.3 1.7 1 1 1.5 2.4.4 1.4.4 2.9h-3.1q0-1-.3-2-.2-.9-.8-1.5-.5-.7-1.3-1-.8-.4-2-.4-1 0-1.8.3-.7.3-1.2.9-.5.5-.7 1.2-.3.8-.3 1.7 0 1.5 1.2 2.6 1.1 1 3.5 1.9 1.8.6 3.1 1.3 1.3.8 2.1 1.7.9 1 1.3 2 .4 1.2.4 2.7 0 1.5-.6 2.7-.5 1.3-1.4 2.2-1 .8-2.3 1.3-1.4.5-3.1.5-1.5 0-3-.5-1.3-.5-2.5-1.4-1-1-1.8-2.4-.7-1.4-.7-3.3h3.2q0 1.3.4 2.2.3 1 1 1.5.7.6 1.5 1l1.9.2q2 0 3.1-1 1-1.1 1-3z" style="-inkscape-font-specification:'Roboto Condensed, Normal';font-variant-ligatures:normal;font-variant-caps:normal;font-variant-numeric:normal;font-feature-settings:normal;text-align:center" id="path967"/><path d="M-458.2 162.7q0 4.5-1.6 6.6-1.6 2.2-4.5 2.2-1.5 0-2.5-.6-1-.5-1.8-1.5v8.9h-3v-25.7h2.7l.1 2q.8-1.2 1.9-1.8 1-.6 2.5-.6t2.7.5q1.1.5 1.9 1.6.8 1 1.2 2.8.4 1.6.4 3.9zm-3-1.7q0-3.1-1-4.6-1-1.5-3.1-1.5-1.2 0-2 .6t-1.3 1.6v9.7q.5.9 1.3 1.5.7.6 2 .6 2.1 0 3-1.5 1-1.5 1-4.7z" style="-inkscape-font-specification:'Roboto Condensed, Normal';font-variant-ligatures:normal;font-variant-caps:normal;font-variant-numeric:normal;font-feature-settings:normal;text-align:center" id="path969"/><path d="M-447.6 171.5q-1.7 0-3-.5-1.4-.5-2.3-1.5-1-1-1.5-2.6t-.5-3.7V161q0-2.5.6-4.2.6-1.7 1.6-2.7 1-1 2.2-1.5 1.2-.5 2.5-.5 1.8 0 3 .6t2 1.7q.8 1 1.2 2.7.3 1.7.3 3.8v1.8h-10.3v.4q0 3 1 4.3 1.2 1.4 3.3 1.4.8 0 1.4-.2l1.2-.4.9-.7.8-.8 1.6 1.9-1 1-1.2 1-1.7.5q-1 .3-2.1.3zm-.4-16.7q-.8 0-1.4.3-.7.2-1.2.8-.5.6-.8 1.7-.3 1-.4 2.5h7.3v-.4l-.2-2q-.2-.9-.6-1.5-.4-.7-1-1-.7-.4-1.7-.4z" style="-inkscape-font-specification:'Roboto Condensed, Normal';font-variant-ligatures:normal;font-variant-caps:normal;font-variant-numeric:normal;font-feature-settings:normal;text-align:center" id="path971"/><path d="M-431.3 168.9l1.2-.2q.6-.2 1.1-.7.5-.4.7-1 .3-.8.4-1.7h2.8q0 1.4-.5 2.5-.5 1.2-1.4 2-.9.8-2 1.2-1 .5-2.3.5-1.8 0-3.2-.6-1.3-.6-2.2-1.7-.9-1-1.3-2.7-.4-1.6-.4-3.6v-2.1q0-2 .4-3.6t1.3-2.7q.9-1.1 2.2-1.7 1.3-.6 3.1-.6 1.5 0 2.6.5 1.1.4 2 1.3.8.9 1.2 2.1.5 1.3.5 2.8h-2.8q-.1-2-1-3t-2.5-1q-1.2 0-2 .3-.7.5-1.2 1.3-.4.7-.6 1.8-.2 1.1-.2 2.5v2q0 1.5.2 2.6.2 1 .6 1.9.5.7 1.3 1.2.7.4 2 .4z" style="-inkscape-font-specification:'Roboto Condensed, Normal';font-variant-ligatures:normal;font-variant-caps:normal;font-variant-numeric:normal;font-feature-settings:normal;text-align:center" id="path973"/><path d="M-418.2 171.1h-3v-18.5h3zm-3.2-23.5q0-.8.4-1.3t1.3-.5q.8 0 1.3.5.4.6.4 1.3 0 .8-.4 1.3t-1.3.5q-.9 0-1.3-.5t-.4-1.3z" style="-inkscape-font-specification:'Roboto Condensed, Normal';font-variant-ligatures:normal;font-variant-caps:normal;font-variant-numeric:normal;font-feature-settings:normal;text-align:center" id="path975"/><path d="M-406.8 171.5q-1.7 0-3-.5-1.4-.5-2.3-1.5-1-1-1.4-2.6-.5-1.6-.5-3.7V161q0-2.5.5-4.2.6-1.7 1.6-2.7 1-1 2.2-1.5 1.2-.5 2.5-.5 1.8 0 3 .6 1.3.6 2 1.7.8 1 1.2 2.7.4 1.7.4 3.8v1.8H-411v.4q0 3 1.1 4.3 1.1 1.4 3.2 1.4.8 0 1.4-.2.7-.1 1.2-.4l1-.7.7-.8 1.6 1.9-1 1q-.4.5-1.2 1l-1.7.5q-1 .3-2.1.3zm-.4-16.7q-.8 0-1.4.3-.7.2-1.2.8-.5.6-.8 1.7-.3 1-.4 2.5h7.3v-.4l-.2-2q-.2-.9-.6-1.5-.4-.7-1-1-.7-.4-1.7-.4z" style="-inkscape-font-specification:'Roboto Condensed, Normal';font-variant-ligatures:normal;font-variant-caps:normal;font-variant-numeric:normal;font-feature-settings:normal;text-align:center" id="path977"/><path d="M-388 166.4l-.1-1q-.2-.4-.7-.8l-1-.7-1.7-.9-2.4-1q-1-.5-1.7-1.1-.7-.7-1-1.5-.4-.8-.4-2 0-1 .4-2t1.2-1.6q.8-.8 1.9-1.2 1-.4 2.4-.4t2.5.4q1.1.5 2 1.2.7.8 1 1.8.5 1 .5 2.2h-3l-.2-1q-.2-.6-.6-1-.4-.5-1-.7-.5-.3-1.2-.3-.8 0-1.3.2-.6.2-1 .6l-.4.8-.2 1q0 .5.2.9l.5.7q.3.3 1 .6l1.6.8 2.5 1 1.8 1.3q.7.7 1.1 1.5.4.8.4 2t-.5 2.2q-.4 1-1.2 1.7-.8.6-2 1-1 .4-2.4.4-1.6 0-2.8-.5-1.3-.5-2-1.3-1-.8-1.3-1.9-.4-1-.4-2.2h3q0 1 .4 1.6.3.6.8 1l1 .6h1.3q1.5 0 2.3-.6.8-.7.8-1.8z" style="-inkscape-font-specification:'Roboto Condensed, Normal';font-variant-ligatures:normal;font-variant-caps:normal;font-variant-numeric:normal;font-feature-settings:normal;text-align:center" id="path979"/><path d="M-369.4 161.3v9.8h-3.1v-25h8q1.8 0 3.2.6 1.4.6 2.3 1.6 1 1 1.4 2.4.5 1.4.5 3 0 1.9-.5 3.3-.4 1.4-1.4 2.4-1 1-2.3 1.4-1.4.5-3.2.5zm0-2.7h4.9q1.1 0 2-.3.7-.4 1.3-1 .5-.7.7-1.5.3-1 .3-2t-.3-1.8q-.2-1-.7-1.6-.6-.7-1.4-1.1-.8-.5-2-.5h-4.8z" style="-inkscape-font-specification:'Roboto Condensed, Normal';font-variant-ligatures:normal;font-variant-caps:normal;font-variant-numeric:normal;font-feature-settings:normal;text-align:center" id="path981"/><path d="M-345.7 155.4h-.7l-.7-.1q-1.3 0-2 .7-.8.7-1.3 1.8v13.3h-3v-18.5h3v1.8q.6-1 1.4-1.6.9-.6 2-.6h.7l.3.2h.2z" style="-inkscape-font-specification:'Roboto Condensed, Normal';font-variant-ligatures:normal;font-variant-caps:normal;font-variant-numeric:normal;font-feature-settings:normal;text-align:center" id="path983"/><path d="M-336.4 171.5q-1.7 0-3-.5t-2.3-1.5q-1-1-1.4-2.6-.5-1.6-.5-3.7V161q0-2.5.6-4.2.6-1.7 1.5-2.7 1-1 2.2-1.5 1.2-.5 2.6-.5 1.7 0 3 .6 1.2.6 2 1.7.8 1 1.1 2.7.4 1.7.4 3.8v1.8h-10.4v.4q0 3 1.1 4.3 1.2 1.4 3.3 1.4l1.4-.2q.6-.1 1.1-.4l1-.7.8-.8 1.5 1.9q-.3.5-.9 1l-1.2 1-1.7.5q-1 .3-2.2.3zm-.3-16.7q-.8 0-1.5.3-.7.2-1.2.8-.5.6-.8 1.7-.3 1-.4 2.5h7.3v-.4l-.2-2q-.2-.9-.6-1.5-.3-.7-1-1-.6-.4-1.6-.4z" style="-inkscape-font-specification:'Roboto Condensed, Normal';font-variant-ligatures:normal;font-variant-caps:normal;font-variant-numeric:normal;font-feature-settings:normal;text-align:center" id="path985"/><path d="M-327.2 161q0-2.3.5-4 .4-1.6 1.2-2.7.8-1 2-1.6 1.1-.5 2.5-.5t2.4.6q1 .5 1.8 1.6v-9.6h3V171h-2.8l-.1-2q-.7 1.2-1.8 1.8-1 .6-2.5.6-1.4 0-2.5-.6-1.1-.5-2-1.6-.8-1-1.2-2.7-.5-1.6-.5-3.9zm3 1.7q0 3.2 1 4.6 1 1.5 3 1.5 1.3 0 2-.6.9-.7 1.4-1.7v-9.4q-.5-1-1.4-1.6-.8-.6-2-.6-2 0-3 1.5t-1 4.6z" style="-inkscape-font-specification:'Roboto Condensed, Normal';font-variant-ligatures:normal;font-variant-caps:normal;font-variant-numeric:normal;font-feature-settings:normal;text-align:center" id="path987"/><path d="M-305.8 171.1h-3v-18.5h3zm-3.2-23.5q0-.8.4-1.3t1.3-.5q.8 0 1.3.5.4.6.4 1.3 0 .8-.4 1.3t-1.3.5q-.9 0-1.3-.5t-.4-1.3z" style="-inkscape-font-specification:'Roboto Condensed, Normal';font-variant-ligatures:normal;font-variant-caps:normal;font-variant-numeric:normal;font-feature-settings:normal;text-align:center" id="path989"/><path d="M-294.6 168.9q.7 0 1.3-.2.6-.2 1-.7.5-.4.8-1 .3-.8.3-1.7h2.9q0 1.4-.6 2.5-.5 1.2-1.4 2-.8.8-2 1.2-1 .5-2.3.5-1.8 0-3.1-.6-1.4-.6-2.2-1.7-1-1-1.4-2.7-.4-1.6-.4-3.6v-2.1q0-2 .4-3.6.5-1.6 1.4-2.7.8-1.1 2.2-1.7 1.3-.6 3-.6 1.5 0 2.6.5 1.2.4 2 1.3t1.3 2.1q.4 1.3.5 2.8h-2.9q0-2-1-3-.9-1-2.4-1-1.2 0-2 .3-.8.5-1.2 1.3-.5.7-.7 1.8l-.1 2.5v2l.1 2.6q.2 1 .7 1.9.4.7 1.2 1.2.8.4 2 .4z" style="-inkscape-font-specification:'Roboto Condensed, Normal';font-variant-ligatures:normal;font-variant-caps:normal;font-variant-numeric:normal;font-feature-settings:normal;text-align:center" id="path991"/><path d="M-280.8 148v4.6h2.8v2.4h-2.8v11.5l.1 1.2.4.7.5.3H-278.5l.5-.1v2.5l-.8.3h-1.3q-.8 0-1.4-.2-.7-.2-1.2-.8-.5-.6-.8-1.5-.3-1-.3-2.4V155h-2.8v-2.4h2.8V148z" style="-inkscape-font-specification:'Roboto Condensed, Normal';font-variant-ligatures:normal;font-variant-caps:normal;font-variant-numeric:normal;font-feature-settings:normal;text-align:center" id="path993"/><path d="M-271.1 171.1h-3v-18.5h3zm-3.2-23.5q0-.8.4-1.3t1.3-.5q.8 0 1.3.5.4.6.4 1.3 0 .8-.4 1.3t-1.3.5q-.9 0-1.3-.5t-.4-1.3z" style="-inkscape-font-specification:'Roboto Condensed, Normal';font-variant-ligatures:normal;font-variant-caps:normal;font-variant-numeric:normal;font-feature-settings:normal;text-align:center" id="path995"/><path d="M-267 161q0-2.2.6-3.8.5-1.7 1.5-2.8 1-1 2.3-1.6 1.3-.6 2.8-.6 1.5 0 2.8.6 1.3.5 2.3 1.6 1 1.1 1.5 2.8.6 1.6.6 3.8v1.7q0 2.2-.6 3.9-.5 1.6-1.5 2.7-1 1-2.3 1.6-1.3.6-2.8.6-1.5 0-2.8-.6-1.3-.5-2.3-1.6-1-1.1-1.5-2.7-.6-1.7-.6-3.9zm3 1.7q0 1.6.4 2.7.3 1.2.8 2 .6.7 1.4 1.1.7.4 1.6.4 4.1 0 4.1-6.2V161q0-1.5-.3-2.7-.3-1.1-.9-2-.5-.7-1.3-1-.7-.5-1.6-.5-1 0-1.7.4t-1.3 1.2q-.5.8-.8 2-.4 1-.4 2.6z" style="-inkscape-font-specification:'Roboto Condensed, Normal';font-variant-ligatures:normal;font-variant-caps:normal;font-variant-numeric:normal;font-feature-settings:normal;text-align:center" id="path997"/><path d="M-245.8 152.6v2q.9-1.2 2-1.8 1.2-.6 2.6-.6 1.1 0 2 .4 1 .3 1.6 1.2.7.8 1 2 .4 1.3.4 3.2V171h-3V159q0-2.2-.8-3-.7-1-2.2-1-1.1 0-2 .8-1 .7-1.5 2V171h-3v-18.5z" style="-inkscape-font-specification:'Roboto Condensed, Normal';font-variant-ligatures:normal;font-variant-caps:normal;font-variant-numeric:normal;font-feature-settings:normal;text-align:center" id="path999"/><path d="M-210.2 162.7q0 2.3-.4 3.9t-1.2 2.7q-.7 1.1-1.9 1.6-1 .6-2.6.6-1.5 0-2.6-.7-1-.6-1.8-1.9l-.1 2.2h-2.8v-26.3h3v9.8q.7-1.2 1.8-1.8 1-.6 2.5-.6t2.6.5q1.2.5 2 1.6.7 1 1.1 2.8.4 1.6.4 3.9zm-3-1.7q0-1.5-.2-2.7-.2-1.1-.6-1.9-.5-.7-1.2-1.1-.8-.4-1.9-.4-1.3 0-2.1.7-.9.7-1.4 1.8v8.9l.6 1q.3.5.8.8l1 .5q.5.2 1.2.2 2 0 3-1.5.8-1.4.8-4.6z" style="-inkscape-font-specification:'Roboto Condensed, Normal';font-variant-ligatures:normal;font-variant-caps:normal;font-variant-numeric:normal;font-feature-settings:normal;text-align:center" id="path1001"/><path d="M-196.7 171.1l-.2-.8-.2-1.2-.7 1-1 .7-1.1.5q-.6.2-1.3.2-1.2 0-2.2-.4-1-.3-1.7-1t-1-1.7q-.4-1-.4-2.3 0-1.4.4-2.5.5-1.1 1.4-2 .9-.8 2.3-1.2 1.3-.5 3.2-.5h2v-2q0-1.7-.7-2.4t-2.2-.7q-.7 0-1.3.3-.6.2-1 .6-.4.4-.6 1-.2.4-.2 1h-3q0-1 .4-2t1.2-1.7q.9-.8 2-1.3 1.2-.5 2.6-.5 1.3 0 2.4.3 1 .3 1.9 1 .7.7 1.2 1.8.4 1 .4 2.6v10.2l.1 1 .2 1 .3.8v.2zm-4-2.4l1.2-.2 1-.5.8-.6.6-.8V162h-1.6q-1.1 0-2 .3-.9.2-1.5.7-.6.4-1 1-.3.8-.3 1.6 0 .9.2 1.4.1.6.5 1l.8.5 1.3.1z" style="-inkscape-font-specification:'Roboto Condensed, Normal';font-variant-ligatures:normal;font-variant-caps:normal;font-variant-numeric:normal;font-feature-settings:normal;text-align:center" id="path1003"/><path d="M-180.4 166.4l-.2-1q-.1-.4-.6-.8l-1-.7-1.8-.9-2.3-1q-1-.5-1.7-1.1-.7-.7-1-1.5-.4-.8-.4-2 0-1 .4-2t1.2-1.6q.8-.8 1.8-1.2 1.1-.4 2.5-.4t2.5.4q1.1.5 1.9 1.2.8.8 1.2 1.8.4 1 .4 2.2h-3l-.2-1q-.2-.6-.6-1-.4-.5-1-.7-.5-.3-1.2-.3-.8 0-1.4.2-.5.2-.8.6-.4.4-.5.8l-.2 1 .1.9.6.7q.3.3 1 .6l1.5.8 2.5 1q1.1.6 1.9 1.3.7.7 1 1.5.5.8.5 2t-.5 2.2q-.4 1-1.2 1.7-.8.6-2 1-1 .4-2.5.4t-2.8-.5q-1.2-.5-2-1.3t-1.3-1.9q-.4-1-.4-2.2h3q.1 1 .4 1.6.4.6.9 1l1 .6h1.2q1.5 0 2.3-.6.8-.7.8-1.8z" style="-inkscape-font-specification:'Roboto Condensed, Normal';font-variant-ligatures:normal;font-variant-caps:normal;font-variant-numeric:normal;font-feature-settings:normal;text-align:center" id="path1005"/><path d="M-166.7 171.5q-1.7 0-3-.5-1.4-.5-2.3-1.5-1-1-1.5-2.6t-.5-3.7V161q0-2.5.6-4.2.6-1.7 1.5-2.7 1-1 2.2-1.5 1.3-.5 2.6-.5 1.8 0 3 .6t2 1.7q.8 1 1.2 2.7.3 1.7.3 3.8v1.8h-10.3v.4q0 3 1 4.3 1.2 1.4 3.3 1.4.8 0 1.4-.2.6-.1 1.1-.4l1-.7.8-.8 1.6 1.9-1 1-1.2 1-1.7.5q-1 .3-2.1.3zm-.4-16.7q-.8 0-1.5.3-.6.2-1.1.8-.5.6-.8 1.7-.4 1-.4 2.5h7.3v-.4l-.2-2q-.2-.9-.6-1.5-.4-.7-1-1-.7-.4-1.7-.4z" style="-inkscape-font-specification:'Roboto Condensed, Normal';font-variant-ligatures:normal;font-variant-caps:normal;font-variant-numeric:normal;font-feature-settings:normal;text-align:center" id="path1007"/><path d="M-157.5 161q0-2.3.4-4 .5-1.6 1.3-2.7.8-1 2-1.6 1-.5 2.5-.5 1.4 0 2.4.6 1 .5 1.7 1.6v-9.6h3V171h-2.7l-.2-2q-.7 1.2-1.7 1.8-1 .6-2.5.6-1.4 0-2.6-.6-1.1-.5-2-1.6-.7-1-1.2-2.7-.4-1.6-.4-3.9zm3 1.7q0 3.2 1 4.6.9 1.5 3 1.5 1.2 0 2-.6.8-.7 1.3-1.7v-9.4q-.5-1-1.3-1.6-.8-.6-2-.6-2.1 0-3 1.5-1 1.5-1 4.6z" style="-inkscape-font-specification:'Roboto Condensed, Normal';font-variant-ligatures:normal;font-variant-caps:normal;font-variant-numeric:normal;font-feature-settings:normal;text-align:center" id="path1009"/><path d="M-132 161q0-2.2.5-3.8.6-1.7 1.5-2.8 1-1 2.3-1.6 1.3-.6 2.8-.6 1.5 0 2.8.6 1.4.5 2.3 1.6 1 1.1 1.6 2.8.5 1.6.5 3.8v1.7q0 2.2-.5 3.9-.6 1.6-1.6 2.7-1 1-2.2 1.6-1.3.6-2.9.6-1.5 0-2.8-.6-1.3-.5-2.3-1.6-1-1.1-1.5-2.7-.5-1.7-.5-3.9zm3 1.7q0 1.6.3 2.7.3 1.2.9 2 .5.7 1.3 1.1.8.4 1.6.4 4.2 0 4.2-6.2V161q0-1.5-.3-2.7-.3-1.1-1-2-.5-.7-1.2-1-.8-.5-1.7-.5-.9 0-1.6.4-.8.4-1.3 1.2-.6.8-.9 2-.3 1-.3 2.6z" style="-inkscape-font-specification:'Roboto Condensed, Normal';font-variant-ligatures:normal;font-variant-caps:normal;font-variant-numeric:normal;font-feature-settings:normal;text-align:center" id="path1011"/><path d="M-110.9 152.6l.1 2q.8-1.2 2-1.8 1.1-.6 2.5-.6 1.2 0 2 .4 1 .3 1.7 1.2.6.8 1 2 .3 1.3.3 3.2V171h-3V159q0-2.2-.7-3-.8-1-2.2-1-1.2 0-2 .8-1 .7-1.5 2V171h-3v-18.5z" style="-inkscape-font-specification:'Roboto Condensed, Normal';font-variant-ligatures:normal;font-variant-caps:normal;font-variant-numeric:normal;font-feature-settings:normal;text-align:center" id="path1013"/><path d="M-490.2 203.6h-8.9v8.8h10.3v2.7h-13.4v-25h13.2v2.7h-10v8h8.8z" style="-inkscape-font-specification:'Roboto Condensed, Normal';font-variant-ligatures:normal;font-variant-caps:normal;font-variant-numeric:normal;font-feature-settings:normal;text-align:center" id="path1015"/><path d="M-482.3 196.5v2q.9-1 2-1.7 1.2-.6 2.6-.6 1.1 0 2 .4 1 .3 1.6 1.1.7.9 1 2.1.4 1.3.4 3.1v12.2h-3V203q0-2.2-.8-3-.7-1-2.2-1-1.1 0-2 .7-1 .8-1.5 2v13.5h-3v-18.6z" style="-inkscape-font-specification:'Roboto Condensed, Normal';font-variant-ligatures:normal;font-variant-caps:normal;font-variant-numeric:normal;font-feature-settings:normal;text-align:center" id="path1017"/><path d="M-462.9 210.5l3.5-14h3.1l-5.5 18.6h-2.3l-5.5-18.6h3z" style="-inkscape-font-specification:'Roboto Condensed, Normal';font-variant-ligatures:normal;font-variant-caps:normal;font-variant-numeric:normal;font-feature-settings:normal;text-align:center" id="path1019"/><path d="M-449.8 215.1h-3v-18.6h3zm-3.2-23.5q0-.8.4-1.3t1.3-.5q.8 0 1.3.5.4.5.4 1.3t-.4 1.3q-.5.5-1.3.5-.9 0-1.3-.5t-.4-1.3z" style="-inkscape-font-specification:'Roboto Condensed, Normal';font-variant-ligatures:normal;font-variant-caps:normal;font-variant-numeric:normal;font-feature-settings:normal;text-align:center" id="path1021"/><path d="M-437.4 199.4l-.7-.1h-.7q-1.2 0-2 .6-.8.7-1.2 2V215h-3v-18.6h2.9v2q.6-1.1 1.4-1.7.9-.6 2-.6h.7l.4.2h.2z" style="-inkscape-font-specification:'Roboto Condensed, Normal';font-variant-ligatures:normal;font-variant-caps:normal;font-variant-numeric:normal;font-feature-settings:normal;text-align:center" id="path1023"/><path d="M-435.3 205q0-2.2.5-3.9.6-1.6 1.5-2.7 1-1.1 2.3-1.7 1.3-.5 2.8-.5 1.5 0 2.9.5 1.3.6 2.2 1.7 1 1.1 1.6 2.7.5 1.7.5 3.9v1.7q0 2.2-.5 3.8-.6 1.7-1.6 2.8-1 1-2.2 1.6-1.3.6-2.8.6-1.6 0-2.9-.6-1.3-.5-2.3-1.6-1-1.1-1.5-2.8-.5-1.6-.5-3.8zm3 1.7q0 1.6.3 2.7.3 1.2.9 2 .6.7 1.3 1 .8.5 1.7.5 4.1 0 4.1-6.2V205q0-1.6-.3-2.7-.3-1.2-.9-2-.6-.7-1.3-1.1-.8-.4-1.7-.4-.9 0-1.6.4-.8.4-1.3 1.2-.6.7-.9 1.9-.3 1.1-.3 2.7z" style="-inkscape-font-specification:'Roboto Condensed, Normal';font-variant-ligatures:normal;font-variant-caps:normal;font-variant-numeric:normal;font-feature-settings:normal;text-align:center" id="path1025"/><path d="M-414.2 196.5l.1 2q.9-1 2-1.7 1.1-.6 2.5-.6 1.2 0 2 .4 1 .3 1.7 1.1.6.9 1 2.1.3 1.3.3 3.1v12.2h-3V203q0-2.2-.7-3-.8-1-2.2-1-1.2 0-2 .7-1 .8-1.5 2v13.5h-3v-18.6z" style="-inkscape-font-specification:'Roboto Condensed, Normal';font-variant-ligatures:normal;font-variant-caps:normal;font-variant-numeric:normal;font-feature-settings:normal;text-align:center" id="path1027"/><path d="M-397.1 196.5v1.7q.8-1 2-1.5 1-.5 2.5-.5 1.4 0 2.6.6 1.1.7 1.8 2 .8-1.1 2-1.9 1.2-.7 2.8-.7 1.3 0 2.3.4 1 .4 1.6 1.2.7.8 1 2 .4 1.3.4 3.1v12.2h-3V203q0-1.2-.3-2-.2-.7-.6-1.2-.4-.5-1-.6-.6-.2-1.3-.2-.7 0-1.3.3l-1 .8q-.4.5-.6 1.2l-.3 1.5v12.4h-3V203q0-1-.3-1.8-.2-.8-.6-1.3-.4-.5-1-.7-.6-.2-1.3-.2-1.3 0-2 .6-.8.6-1.3 1.7v14h-3v-18.7z" style="-inkscape-font-specification:'Roboto Condensed, Normal';font-variant-ligatures:normal;font-variant-caps:normal;font-variant-numeric:normal;font-feature-settings:normal;text-align:center" id="path1029"/><path d="M-366.9 215.5q-1.7 0-3-.5t-2.3-1.6q-1-1-1.4-2.5-.5-1.6-.5-3.7V205q0-2.5.6-4.2.5-1.7 1.5-2.7 1-1 2.2-1.6 1.2-.4 2.6-.4 1.7 0 3 .6 1.2.5 2 1.7.8 1 1.1 2.7.4 1.6.4 3.8v1.7h-10.4v.5q0 3 1.1 4.3 1.2 1.4 3.3 1.4l1.4-.2q.6-.1 1-.4l1-.7q.5-.4.8-.9l1.6 2-.9 1q-.5.5-1.3.9-.7.4-1.7.6-.9.3-2.1.3zm-.3-16.7q-.8 0-1.5.2-.7.3-1.2.9-.5.6-.8 1.6-.3 1-.4 2.6h7.3v-.4l-.2-2q-.2-.9-.6-1.5-.3-.7-1-1-.7-.4-1.6-.4z" style="-inkscape-font-specification:'Roboto Condensed, Normal';font-variant-ligatures:normal;font-variant-caps:normal;font-variant-numeric:normal;font-feature-settings:normal;text-align:center" id="path1031"/><path d="M-354.2 196.5v2q1-1 2-1.7 1.2-.6 2.6-.6 1.1 0 2 .4 1 .3 1.7 1.1.6.9 1 2.1.3 1.3.3 3.1v12.2h-3V203q0-2.2-.8-3-.7-1-2.1-1-1.2 0-2 .7-1 .8-1.5 2v13.5h-3v-18.6z" style="-inkscape-font-specification:'Roboto Condensed, Normal';font-variant-ligatures:normal;font-variant-caps:normal;font-variant-numeric:normal;font-feature-settings:normal;text-align:center" id="path1033"/><path d="M-336 192v4.5h2.8v2.5h-2.8v11.5l.1 1.2q.1.4.4.6.2.3.5.4h1.2l.6-.2v2.6l-.9.2q-.5.2-1.3.2-.7 0-1.4-.3-.6-.2-1.2-.8-.5-.6-.8-1.6-.3-1-.3-2.3V199h-2.8v-2.5h2.8V192z" style="-inkscape-font-specification:'Roboto Condensed, Normal';font-variant-ligatures:normal;font-variant-caps:normal;font-variant-numeric:normal;font-feature-settings:normal;text-align:center" id="path1035"/><path d="M-320 215.1l-.3-.9-.2-1.1-.7.9-1 .8-1.1.5q-.6.2-1.3.2-1.2 0-2.2-.4-1-.3-1.7-1t-1-1.7q-.5-1-.5-2.4 0-1.3.5-2.4.5-1.2 1.4-2 .9-.8 2.3-1.3 1.3-.5 3.2-.5h2v-2q0-1.6-.7-2.3-.7-.7-2.2-.7-.8 0-1.3.2l-1 .7q-.4.3-.6.9l-.2 1h-3q0-1 .4-1.9.4-1 1.2-1.8.9-.8 2-1.2 1.2-.5 2.6-.5 1.3 0 2.4.3 1 .3 1.9 1 .7.7 1.2 1.8.4 1 .4 2.6v10.2l.1 1 .2 1 .3.7v.3zm-4.1-2.4l1.2-.2 1-.5q.5-.3.8-.7l.6-.8v-4.4h-1.6q-1.1 0-2 .2-.9.3-1.5.7-.6.5-1 1.2-.3.6-.3 1.5 0 .8.2 1.4.1.6.5 1 .3.3.8.4.6.2 1.3.2z" style="-inkscape-font-specification:'Roboto Condensed, Normal';font-variant-ligatures:normal;font-variant-caps:normal;font-variant-numeric:normal;font-feature-settings:normal;text-align:center" id="path1037"/><path d="M-309.5 215.1h-3v-26.4h3z" style="-inkscape-font-specification:'Roboto Condensed, Normal';font-variant-ligatures:normal;font-variant-caps:normal;font-variant-numeric:normal;font-feature-settings:normal;text-align:center" id="path1039"/><path d="M-289.2 210.3l5.8-20.2h3.4l-7.8 25h-2.7l-7.8-25h3.5z" style="-inkscape-font-specification:'Roboto Condensed, Normal';font-variant-ligatures:normal;font-variant-caps:normal;font-variant-numeric:normal;font-feature-settings:normal;text-align:center" id="path1041"/><path d="M-268.2 215.1l-.3-.9-.1-1.1q-.3.5-.8.9l-.9.8-1.1.5q-.6.2-1.3.2-1.2 0-2.2-.4-1-.3-1.7-1t-1.1-1.7q-.4-1-.4-2.4 0-1.3.5-2.4.5-1.2 1.4-2 .9-.8 2.2-1.3 1.4-.5 3.2-.5h2.2v-2q0-1.6-.8-2.3-.7-.7-2.2-.7-.8 0-1.4.2l-1 .7q-.3.3-.5.9l-.2 1h-3q0-1 .4-1.9.4-1 1.2-1.8.8-.8 2-1.2 1.2-.5 2.6-.5 1.3 0 2.4.3 1 .3 1.8 1t1.2 1.8q.5 1 .5 2.6v10.2l.1 1 .2 1 .3.7v.3zm-4-2.4q.6 0 1.1-.2l1-.5.9-.7.6-.8v-4.4h-1.6q-1.1 0-2 .2-1 .3-1.5.7-.7.5-1 1.2-.3.6-.3 1.5l.1 1.4q.2.6.6 1 .3.3.8.4.5.2 1.2.2z" style="-inkscape-font-specification:'Roboto Condensed, Normal';font-variant-ligatures:normal;font-variant-caps:normal;font-variant-numeric:normal;font-feature-settings:normal;text-align:center" id="path1043"/><path d="M-253.3 199.4l-.6-.1h-.7q-1.3 0-2 .6-.9.7-1.3 2V215h-3v-18.6h3v2q.5-1.1 1.4-1.7.8-.6 2-.6h.7l.3.2h.2z" style="-inkscape-font-specification:'Roboto Condensed, Normal';font-variant-ligatures:normal;font-variant-caps:normal;font-variant-numeric:normal;font-feature-settings:normal;text-align:center" id="path1045"/><path d="M-247 215.1h-3v-18.6h3zm-3.1-23.5q0-.8.4-1.3t1.3-.5q.8 0 1.3.5.4.5.4 1.3t-.4 1.3q-.5.5-1.3.5-.9 0-1.3-.5t-.4-1.3z" style="-inkscape-font-specification:'Roboto Condensed, Normal';font-variant-ligatures:normal;font-variant-caps:normal;font-variant-numeric:normal;font-feature-settings:normal;text-align:center" id="path1047"/><path d="M-232.6 215.1l-.3-.9-.1-1.1q-.3.5-.8.9l-.9.8-1.1.5q-.6.2-1.3.2-1.2 0-2.2-.4-1-.3-1.7-1t-1.1-1.7q-.4-1-.4-2.4 0-1.3.5-2.4.4-1.2 1.4-2 .9-.8 2.2-1.3 1.4-.5 3.2-.5h2.1v-2q0-1.6-.7-2.3-.7-.7-2.2-.7-.8 0-1.4.2l-1 .7q-.3.3-.5.9l-.2 1h-3q0-1 .4-1.9.4-1 1.2-1.8.8-.8 2-1.2 1.2-.5 2.6-.5 1.3 0 2.4.3 1 .3 1.8 1t1.2 1.8q.5 1 .5 2.6v10.2l.1 1 .2 1 .3.7v.3zm-4-2.4q.6 0 1.1-.2l1-.5.9-.7.5-.8v-4.4h-1.6l-2 .2-1.5.7q-.6.5-1 1.2-.2.6-.2 1.5l.1 1.4.5 1q.4.3.9.4.5.2 1.2.2z" style="-inkscape-font-specification:'Roboto Condensed, Normal';font-variant-ligatures:normal;font-variant-caps:normal;font-variant-numeric:normal;font-feature-settings:normal;text-align:center" id="path1049"/><path d="M-211.9 206.7q0 2.2-.4 3.9-.4 1.6-1.2 2.7-.7 1-1.9 1.6-1.1.6-2.6.6t-2.6-.7q-1-.6-1.8-1.9l-.2 2.2h-2.7v-26.4h3v9.9q.7-1.2 1.8-1.8 1-.6 2.5-.6t2.6.5q1.2.5 2 1.6.7 1 1.1 2.7.4 1.7.4 4zm-3-1.7q0-1.6-.2-2.7-.2-1.2-.7-2-.4-.7-1.2-1-.7-.4-1.8-.4-1.3 0-2.2.7-.8.7-1.3 1.8v8.9l.6 1 .7.8 1 .5 1.2.2q2.1 0 3-1.5.9-1.5.9-4.6z" style="-inkscape-font-specification:'Roboto Condensed, Normal';font-variant-ligatures:normal;font-variant-caps:normal;font-variant-numeric:normal;font-feature-settings:normal;text-align:center" id="path1051"/><path d="M-204.7 215.1h-3v-26.4h3z" style="-inkscape-font-specification:'Roboto Condensed, Normal';font-variant-ligatures:normal;font-variant-caps:normal;font-variant-numeric:normal;font-feature-settings:normal;text-align:center" id="path1053"/><path d="M-193.3 215.5q-1.6 0-3-.5-1.3-.5-2.3-1.6-.9-1-1.4-2.5-.5-1.6-.5-3.7V205q0-2.5.6-4.2.6-1.7 1.5-2.7 1-1 2.2-1.6 1.3-.4 2.6-.4 1.7 0 3 .6 1.2.5 2 1.7.8 1 1.2 2.7.3 1.6.3 3.8v1.7h-10.4v.5q0 3 1.2 4.3 1 1.4 3.2 1.4.8 0 1.4-.2.6-.1 1.1-.4l1-.7.8-.9 1.6 2-1 1-1.2.9q-.8.4-1.7.6-1 .3-2.2.3zm-.3-16.7q-.8 0-1.5.2-.6.3-1.2.9-.5.6-.8 1.6-.3 1-.3 2.6h7.3v-.4q0-1-.3-2-.1-.9-.5-1.5-.4-.7-1-1-.7-.4-1.7-.4z" style="-inkscape-font-specification:'Roboto Condensed, Normal';font-variant-ligatures:normal;font-variant-caps:normal;font-variant-numeric:normal;font-feature-settings:normal;text-align:center" id="path1055"/><path d="M-174.4 210.4q0-.6-.2-1l-.6-.8-1.1-.8-1.7-.8-2.3-1q-1-.5-1.7-1.2-.7-.6-1-1.4-.4-.8-.4-2 0-1 .4-2t1.2-1.7q.7-.7 1.8-1.1 1.1-.4 2.4-.4 1.5 0 2.6.4 1 .4 1.9 1.2.7.8 1.1 1.8.5 1 .5 2.2h-3q0-.5-.3-1-.2-.6-.6-1-.3-.5-.9-.7-.5-.3-1.3-.3-.7 0-1.3.2-.5.2-.9.6l-.5.8-.1 1 .1.8.5.7 1 .7 1.6.7 2.5 1.2q1.1.5 1.9 1.2.7.6 1 1.5.4.8.4 2t-.4 2.1q-.4 1-1.2 1.7-.8.7-2 1.1-1.1.4-2.5.4-1.6 0-2.8-.5-1.2-.5-2-1.3-.9-.9-1.3-2-.4-1-.4-2.1h3q.1 1 .4 1.6.3.6.8 1t1.1.5l1.2.2q1.5 0 2.3-.7.8-.7.8-1.8z" style="-inkscape-font-specification:'Roboto Condensed, Normal';font-variant-ligatures:normal;font-variant-caps:normal;font-variant-numeric:normal;font-feature-settings:normal;text-align:center" id="path1057"/><path d="M-149.9 213.5q-.7 1-1.8 1.4-1.1.6-2.6.6-1.2 0-2.1-.4-1-.4-1.6-1.2-.7-.9-1-2.2-.4-1.3-.4-3.2v-12h3v12q0 1.3.2 2.1.3.9.6 1.3.4.5.9.7.4.2.9.2 1.5 0 2.4-.7 1-.7 1.4-1.8v-13.8h3v18.6h-2.8z" style="-inkscape-font-specification:'Roboto Condensed, Normal';font-variant-ligatures:normal;font-variant-caps:normal;font-variant-numeric:normal;font-feature-settings:normal;text-align:center" id="path1059"/><path d="M-133.3 210.4q0-.6-.2-1l-.6-.8-1.1-.8-1.7-.8-2.3-1q-1-.5-1.7-1.2-.7-.6-1.1-1.4-.4-.8-.4-2 0-1 .5-2 .4-1 1.2-1.7.7-.7 1.8-1.1 1.1-.4 2.4-.4 1.4 0 2.6.4 1 .4 1.9 1.2.7.8 1.1 1.8.4 1 .4 2.2h-3l-.2-1q-.2-.6-.6-1-.3-.5-.9-.7-.5-.3-1.3-.3-.7 0-1.3.2-.5.2-.9.6l-.5.8-.1 1 .1.8.5.7 1 .7 1.6.7 2.5 1.2q1.1.5 1.8 1.2.8.6 1.2 1.5.3.8.3 2t-.4 2.1q-.4 1-1.2 1.7-.9.7-2 1.1-1.1.4-2.5.4-1.6 0-2.8-.5-1.2-.5-2-1.3-.9-.9-1.3-2-.4-1-.4-2.1h3q0 1 .4 1.6.3.6.8 1t1.1.5l1.2.2q1.5 0 2.3-.7.8-.7.8-1.8z" style="-inkscape-font-specification:'Roboto Condensed, Normal';font-variant-ligatures:normal;font-variant-caps:normal;font-variant-numeric:normal;font-feature-settings:normal;text-align:center" id="path1061"/><path d="M-123 215.1h-3v-18.6h3zm-3.3-23.5q0-.8.5-1.3.4-.5 1.3-.5.8 0 1.2.5.5.5.5 1.3t-.4 1.3q-.5.5-1.3.5-.9 0-1.3-.5-.5-.5-.5-1.3z" style="-inkscape-font-specification:'Roboto Condensed, Normal';font-variant-ligatures:normal;font-variant-caps:normal;font-variant-numeric:normal;font-feature-settings:normal;text-align:center" id="path1063"/><path d="M-115.4 196.5v2q1-1 2-1.7 1.2-.6 2.6-.6 1.1 0 2 .4 1 .3 1.6 1.1.7.9 1 2.1.4 1.3.4 3.1v12.2h-3V203q0-2.2-.8-3-.7-1-2.2-1-1.1 0-2 .7-.9.8-1.4 2v13.5h-3v-18.6z" style="-inkscape-font-specification:'Roboto Condensed, Normal';font-variant-ligatures:normal;font-variant-caps:normal;font-variant-numeric:normal;font-feature-settings:normal;text-align:center" id="path1065"/><path d="M-101.9 205q0-2.3.5-4 .4-1.6 1.2-2.7.8-1 2-1.6 1.1-.5 2.6-.5 1.4 0 2.5.6 1 .6 1.8 1.8l.1-2h2.8v18.7q0 1.8-.5 3.2-.5 1.3-1.4 2.2-.9.9-2.1 1.3-1.3.4-2.7.4l-1.3-.1-1.6-.5q-.8-.2-1.5-.7-.8-.4-1.3-1l1.3-2.1q1 1 2 1.4 1.1.4 2.1.4t1.6-.2q.8-.2 1.3-.8.5-.5.7-1.3.3-.9.3-2v-2.2q-.7 1-1.7 1.6-1 .6-2.5.6-1.4 0-2.5-.6-1.2-.5-2-1.6-.8-1-1.2-2.7-.5-1.7-.5-3.9zm3 1.7q0 3.1 1 4.6 1 1.5 3 1.5 1.3 0 2.1-.7.8-.6 1.3-1.6v-9.3q-.5-1-1.3-1.7-.8-.6-2-.6-2.2 0-3 1.5-1 1.5-1 4.6z" style="-inkscape-font-specification:'Roboto Condensed, Normal';font-variant-ligatures:normal;font-variant-caps:normal;font-variant-numeric:normal;font-feature-settings:normal;text-align:center" id="path1067"/><path id="path1069" style="-inkscape-font-specification:'Roboto Condensed, Normal';font-variant-ligatures:normal;font-variant-caps:normal;font-variant-numeric:normal;font-feature-settings:normal;text-align:center" d="M-499 234l6.6 20.5 6.5-20.4h4v25h-3v-9.8l.2-9.7-6.5 19.5h-2.4l-6.5-19.4.3 9.6v9.8h-3.2v-25z"/><path id="path1071" style="-inkscape-font-specification:'Roboto Condensed, Normal';font-variant-ligatures:normal;font-variant-caps:normal;font-variant-numeric:normal;font-feature-settings:normal;text-align:center" d="M-467.3 259l-.2-.8-.2-1.1-.7.9-1 .7q-.5.4-1 .5l-1.4.2q-1.2 0-2.2-.3-1-.4-1.7-1-.7-.7-1-1.7-.4-1-.4-2.4 0-1.3.4-2.5.5-1 1.4-2 1-.7 2.3-1.2 1.4-.5 3.2-.5h2v-2q0-1.6-.6-2.3-.8-.7-2.3-.7-.7 0-1.3.2-.6.2-1 .6-.4.4-.6 1l-.2 1h-3q0-1 .4-2t1.3-1.7q.8-.8 2-1.3 1.1-.4 2.6-.4 1.2 0 2.3.3 1 .3 1.9 1 .8.7 1.2 1.7.4 1.1.4 2.7V256l.2 1 .1 1 .3.8v.3zm-4-2.3l1.2-.2 1-.5q.5-.3.8-.7l.6-.8v-4.4h-1.6q-1.1 0-2 .2-.9.3-1.5.7-.6.5-1 1.1-.3.7-.3 1.6 0 .8.2 1.4.1.6.5 1 .3.3.8.4.6.2 1.3.2z"/><path id="path1073" style="-inkscape-font-specification:'Roboto Condensed, Normal';font-variant-ligatures:normal;font-variant-caps:normal;font-variant-numeric:normal;font-feature-settings:normal;text-align:center" d="M-453.5 256.8l1.2-.2q.6-.2 1.1-.6.5-.5.7-1.1.3-.7.4-1.7h2.8q0 1.4-.5 2.6-.6 1.1-1.4 2-.9.7-2 1.2-1 .4-2.3.4-1.8 0-3.2-.6-1.3-.5-2.2-1.6-.9-1.1-1.3-2.7t-.4-3.7v-2q0-2 .4-3.7.4-1.6 1.3-2.7.9-1 2.2-1.7 1.3-.5 3.1-.5 1.5 0 2.6.4 1.1.5 2 1.3.8.9 1.2 2.2.5 1.2.5 2.8h-2.8q-.1-2-1-3.1-.9-1-2.5-1-1.2 0-2 .4-.7.4-1.2 1.2-.4.8-.6 1.9-.2 1-.2 2.4v2.1q0 1.4.2 2.5t.6 2q.5.7 1.3 1.1.7.4 2 .4z"/><path id="path1075" style="-inkscape-font-specification:'Roboto Condensed, Normal';font-variant-ligatures:normal;font-variant-caps:normal;font-variant-numeric:normal;font-feature-settings:normal;text-align:center" d="M-440.7 242.4q.9-1 2-1.6 1.1-.6 2.5-.6 1 0 2 .3 1 .4 1.6 1.2.7.8 1 2.1.4 1.3.4 3.1v12.2h-3v-12.2q0-2.2-.8-3.1-.7-1-2.2-1-1.1 0-2 .8-1 .8-1.5 2V259h-3v-26.4h3z"/><path id="path1077" style="-inkscape-font-specification:'Roboto Condensed, Normal';font-variant-ligatures:normal;font-variant-caps:normal;font-variant-numeric:normal;font-feature-settings:normal;text-align:center" d="M-423.5 259h-3v-18.5h3zm-3.2-23.4q0-.8.5-1.3.4-.6 1.2-.6.9 0 1.3.6.5.5.5 1.3 0 .7-.4 1.3-.5.5-1.4.5-.8 0-1.2-.5-.5-.6-.5-1.3z"/><path id="path1079" style="-inkscape-font-specification:'Roboto Condensed, Normal';font-variant-ligatures:normal;font-variant-caps:normal;font-variant-numeric:normal;font-feature-settings:normal;text-align:center" d="M-415.8 240.5v2q.9-1.1 2-1.7 1.2-.6 2.6-.6 1.1 0 2 .3 1 .4 1.6 1.2.7.8 1 2.1.4 1.3.4 3.1v12.2h-3v-12.2q0-2.2-.8-3.1-.7-1-2.2-1-1.1 0-2 .8-1 .8-1.5 2V259h-3v-18.6z"/><path id="path1081" style="-inkscape-font-specification:'Roboto Condensed, Normal';font-variant-ligatures:normal;font-variant-caps:normal;font-variant-numeric:normal;font-feature-settings:normal;text-align:center" d="M-395 259.4q-1.7 0-3-.5-1.4-.5-2.3-1.5-1-1-1.4-2.6-.5-1.5-.5-3.7v-2q0-2.5.6-4.2.5-1.7 1.5-2.7 1-1.1 2.2-1.6 1.2-.4 2.5-.4 1.8 0 3 .5 1.3.6 2 1.7.8 1.1 1.2 2.8.4 1.6.4 3.7v1.8h-10.4v.4q0 3 1.1 4.4 1.1 1.3 3.3 1.3l1.3-.1 1.2-.4 1-.7.7-.9 1.6 2-.9 1q-.5.5-1.3.9-.7.4-1.7.6-1 .2-2.1.2zm-.4-16.6l-1.4.2q-.7.3-1.2.9-.5.6-.8 1.6-.3 1-.4 2.6h7.3v-.4q0-1.1-.2-2-.2-.9-.6-1.6-.4-.6-1-1-.7-.3-1.7-.3z"/><path id="path1083" style="-inkscape-font-specification:'Roboto Condensed, Normal';font-variant-ligatures:normal;font-variant-caps:normal;font-variant-numeric:normal;font-feature-settings:normal;text-align:center" d="M-373.5 256.4h9.8v2.7h-13v-25h3.2z"/><path id="path1085" style="-inkscape-font-specification:'Roboto Condensed, Normal';font-variant-ligatures:normal;font-variant-caps:normal;font-variant-numeric:normal;font-feature-settings:normal;text-align:center" d="M-353.8 259.4q-1.7 0-3-.5t-2.3-1.5q-1-1-1.4-2.6-.5-1.5-.5-3.7v-2q0-2.5.6-4.2.6-1.7 1.5-2.7 1-1.1 2.2-1.6 1.2-.4 2.6-.4 1.7 0 3 .5 1.2.6 2 1.7t1.1 2.8q.4 1.6.4 3.7v1.8H-358v.4q0 3 1.1 4.4 1.2 1.3 3.3 1.3l1.4-.1 1.1-.4 1-.7.8-.9 1.5 2q-.3.5-.9 1l-1.2.9q-.8.4-1.7.6-1 .2-2.2.2zm-.3-16.6q-.8 0-1.5.2-.7.3-1.2.9-.5.6-.8 1.6-.3 1-.4 2.6h7.4v-.4l-.3-2q-.2-.9-.6-1.6-.3-.6-1-1-.6-.3-1.6-.3z"/><path id="path1087" style="-inkscape-font-specification:'Roboto Condensed, Normal';font-variant-ligatures:normal;font-variant-caps:normal;font-variant-numeric:normal;font-feature-settings:normal;text-align:center" d="M-334.4 259l-.2-.8-.2-1.1-.7.9-1 .7q-.5.4-1.1.5-.6.2-1.3.2-1.2 0-2.2-.3-1-.4-1.7-1-.7-.7-1-1.7-.5-1-.5-2.4 0-1.3.5-2.5.5-1 1.4-2 .9-.7 2.3-1.2 1.3-.5 3.2-.5h2v-2q0-1.6-.7-2.3-.7-.7-2.2-.7-.8 0-1.3.2-.6.2-1 .6-.4.4-.6 1l-.2 1h-3q0-1 .4-2t1.2-1.7q.9-.8 2-1.3 1.2-.4 2.6-.4 1.3 0 2.4.3 1 .3 1.9 1 .7.7 1.2 1.7.4 1.1.4 2.7V256l.1 1 .2 1 .3.8v.3zm-4-2.3l1.2-.2 1-.5q.5-.3.8-.7l.6-.8v-4.4h-1.6q-1.1 0-2 .2-.9.3-1.5.7-.6.5-1 1.1-.3.7-.3 1.6 0 .8.2 1.4.1.6.5 1 .3.3.8.4.6.2 1.3.2z"/><path id="path1089" style="-inkscape-font-specification:'Roboto Condensed, Normal';font-variant-ligatures:normal;font-variant-caps:normal;font-variant-numeric:normal;font-feature-settings:normal;text-align:center" d="M-319.4 243.4l-.7-.1h-.7q-1.2 0-2 .6-.8.7-1.3 1.9V259h-3v-18.6h3v1.9q.6-1 1.4-1.6.9-.6 2-.6h.7l.3.1.3.1z"/><path id="path1091" style="-inkscape-font-specification:'Roboto Condensed, Normal';font-variant-ligatures:normal;font-variant-caps:normal;font-variant-numeric:normal;font-feature-settings:normal;text-align:center" d="M-313.5 240.5v2q.9-1.1 2-1.7 1.2-.6 2.6-.6 1.1 0 2 .3 1 .4 1.6 1.2.7.8 1 2.1.4 1.3.4 3.1v12.2h-3v-12.2q0-2.2-.8-3.1-.7-1-2.2-1-1.1 0-2 .8-.9.8-1.5 2V259h-3v-18.6z"/><path id="path1093" style="-inkscape-font-specification:'Roboto Condensed, Normal';font-variant-ligatures:normal;font-variant-caps:normal;font-variant-numeric:normal;font-feature-settings:normal;text-align:center" d="M-296 259h-3.1v-18.5h3zm-3.3-23.4q0-.8.4-1.3.5-.6 1.3-.6.9 0 1.3.6.5.5.5 1.3 0 .7-.5 1.3-.4.5-1.3.5-.8 0-1.3-.5-.4-.6-.4-1.3z"/><path id="path1095" style="-inkscape-font-specification:'Roboto Condensed, Normal';font-variant-ligatures:normal;font-variant-caps:normal;font-variant-numeric:normal;font-feature-settings:normal;text-align:center" d="M-288.4 240.5v2q.9-1.1 2-1.7 1.2-.6 2.6-.6 1 0 2 .3 1 .4 1.6 1.2.7.8 1 2.1.4 1.3.4 3.1v12.2h-3v-12.2q0-2.2-.8-3.1-.7-1-2.2-1-1.1 0-2 .8-1 .8-1.5 2V259h-3v-18.6z"/><path id="path1097" style="-inkscape-font-specification:'Roboto Condensed, Normal';font-variant-ligatures:normal;font-variant-caps:normal;font-variant-numeric:normal;font-feature-settings:normal;text-align:center" d="M-274.9 249q0-2.3.5-4 .4-1.7 1.2-2.7.8-1.1 2-1.6 1.1-.5 2.5-.5 1.5 0 2.6.6 1 .6 1.7 1.8l.2-2.1h2.7v18.7q0 1.9-.5 3.2-.4 1.4-1.3 2.3-1 .8-2.2 1.3-1.2.4-2.7.4l-1.2-.1-1.6-.5-1.6-.7q-.7-.4-1.2-1l1.2-2.1q1 1 2.1 1.4 1.1.4 2.1.4.9 0 1.6-.2.7-.3 1.2-.8.6-.5.8-1.3.3-.9.3-2.1v-2.2q-.7 1.1-1.7 1.7-1 .5-2.5.5-1.4 0-2.5-.5-1.2-.6-2-1.6-.8-1.1-1.2-2.7-.5-1.7-.5-4zm3 1.7q0 3.1 1 4.6 1 1.5 3 1.5 1.3 0 2.1-.7t1.3-1.7v-9.3q-.5-1-1.3-1.6-.8-.6-2-.6-2.2 0-3.1 1.4-1 1.5-1 4.7z"/><path id="path1099" style="-inkscape-font-specification:'Roboto Condensed, Normal';font-variant-ligatures:normal;font-variant-caps:normal;font-variant-numeric:normal;font-feature-settings:normal;text-align:center" d="M-234.6 236.8h-6.5V259h-3.2v-22.3h-6.5V234h16.2z"/><path id="path1101" style="-inkscape-font-specification:'Roboto Condensed, Normal';font-variant-ligatures:normal;font-variant-caps:normal;font-variant-numeric:normal;font-feature-settings:normal;text-align:center" d="M-226.3 259.4q-1.7 0-3-.5-1.4-.5-2.3-1.5-1-1-1.4-2.6-.5-1.5-.5-3.7v-2q0-2.5.5-4.2.6-1.7 1.6-2.7 1-1.1 2.2-1.6 1.2-.4 2.5-.4 1.8 0 3 .5 1.3.6 2 1.7.8 1.1 1.2 2.8.4 1.6.4 3.7v1.8h-10.4v.4q0 3 1.1 4.4 1.1 1.3 3.2 1.3l1.4-.1 1.2-.4 1-.7.7-.9 1.6 2-1 1q-.4.5-1.2.9-.7.4-1.7.6-1 .2-2.1.2zm-.4-16.6q-.8 0-1.4.2-.7.3-1.2.9-.5.6-.8 1.6-.3 1-.4 2.6h7.3v-.4q0-1.1-.2-2-.2-.9-.6-1.6-.4-.6-1-1-.7-.3-1.7-.3z"/><path id="path1103" style="-inkscape-font-specification:'Roboto Condensed, Normal';font-variant-ligatures:normal;font-variant-caps:normal;font-variant-numeric:normal;font-feature-settings:normal;text-align:center" d="M-210 256.8l1.2-.2q.6-.2 1.1-.6.5-.5.7-1.1.3-.7.4-1.7h2.9q0 1.4-.6 2.6-.5 1.1-1.4 2-.8.7-2 1.2-1 .4-2.3.4-1.8 0-3.2-.6-1.3-.5-2.2-1.6-.8-1.1-1.3-2.7-.4-1.6-.4-3.7v-2q0-2 .4-3.7.5-1.6 1.3-2.7 1-1 2.2-1.7 1.4-.5 3.2-.5 1.4 0 2.5.4 1.1.5 2 1.3.8.9 1.2 2.2.5 1.2.6 2.8h-3q0-2-1-3.1-.8-1-2.3-1-1.2 0-2 .4t-1.3 1.2q-.4.8-.6 1.9-.2 1-.2 2.4v2.1q0 1.4.2 2.5t.6 2q.5.7 1.3 1.1.8.4 2 .4z"/><path id="path1105" style="-inkscape-font-specification:'Roboto Condensed, Normal';font-variant-ligatures:normal;font-variant-caps:normal;font-variant-numeric:normal;font-feature-settings:normal;text-align:center" d="M-197.2 242.4q.9-1 2-1.6 1.1-.6 2.5-.6 1.1 0 2 .3 1 .4 1.6 1.2.7.8 1 2.1.4 1.3.4 3.1v12.2h-3v-12.2q0-2.2-.8-3.1-.7-1-2.2-1-1.1 0-2 .8-1 .8-1.5 2V259h-3v-26.4h3z"/><path id="path1107" style="-inkscape-font-specification:'Roboto Condensed, Normal';font-variant-ligatures:normal;font-variant-caps:normal;font-variant-numeric:normal;font-feature-settings:normal;text-align:center" d="M-180.4 240.5l.1 2q.9-1.1 2-1.7 1.2-.6 2.5-.6 1.2 0 2.1.3 1 .4 1.6 1.2.6.8 1 2.1.3 1.3.3 3.1v12.2h-3v-12.2q0-2.2-.7-3.1-.7-1-2.2-1-1.1 0-2 .8-1 .8-1.5 2V259h-3v-18.6z"/><path id="path1109" style="-inkscape-font-specification:'Roboto Condensed, Normal';font-variant-ligatures:normal;font-variant-caps:normal;font-variant-numeric:normal;font-feature-settings:normal;text-align:center" d="M-163 259h-3v-18.5h3zm-3.1-23.4q0-.8.4-1.3.4-.6 1.3-.6t1.3.6q.4.5.4 1.3 0 .7-.4 1.3-.4.5-1.3.5t-1.3-.5q-.4-.6-.4-1.3z"/><path id="path1111" style="-inkscape-font-specification:'Roboto Condensed, Normal';font-variant-ligatures:normal;font-variant-caps:normal;font-variant-numeric:normal;font-feature-settings:normal;text-align:center" d="M-158.8 249q0-2.3.4-4 .5-1.7 1.3-2.7.8-1.1 2-1.6 1.1-.5 2.6-.5 1.4 0 2.4.5 1 .6 1.8 1.6l.1-1.8h2.8v25.7h-3v-8.7q-.7 1-1.8 1.4-1 .5-2.3.5-1.5 0-2.7-.5-1.1-.6-2-1.6-.7-1.1-1.2-2.7-.4-1.7-.4-4zm3 1.7q0 3.1 1 4.6 1 1.5 3 1.5 1.3 0 2-.5.8-.6 1.4-1.5v-10q-.6-.9-1.4-1.4-.8-.6-2-.6-2 0-3 1.5t-1 4.7z"/><path id="path1113" style="-inkscape-font-specification:'Roboto Condensed, Normal';font-variant-ligatures:normal;font-variant-caps:normal;font-variant-numeric:normal;font-feature-settings:normal;text-align:center" d="M-131 257.5q-.8.9-1.9 1.4-1 .5-2.6.5-1.1 0-2-.3-1-.4-1.7-1.3-.7-.8-1-2.1-.4-1.3-.4-3.2v-12h3v12q0 1.3.2 2.1l.6 1.3q.4.5.9.7l1 .1q1.4 0 2.3-.6 1-.7 1.4-1.8v-13.8h3v18.6h-2.8z"/><path id="path1115" style="-inkscape-font-specification:'Roboto Condensed, Normal';font-variant-ligatures:normal;font-variant-caps:normal;font-variant-numeric:normal;font-feature-settings:normal;text-align:center" d="M-116.9 259.4q-1.6 0-3-.5-1.3-.5-2.3-1.5-.9-1-1.4-2.6-.5-1.5-.5-3.7v-2q0-2.5.6-4.2.6-1.7 1.5-2.7 1-1.1 2.2-1.6 1.3-.4 2.6-.4 1.7 0 3 .5 1.2.6 2 1.7t1.2 2.8q.3 1.6.3 3.7v1.8H-121v.4q0 3 1.2 4.4 1 1.3 3.2 1.3l1.4-.1 1.1-.4 1-.7.8-.9 1.6 2-1 1-1.2.9q-.8.4-1.7.6-1 .2-2.2.2zm-.3-16.6q-.8 0-1.5.2-.6.3-1.2.9-.5.6-.8 1.6-.3 1-.3 2.6h7.3v-.4q0-1.1-.3-2-.1-.9-.5-1.6-.4-.6-1-1-.7-.3-1.7-.3z"/><path id="path1117" style="-inkscape-font-specification:'Roboto Condensed, Normal';font-variant-ligatures:normal;font-variant-caps:normal;font-variant-numeric:normal;font-feature-settings:normal;text-align:center" d="M-98 254.3q0-.5-.2-.9l-.6-.8-1.1-.8-1.7-.8-2.3-1-1.7-1.2q-.7-.6-1-1.4-.4-.9-.4-2 0-1 .4-2t1.2-1.7q.7-.7 1.8-1.1 1.1-.4 2.4-.4 1.5 0 2.6.4 1 .4 1.9 1.2.7.7 1.1 1.8.5 1 .5 2.2h-3q0-.6-.3-1.1-.2-.6-.6-1-.3-.4-.9-.7-.5-.2-1.3-.2-.7 0-1.3.2-.5.2-.9.6l-.5.8-.1 1 .1.8.5.7 1 .7 1.6.7 2.5 1.1q1.1.6 1.9 1.3.7.6 1 1.4.4.9.4 2 0 1.2-.4 2.2-.4 1-1.2 1.7-.8.7-2 1-1.1.4-2.5.4-1.6 0-2.8-.4-1.2-.5-2-1.4-.9-.8-1.3-1.8-.4-1.1-.4-2.3h3q.1 1 .4 1.7.3.6.8 1l1.1.5 1.2.1q1.5 0 2.3-.6.8-.7.8-1.9z"/></g></g></g><style id="style821"></style></svg>