<svg xmlns="http://www.w3.org/2000/svg" xmlns:xlink="http://www.w3.org/1999/xlink" version="1" viewBox="0 0 210 210"><defs><linearGradient id="a"><stop offset="0" stop-color="#818181"/><stop offset="1" stop-color="#151212"/></linearGradient><linearGradient id="b"><stop offset="0" stop-color="#6d6d6d"/><stop offset="1" stop-color="#424242"/></linearGradient><linearGradient id="e"><stop offset="0" stop-color="#1b1b1b"/><stop offset="1" stop-color="#fff" stop-opacity="0"/></linearGradient><linearGradient id="d"><stop offset="0" stop-color="#ff8080"/><stop offset="1" stop-color="#ff2f2f"/></linearGradient><linearGradient id="c"><stop offset="0" stop-color="#ff8080"/><stop offset="1" stop-color="#ff3737"/></linearGradient><linearGradient id="f"><stop offset="0" stop-color="#da80ff"/><stop offset="1" stop-color="#c22fff"/></linearGradient><linearGradient id="g"><stop offset="0" stop-color="#da80ff"/><stop offset="1" stop-color="#c437ff"/></linearGradient><linearGradient id="h"><stop offset="0" stop-color="#b400ff"/><stop offset="1" stop-color="#fff" stop-opacity="0"/></linearGradient><linearGradient id="t" x1="62" x2="62" y1="127" y2="76" gradientUnits="userSpaceOnUse" xlink:href="#f"/><linearGradient id="s" x1="80" x2="80" y1="74" y2="129" gradientUnits="userSpaceOnUse" xlink:href="#g"/><linearGradient id="r"><stop offset="0" stop-color="red"/><stop offset="1" stop-color="#ff2f2f" stop-opacity="0"/></linearGradient><linearGradient id="j"><stop offset="0" stop-color="#8080ff"/><stop offset="1" stop-color="#3737ff"/></linearGradient><linearGradient id="i"><stop offset="0" stop-color="#8080ff"/><stop offset="1" stop-color="#2f2fff"/></linearGradient><linearGradient id="k"><stop offset="0" stop-color="#00f"/><stop offset="1" stop-color="#fff" stop-opacity="0"/></linearGradient><linearGradient id="v" x1="62" x2="62" y1="127" y2="76" gradientUnits="userSpaceOnUse" xlink:href="#i"/><linearGradient id="u" x1="80" x2="80" y1="74" y2="129" gradientUnits="userSpaceOnUse" xlink:href="#j"/><linearGradient id="l"><stop offset="0" stop-color="#efefef"/><stop offset="1" stop-color="#b9b9b9"/></linearGradient><linearGradient id="m"><stop offset="0" stop-color="#aeaeae"/><stop offset="1" stop-color="#d2d2d2"/></linearGradient><linearGradient id="n"><stop offset="0" stop-color="#a7a7a7"/><stop offset="1" stop-color="#fff" stop-opacity="0"/></linearGradient><linearGradient id="z" x1="62" x2="62" y1="127" y2="76" gradientUnits="userSpaceOnUse" xlink:href="#l"/><linearGradient id="y" x1="80" x2="80" y1="74" y2="129" gradientUnits="userSpaceOnUse" xlink:href="#m"/><linearGradient id="o"><stop offset="0" stop-color="#ffc580"/><stop offset="1" stop-color="#ffa02f"/></linearGradient><linearGradient id="p"><stop offset="0" stop-color="#ffc580"/><stop offset="1" stop-color="#ffa337"/></linearGradient><linearGradient id="q"><stop offset="0" stop-color="#ff8a00"/><stop offset="1" stop-color="#fff" stop-opacity="0"/></linearGradient><linearGradient id="F" x1="62" x2="62" y1="127" y2="76" gradientUnits="userSpaceOnUse" xlink:href="#o"/><linearGradient id="E" x1="80" x2="80" y1="74" y2="129" gradientUnits="userSpaceOnUse" xlink:href="#p"/><linearGradient id="w" x1="80" x2="80" y1="74" y2="129" gradientUnits="userSpaceOnUse" xlink:href="#b"/><linearGradient id="x" x1="62" x2="62" y1="127" y2="76" gradientUnits="userSpaceOnUse" xlink:href="#a"/><linearGradient id="A" x1="80" x2="80" y1="74" y2="129" gradientUnits="userSpaceOnUse" xlink:href="#b"/><linearGradient id="B" x1="62" x2="62" y1="127" y2="76" gradientUnits="userSpaceOnUse" xlink:href="#a"/><linearGradient id="G" x1="80" x2="80" y1="74" y2="129" gradientTransform="translate(-254 -75)" gradientUnits="userSpaceOnUse" xlink:href="#c"/><linearGradient id="H" x1="62" x2="62" y1="127" y2="76" gradientTransform="translate(-254 -75)" gradientUnits="userSpaceOnUse" xlink:href="#d"/><linearGradient id="I" x1="80" x2="80" y1="74" y2="129" gradientUnits="userSpaceOnUse" xlink:href="#g"/><linearGradient id="J" x1="62" x2="62" y1="127" y2="76" gradientUnits="userSpaceOnUse" xlink:href="#f"/><linearGradient id="K" x1="80" x2="80" y1="74" y2="129" gradientUnits="userSpaceOnUse" xlink:href="#j"/><linearGradient id="L" x1="62" x2="62" y1="127" y2="76" gradientUnits="userSpaceOnUse" xlink:href="#i"/><linearGradient id="O" x1="80" x2="80" y1="74" y2="129" gradientUnits="userSpaceOnUse" xlink:href="#m"/><linearGradient id="P" x1="62" x2="62" y1="127" y2="76" gradientUnits="userSpaceOnUse" xlink:href="#l"/><linearGradient id="Q" x1="80" x2="80" y1="74" y2="129" gradientUnits="userSpaceOnUse" xlink:href="#b"/><linearGradient id="R" x1="62" x2="62" y1="127" y2="76" gradientUnits="userSpaceOnUse" xlink:href="#a"/><linearGradient id="S" x1="80" x2="80" y1="74" y2="129" gradientUnits="userSpaceOnUse" xlink:href="#m"/><linearGradient id="T" x1="62" x2="62" y1="127" y2="76" gradientUnits="userSpaceOnUse" xlink:href="#l"/><linearGradient id="U" x1="80" x2="80" y1="74" y2="129" gradientUnits="userSpaceOnUse" xlink:href="#p"/><linearGradient id="V" x1="62" x2="62" y1="127" y2="76" gradientUnits="userSpaceOnUse" xlink:href="#o"/><linearGradient id="W" x1="80" x2="80" y1="74" y2="129" gradientTransform="translate(-254 -75)" gradientUnits="userSpaceOnUse" xlink:href="#c"/><linearGradient id="X" x1="62" x2="62" y1="127" y2="76" gradientTransform="translate(-254 -75)" gradientUnits="userSpaceOnUse" xlink:href="#d"/><linearGradient id="Y" x1="80" x2="80" y1="74" y2="129" gradientUnits="userSpaceOnUse" xlink:href="#g"/><linearGradient id="Z" x1="62" x2="62" y1="127" y2="76" gradientUnits="userSpaceOnUse" xlink:href="#f"/><linearGradient id="aa" x1="80" x2="80" y1="74" y2="129" gradientUnits="userSpaceOnUse" xlink:href="#j"/><linearGradient id="ab" x1="62" x2="62" y1="127" y2="76" gradientUnits="userSpaceOnUse" xlink:href="#i"/><linearGradient id="ae" x1="80" x2="80" y1="74" y2="129" gradientUnits="userSpaceOnUse" xlink:href="#m"/><linearGradient id="af" x1="62" x2="62" y1="127" y2="76" gradientUnits="userSpaceOnUse" xlink:href="#l"/><linearGradient id="ai" x1="80" x2="80" y1="74" y2="129" gradientUnits="userSpaceOnUse" xlink:href="#m"/><linearGradient id="aj" x1="62" x2="62" y1="127" y2="76" gradientUnits="userSpaceOnUse" xlink:href="#l"/><linearGradient id="ak" x1="80" x2="80" y1="74" y2="129" gradientUnits="userSpaceOnUse" xlink:href="#p"/><linearGradient id="al" x1="62" x2="62" y1="127" y2="76" gradientUnits="userSpaceOnUse" xlink:href="#o"/><linearGradient id="am" x1="80" x2="80" y1="74" y2="129" gradientTransform="translate(-254 -75)" gradientUnits="userSpaceOnUse" xlink:href="#c"/><linearGradient id="an" x1="62" x2="62" y1="127" y2="76" gradientTransform="translate(-254 -75)" gradientUnits="userSpaceOnUse" xlink:href="#d"/><linearGradient id="ao" x1="80" x2="80" y1="74" y2="129" gradientUnits="userSpaceOnUse" xlink:href="#g"/><linearGradient id="ap" x1="62" x2="62" y1="127" y2="76" gradientUnits="userSpaceOnUse" xlink:href="#f"/><linearGradient id="aq" x1="80" x2="80" y1="74" y2="129" gradientUnits="userSpaceOnUse" xlink:href="#j"/><linearGradient id="ar" x1="62" x2="62" y1="127" y2="76" gradientUnits="userSpaceOnUse" xlink:href="#i"/><linearGradient id="au" x1="80" x2="80" y1="74" y2="129" gradientUnits="userSpaceOnUse" xlink:href="#b"/><linearGradient id="av" x1="62" x2="62" y1="127" y2="76" gradientUnits="userSpaceOnUse" xlink:href="#a"/><linearGradient id="ay" x1="80" x2="80" y1="74" y2="129" gradientUnits="userSpaceOnUse" xlink:href="#b"/><linearGradient id="az" x1="62" x2="62" y1="127" y2="76" gradientUnits="userSpaceOnUse" xlink:href="#a"/><linearGradient id="aA" x1="80" x2="80" y1="74" y2="129" gradientUnits="userSpaceOnUse" xlink:href="#p"/><linearGradient id="aB" x1="62" x2="62" y1="127" y2="76" gradientUnits="userSpaceOnUse" xlink:href="#o"/><linearGradient id="aC" x1="80" x2="80" y1="74" y2="129" gradientTransform="translate(-254 -75)" gradientUnits="userSpaceOnUse" xlink:href="#c"/><linearGradient id="aD" x1="62" x2="62" y1="127" y2="76" gradientTransform="translate(-254 -75)" gradientUnits="userSpaceOnUse" xlink:href="#d"/><linearGradient id="C" x1="80" x2="80" y1="74" y2="129" gradientUnits="userSpaceOnUse" xlink:href="#b"/><linearGradient id="D" x1="62" x2="62" y1="127" y2="76" gradientUnits="userSpaceOnUse" xlink:href="#a"/><linearGradient id="M" x1="80" x2="80" y1="74" y2="129" gradientUnits="userSpaceOnUse" xlink:href="#m"/><linearGradient id="N" x1="62" x2="62" y1="127" y2="76" gradientUnits="userSpaceOnUse" xlink:href="#l"/><linearGradient id="ac" x1="80" x2="80" y1="74" y2="129" gradientUnits="userSpaceOnUse" xlink:href="#m"/><linearGradient id="ad" x1="62" x2="62" y1="127" y2="76" gradientUnits="userSpaceOnUse" xlink:href="#l"/><linearGradient id="ag" x1="80" x2="80" y1="74" y2="129" gradientUnits="userSpaceOnUse" xlink:href="#m"/><linearGradient id="ah" x1="62" x2="62" y1="127" y2="76" gradientUnits="userSpaceOnUse" xlink:href="#l"/><linearGradient id="as" x1="80" x2="80" y1="74" y2="129" gradientUnits="userSpaceOnUse" xlink:href="#b"/><linearGradient id="at" x1="62" x2="62" y1="127" y2="76" gradientUnits="userSpaceOnUse" xlink:href="#a"/><linearGradient id="aw" x1="80" x2="80" y1="74" y2="129" gradientUnits="userSpaceOnUse" xlink:href="#b"/><linearGradient id="ax" x1="62" x2="62" y1="127" y2="76" gradientUnits="userSpaceOnUse" xlink:href="#a"/></defs><path fill="#a05a2c" stroke="#784421" stroke-linecap="round" stroke-linejoin="round" stroke-width="21" d="M11 10h189v189H11z" paint-order="markers fill stroke"/><g transform="translate(50 1) scale(.42357)"><circle cx="62" cy="102" r="28" fill="url(#s)" paint-order="fill markers stroke"/><circle cx="62" cy="102" r="25" fill="url(#t)" paint-order="fill markers stroke"/></g><g transform="translate(137 1) scale(.42357)"><circle cx="62" cy="102" r="28" fill="url(#u)" paint-order="fill markers stroke"/><circle cx="62" cy="102" r="25" fill="url(#v)" paint-order="fill markers stroke"/></g><g transform="matrix(.20321 0 0 .20176 40 30)"><circle cx="62" cy="102" r="28" fill="url(#w)" paint-order="fill markers stroke"/><circle cx="62" cy="102" r="25" fill="url(#x)" paint-order="fill markers stroke"/></g><g transform="matrix(.20321 0 0 .20176 28 30)"><circle cx="62" cy="102" r="28" fill="url(#y)" paint-order="fill markers stroke"/><circle cx="62" cy="102" r="25" fill="url(#z)" paint-order="fill markers stroke"/></g><g transform="matrix(.20321 0 0 .20176 28 17)"><circle cx="62" cy="102" r="28" fill="url(#A)" paint-order="fill markers stroke"/><circle cx="62" cy="102" r="25" fill="url(#B)" paint-order="fill markers stroke"/></g><g transform="matrix(.20321 0 0 .20176 40 17)"><circle cx="62" cy="102" r="28" fill="url(#C)" paint-order="fill markers stroke"/><circle cx="62" cy="102" r="25" fill="url(#D)" paint-order="fill markers stroke"/></g><g transform="translate(108 1) scale(.42357)"><circle cx="62" cy="102" r="28" fill="url(#E)" paint-order="fill markers stroke"/><circle cx="62" cy="102" r="25" fill="url(#F)" paint-order="fill markers stroke"/></g><g transform="translate(186 33) scale(.42357)"><circle cx="-192" cy="27" r="28" fill="url(#G)" paint-order="fill markers stroke"/><circle cx="-192" cy="27" r="25" fill="url(#H)" paint-order="fill markers stroke"/></g><g transform="matrix(-.42357 0 0 .42357 131 42)"><circle cx="62" cy="102" r="28" fill="url(#I)" paint-order="fill markers stroke"/><circle cx="62" cy="102" r="25" fill="url(#J)" paint-order="fill markers stroke"/></g><g transform="translate(137 42) scale(.42357)"><circle cx="62" cy="102" r="28" fill="url(#K)" paint-order="fill markers stroke"/><circle cx="62" cy="102" r="25" fill="url(#L)" paint-order="fill markers stroke"/></g><g transform="matrix(.20321 0 0 .20176 40 70)"><circle cx="62" cy="102" r="28" fill="url(#M)" paint-order="fill markers stroke"/><circle cx="62" cy="102" r="25" fill="url(#N)" paint-order="fill markers stroke"/></g><g transform="matrix(.20321 0 0 .20176 28 70)"><circle cx="62" cy="102" r="28" fill="url(#O)" paint-order="fill markers stroke"/><circle cx="62" cy="102" r="25" fill="url(#P)" paint-order="fill markers stroke"/></g><g transform="matrix(.20321 0 0 .20176 28 58)"><circle cx="62" cy="102" r="28" fill="url(#Q)" paint-order="fill markers stroke"/><circle cx="62" cy="102" r="25" fill="url(#R)" paint-order="fill markers stroke"/></g><g transform="matrix(.20321 0 0 .20176 40 58)"><circle cx="62" cy="102" r="28" fill="url(#S)" paint-order="fill markers stroke"/><circle cx="62" cy="102" r="25" fill="url(#T)" paint-order="fill markers stroke"/></g><g transform="translate(108 42) scale(.42357)"><circle cx="62" cy="102" r="28" fill="url(#U)" paint-order="fill markers stroke"/><circle cx="62" cy="102" r="25" fill="url(#V)" paint-order="fill markers stroke"/></g><g transform="matrix(-.42357 0 0 .42357 -5 73)"><circle cx="-192" cy="27" r="28" fill="url(#W)" paint-order="fill markers stroke"/><circle cx="-192" cy="27" r="25" fill="url(#X)" paint-order="fill markers stroke"/></g><g transform="matrix(-.42357 0 0 .42357 160 82)"><circle cx="62" cy="102" r="28" fill="url(#Y)" paint-order="fill markers stroke"/><circle cx="62" cy="102" r="25" fill="url(#Z)" paint-order="fill markers stroke"/></g><g transform="matrix(-.42357 0 0 .42357 131 82)"><circle cx="62" cy="102" r="28" fill="url(#aa)" paint-order="fill markers stroke"/><circle cx="62" cy="102" r="25" fill="url(#ab)" paint-order="fill markers stroke"/></g><g transform="matrix(.20321 0 0 .20176 40 111)"><circle cx="62" cy="102" r="28" fill="url(#ac)" paint-order="fill markers stroke"/><circle cx="62" cy="102" r="25" fill="url(#ad)" paint-order="fill markers stroke"/></g><g transform="matrix(.20321 0 0 .20176 28 111)"><circle cx="62" cy="102" r="28" fill="url(#ae)" paint-order="fill markers stroke"/><circle cx="62" cy="102" r="25" fill="url(#af)" paint-order="fill markers stroke"/></g><g transform="matrix(.20321 0 0 .20176 28 99)"><circle cx="62" cy="102" r="28" fill="url(#ag)" paint-order="fill markers stroke"/><circle cx="62" cy="102" r="25" fill="url(#ah)" paint-order="fill markers stroke"/></g><g transform="matrix(.20321 0 0 .20176 40 99)"><circle cx="62" cy="102" r="28" fill="url(#ai)" paint-order="fill markers stroke"/><circle cx="62" cy="102" r="25" fill="url(#aj)" paint-order="fill markers stroke"/></g><g transform="matrix(-.42357 0 0 .42357 102 82)"><circle cx="62" cy="102" r="28" fill="url(#ak)" paint-order="fill markers stroke"/><circle cx="62" cy="102" r="25" fill="url(#al)" paint-order="fill markers stroke"/></g><g transform="matrix(-.42357 0 0 .42357 82 114)"><circle cx="-192" cy="27" r="28" fill="url(#am)" paint-order="fill markers stroke"/><circle cx="-192" cy="27" r="25" fill="url(#an)" paint-order="fill markers stroke"/></g><g transform="matrix(-.42357 0 0 .42357 189 123)"><circle cx="62" cy="102" r="28" fill="url(#ao)" paint-order="fill markers stroke"/><circle cx="62" cy="102" r="25" fill="url(#ap)" paint-order="fill markers stroke"/></g><g transform="matrix(-.42357 0 0 .42357 102 123)"><circle cx="62" cy="102" r="28" fill="url(#aq)" paint-order="fill markers stroke"/><circle cx="62" cy="102" r="25" fill="url(#ar)" paint-order="fill markers stroke"/></g><g transform="matrix(.20321 0 0 .20176 40 140)"><circle cx="62" cy="102" r="28" fill="url(#as)" paint-order="fill markers stroke"/><circle cx="62" cy="102" r="25" fill="url(#at)" paint-order="fill markers stroke"/></g><g transform="matrix(.20321 0 0 .20176 40 152)"><circle cx="62" cy="102" r="28" fill="url(#au)" paint-order="fill markers stroke"/><circle cx="62" cy="102" r="25" fill="url(#av)" paint-order="fill markers stroke"/></g><g transform="matrix(.20321 0 0 .20176 28 152)"><circle cx="62" cy="102" r="28" fill="url(#aw)" paint-order="fill markers stroke"/><circle cx="62" cy="102" r="25" fill="url(#ax)" paint-order="fill markers stroke"/></g><g transform="matrix(.20321 0 0 .20176 28 139)"><circle cx="62" cy="102" r="28" fill="url(#ay)" paint-order="fill markers stroke"/><circle cx="62" cy="102" r="25" fill="url(#az)" paint-order="fill markers stroke"/></g><g transform="matrix(-.42357 0 0 .42357 131 123)"><circle cx="62" cy="102" r="28" fill="url(#aA)" paint-order="fill markers stroke"/><circle cx="62" cy="102" r="25" fill="url(#aB)" paint-order="fill markers stroke"/></g><g transform="matrix(-.42357 0 0 .42357 53 155)"><circle cx="-192" cy="27" r="28" fill="url(#aC)" paint-order="fill markers stroke"/><circle cx="-192" cy="27" r="25" fill="url(#aD)" paint-order="fill markers stroke"/></g></svg>