<svg xmlns="http://www.w3.org/2000/svg" viewBox="0 0 134.608 134.608"><defs><filter id="a" color-interpolation-filters="sRGB"><feGaussianBlur result="blur" stdDeviation="2.3 2.3"/></filter></defs><path fill="#e08683" d="M134.608 134.608H0V0h134.608z" opacity=".98"/><path fill="#5a2b2a" d="M117.782 117.782H16.826V16.826h100.956z" opacity=".98"/><path fill="#e76e6c" d="M42.565 38.556c-9.521 0-17.326 7.805-17.326 17.326s7.805 17.329 17.326 17.329c9.52 0 17.328-7.808 17.328-17.329 0-9.52-7.807-17.326-17.328-17.326zm0 8.187c5.096 0 9.141 4.043 9.141 9.14 0 5.095-4.045 9.14-9.141 9.14-5.097 0-9.14-4.045-9.14-9.14 0-5.097 4.043-9.14 9.14-9.14z" color="#000" font-family="sans-serif" font-weight="400" overflow="visible" style="line-height:normal;font-variant-ligatures:normal;font-variant-position:normal;font-variant-caps:normal;font-variant-numeric:normal;font-variant-alternates:normal;font-feature-settings:normal;text-indent:0;text-align:start;text-decoration-line:none;text-decoration-style:solid;text-decoration-color:#000;text-transform:none;text-orientation:mixed;shape-padding:0;isolation:auto;mix-blend-mode:normal" white-space="normal"/><rect width="11.766" height="11.339" x="-48.015" y="48.436" fill="#c05c5a" ry=".723" transform="matrix(2.24959 0 0 1.39557 182.556 -13.425)"/><path fill="#e76e6c" d="M55.031 49.12h51.652c1.488 0 2.686 3.018 2.686 6.763 0 3.747-1.198 6.764-2.686 6.764H55.03c-1.488 0-2.685-3.018-2.685-6.764 0-3.747 1.197-6.763 2.685-6.763z"/><path fill="#e76e6c" d="M42.565 46.246c-5.295 0-9.636 4.341-9.636 9.637 0 5.295 4.34 9.638 9.636 9.638 5.296 0 9.638-4.343 9.638-9.638 0-5.296-4.342-9.637-9.638-9.637zm0 4.553a5.05 5.05 0 0 1 5.085 5.084 5.05 5.05 0 0 1-5.085 5.084 5.05 5.05 0 0 1-5.083-5.084 5.047 5.047 0 0 1 5.083-5.084z" color="#000" font-family="sans-serif" font-weight="400" overflow="visible" style="line-height:normal;font-variant-ligatures:normal;font-variant-position:normal;font-variant-caps:normal;font-variant-numeric:normal;font-variant-alternates:normal;font-feature-settings:normal;text-indent:0;text-align:start;text-decoration-line:none;text-decoration-style:solid;text-decoration-color:#000;text-transform:none;text-orientation:mixed;shape-padding:0;isolation:auto;mix-blend-mode:normal" white-space="normal"/><path fill="#e76e6c" d="M42.566 50.348c-3.042 0-5.536 2.493-5.536 5.535 0 3.043 2.494 5.536 5.536 5.536 3.041 0 5.536-2.496 5.536-5.536 0-3.043-2.495-5.535-5.536-5.535zm0 2.616a2.897 2.897 0 0 1 2.92 2.919 2.903 2.903 0 0 1-2.92 2.921 2.902 2.902 0 0 1-2.92-2.921 2.9 2.9 0 0 1 2.92-2.92z" color="#000" font-family="sans-serif" font-weight="400" overflow="visible" style="line-height:normal;font-variant-ligatures:normal;font-variant-position:normal;font-variant-caps:normal;font-variant-numeric:normal;font-variant-alternates:normal;font-feature-settings:normal;text-indent:0;text-align:start;text-decoration-line:none;text-decoration-style:solid;text-decoration-color:#000;text-transform:none;text-orientation:mixed;shape-padding:0;isolation:auto;mix-blend-mode:normal" white-space="normal"/><path fill="#e76e6c" d="M42.566 52.911a2.981 2.981 0 0 0-2.973 2.973 2.986 2.986 0 0 0 2.973 2.973 2.983 2.983 0 0 0 2.972-2.973c0-1.63-1.339-2.973-2.972-2.973zm0 1.407c.874 0 1.568.693 1.568 1.568 0 .878-.694 1.568-1.568 1.568a1.557 1.557 0 0 1-1.568-1.568c0-.875.694-1.568 1.568-1.568z" color="#000" font-family="sans-serif" font-weight="400" overflow="visible" style="line-height:normal;font-variant-ligatures:normal;font-variant-position:normal;font-variant-caps:normal;font-variant-numeric:normal;font-variant-alternates:normal;font-feature-settings:normal;text-indent:0;text-align:start;text-decoration-line:none;text-decoration-style:solid;text-decoration-color:#000;text-transform:none;text-orientation:mixed;shape-padding:0;isolation:auto;mix-blend-mode:normal" white-space="normal"/><g fill="#e76e6c" transform="matrix(1.93259 0 0 1.93259 9.311 -130.483)"><text x="42.765" y="102.39" stroke-width=".575" font-family="Berlin Sans FB" font-size="22.986" font-weight="400" letter-spacing="0" style="line-height:1.25;-inkscape-font-specification:'Berlin Sans FB'" word-spacing="0"/><circle cx="16.955" cy="96.473" r="3.144" opacity=".99"/></g><g fill="#c05c5a"><g transform="matrix(2.56977 0 0 2.56977 1.001 -161.348)"><text x="42.765" y="102.39" stroke-width=".575" font-family="Berlin Sans FB" font-size="22.986" font-weight="400" letter-spacing="0" style="line-height:1.25;-inkscape-font-specification:'Berlin Sans FB'" word-spacing="0"/><circle cx="16.955" cy="96.473" r="3.144" opacity=".99"/></g><g transform="matrix(2.56977 0 0 2.56977 21.218 -162.039)"><text x="42.765" y="102.39" stroke-width=".575" font-family="Berlin Sans FB" font-size="22.986" font-weight="400" letter-spacing="0" style="line-height:1.25;-inkscape-font-specification:'Berlin Sans FB'" word-spacing="0"/><circle cx="17.934" cy="96.741" r="3.144" opacity=".99"/></g><g transform="matrix(2.56977 0 0 2.56977 46.465 -161.348)"><text x="42.765" y="102.39" stroke-width=".575" font-family="Berlin Sans FB" font-size="22.986" font-weight="400" letter-spacing="0" style="line-height:1.25;-inkscape-font-specification:'Berlin Sans FB'" word-spacing="0"/><circle cx="16.955" cy="96.473" r="3.144" opacity=".99"/></g></g><text x="42.765" y="102.39" fill-opacity=".228" stroke-width=".575" filter="url(#a)" font-family="Berlin Sans FB" font-size="22.986" font-weight="400" letter-spacing="0" style="line-height:1.25;-inkscape-font-specification:'Berlin Sans FB'" transform="translate(36.548 59.587) scale(2.29834)" word-spacing="0"/></svg>