<?xml version="1.0" encoding="UTF-8" standalone="no"?>
<!-- Created with Inkscape (http://www.inkscape.org/) -->
<svg
   xmlns:svg="http://www.w3.org/2000/svg"
   xmlns="http://www.w3.org/2000/svg"
   version="1.0"
   width="194.5025"
   height="97.276253"
   id="svg2"
   xml:space="preserve"><defs
     id="defs5" /><g
     transform="matrix(1.25,0,0,-1.25,-63.306875,168.81937)"
     id="g11"><path
       d="M 104.979,131.951 C 104.979,132.738 105.615,133.374 106.402,133.374 C 107.187,133.374 107.825,132.738 107.825,131.951 C 107.825,131.164 107.187,130.526 106.402,130.526 C 105.615,130.526 104.979,131.164 104.979,131.951 z M 132.308,130.607 L 121.138,130.607 C 122.019,133.194 124.471,134.986 126.636,134.986 C 128.966,134.986 131.469,132.866 132.308,130.607 z M 145.669,131.951 C 145.669,132.738 146.308,133.374 147.093,133.374 C 147.88,133.374 148.517,132.738 148.517,131.951 C 148.517,131.164 147.88,130.526 147.093,130.526 C 146.308,130.526 145.669,131.164 145.669,131.951 z M 134.708,131.951 C 134.708,132.738 135.345,133.374 136.132,133.374 C 136.918,133.374 137.555,132.738 137.555,131.951 C 137.555,131.164 136.918,130.526 136.132,130.526 C 135.345,130.526 134.708,131.164 134.708,131.951 z M 115.948,131.951 C 115.948,132.738 116.584,133.374 117.373,133.374 C 118.158,133.374 118.795,132.738 118.795,131.951 C 118.795,131.164 118.158,130.526 117.373,130.526 C 116.584,130.526 115.948,131.164 115.948,131.951 z M 104.9705,129.5555 L 104.9705,127.7055 L 96.3955,127.7055 L 96.3955,125.0055 L 96.5955,125.0055 C 97.0835,125.0055 97.4955,124.6185 97.4955,124.1305 L 97.4955,120.9055 C 97.4955,120.19648 97.066701,120.0305 96.5955,120.0305 L 96.3955,120.0305 L 96.3955,116.7055 L 96.5955,116.7055 C 97.0835,116.7055 97.4955,116.3175 97.4955,115.8305 L 97.4955,112.5805 C 97.4955,111.90071 97.068769,111.7055 96.5955,111.7055 L 96.3955,111.7055 L 96.3955,108.3805 L 96.5955,108.3805 C 97.0835,108.3805 97.4955,107.9915 97.4955,107.5055 L 97.4955,104.2805 C 97.4955,103.58782 97.073443,103.3805 96.5955,103.3805 L 96.3955,103.3805 L 96.3955,100.0805 L 96.5955,100.0805 C 97.0835,100.0805 97.4955,99.6665 97.4955,99.1805 L 97.4955,95.9555 C 97.4955,95.262814 97.07337,95.0555 96.5955,95.0555 L 96.3955,95.0555 L 96.3955,92.3305 L 104.9705,92.3305 L 104.9705,89.5055 L 148.4955,89.5055 L 148.4955,92.3305 L 157.3455,92.3305 L 157.3455,95.0555 L 156.8705,95.0555 C 156.22153,95.0555 155.9955,95.512515 155.9955,95.9555 L 155.9955,99.1805 C 155.9955,99.87637 156.39548,100.0805 156.8705,100.0805 L 157.3455,100.0805 L 157.3455,103.3805 L 156.8705,103.3805 C 156.3835,103.3805 155.9955,103.7925 155.9955,104.2805 L 155.9955,107.5055 C 155.9955,108.07596 156.40255,108.3805 156.8705,108.3805 L 157.3455,108.3805 L 157.3455,111.7055 L 156.8705,111.7055 C 156.17465,111.7055 155.9955,112.04982 155.9955,112.5805 L 155.9955,115.8305 C 155.9955,116.33664 156.39955,116.7055 156.8705,116.7055 L 157.3455,116.7055 L 157.3455,120.0555 L 156.8705,120.0555 C 156.3835,120.0555 155.9955,120.4425 155.9955,120.9305 L 155.9955,124.1305 C 155.9955,124.8426 156.40217,125.0055 156.8705,125.0055 L 157.3455,125.0055 L 157.3455,127.7055 L 148.4955,127.7055 L 148.4955,129.5555 L 104.9705,129.5555 z M 101.2705,125.0055 L 103.9455,125.0055 C 104.5395,125.0055 104.9705,124.6205 104.9705,124.1305 L 104.9705,120.9055 C 104.9705,120.4165 104.5395,120.0305 103.9455,120.0305 L 101.2705,120.0305 C 100.6755,120.0305 100.2955,120.4165 100.2955,120.9055 L 100.2955,124.1305 C 100.2955,124.84929 100.73491,125.0055 101.2705,125.0055 z M 108.8455,125.0055 L 114.8955,125.0055 C 115.5315,125.0055 115.9455,124.4175 115.9455,123.9305 L 115.9455,121.1305 C 115.9455,120.6435 115.5305,120.0305 114.8955,120.0305 L 108.8705,120.0305 C 108.16105,120.0305 107.7955,120.52073 107.7955,121.1305 L 107.7955,123.9305 C 107.7955,124.4175 108.2105,125.0055 108.8455,125.0055 z M 119.6955,125.0055 L 133.7455,125.0055 C 134.2315,125.0055 134.6955,124.5955 134.6955,124.1055 L 134.6955,121.0055 C 134.6955,120.5165 134.2315,120.0305 133.7455,120.0305 L 119.6955,120.0305 C 119.05931,120.0305 118.7455,120.47084 118.7455,121.0055 L 118.7455,124.1055 C 118.7455,124.5955 119.2095,125.0055 119.6955,125.0055 z M 138.5705,125.0055 L 144.6205,125.0055 C 145.2555,125.0055 145.6705,124.4175 145.6705,123.9305 L 145.6705,121.1305 C 145.6705,120.6435 145.2305,120.0305 144.5955,120.0305 L 138.5455,120.0305 C 137.83209,120.0305 137.49007,120.52186 137.4955,121.1305 L 137.5205,123.9305 C 137.52485,124.41748 137.9355,125.0055 138.5705,125.0055 z M 149.4955,125.0055 L 152.1955,125.0055 C 152.7905,125.0055 153.1705,124.6205 153.1705,124.1305 L 153.1705,120.9055 C 153.1705,120.4165 152.7905,120.0305 152.1955,120.0305 L 149.4955,120.0305 C 148.83157,120.0305 148.4705,120.35006 148.4705,120.9055 L 148.4705,124.1305 C 148.4705,124.6205 148.9005,125.0055 149.4955,125.0055 z M 101.2705,116.7055 L 103.9455,116.7055 C 104.5395,116.7055 104.9705,116.3195 104.9705,115.8305 L 104.9705,112.6055 C 104.9705,112.1155 104.5395,111.7055 103.9455,111.7055 L 101.2705,111.7055 C 100.53231,111.7055 100.2955,112.011 100.2955,112.6055 L 100.2955,115.8305 C 100.2955,116.52228 100.7358,116.7055 101.2705,116.7055 z M 108.8455,116.7055 L 114.8955,116.7055 C 115.5315,116.7055 115.9455,116.1175 115.9455,115.6305 L 115.9455,112.8055 C 115.9455,112.3175 115.5305,111.7055 114.8955,111.7055 L 108.8705,111.7055 C 108.16071,111.7055 107.7955,112.19547 107.7955,112.8055 L 107.7955,115.6305 C 107.7955,116.1175 108.2105,116.7055 108.8455,116.7055 z M 119.6955,116.7055 L 133.7455,116.7055 C 134.2315,116.7055 134.6955,116.2705 134.6955,115.7805 L 134.6955,112.7055 C 134.6955,112.2165 134.2315,111.7055 133.7455,111.7055 L 119.6955,111.7055 C 119.02069,111.7055 118.7455,112.15014 118.7455,112.7055 L 118.7455,115.7805 C 118.7455,116.2705 119.2095,116.7055 119.6955,116.7055 z M 138.5705,116.7055 L 144.6205,116.7055 C 145.2565,116.7055 145.6705,116.1175 145.6705,115.6305 L 145.6705,112.8055 C 145.6705,112.3175 145.2305,111.7055 144.5955,111.7055 L 138.5705,111.7055 C 137.81341,111.7055 137.5205,112.16786 137.5205,112.8055 L 137.5205,115.6305 C 137.5205,116.1175 137.9345,116.7055 138.5705,116.7055 z M 149.4955,116.7055 L 152.1955,116.7055 C 152.7885,116.7055 153.1705,116.3195 153.1705,115.8305 L 153.1705,112.6055 C 153.1705,112.1155 152.7885,111.7055 152.1955,111.7055 L 149.4955,111.7055 C 148.83954,111.7055 148.4955,112.05247 148.4955,112.6055 L 148.4955,115.8305 C 148.4955,116.3195 148.9005,116.7055 149.4955,116.7055 z M 101.2705,108.3805 L 103.9455,108.3805 C 104.5395,108.3805 104.9705,107.9945 104.9705,107.5055 L 104.9705,104.2805 C 104.9705,103.7925 104.5395,103.4055 103.9455,103.4055 L 101.2705,103.4055 C 100.61166,103.4055 100.2955,103.72279 100.2955,104.2805 L 100.2955,107.5055 C 100.2955,108.22422 100.73505,108.3805 101.2705,108.3805 z M 108.8455,108.3805 L 114.8955,108.3805 C 115.5315,108.3805 115.9455,107.7935 115.9455,107.3055 L 115.9455,104.5055 C 115.9455,104.0175 115.5305,103.4055 114.8955,103.4055 L 108.8705,103.4055 C 108.16083,103.4055 107.7955,103.89559 107.7955,104.5055 L 107.7955,107.3055 C 107.7955,107.7935 108.2105,108.3805 108.8455,108.3805 z M 119.6955,108.3805 L 133.7455,108.3805 C 134.2315,108.3805 134.6955,107.9715 134.6955,107.4805 L 134.6955,104.3805 C 134.6955,103.8905 134.2315,103.4055 133.7455,103.4055 L 119.6955,103.4055 C 119.08492,103.4055 118.7455,103.85836 118.7455,104.3805 L 118.7455,107.4805 C 118.7455,107.9715 119.2095,108.3805 119.6955,108.3805 z M 138.5705,108.3805 L 144.6205,108.3805 C 145.2565,108.3805 145.6705,107.7935 145.6705,107.3055 L 145.6705,104.5055 C 145.6705,104.0175 145.2305,103.4055 144.5955,103.4055 L 138.5705,103.4055 C 137.86528,103.4055 137.5205,103.89843 137.5205,104.5055 L 137.5205,107.3055 C 137.5205,107.7935 137.9345,108.3805 138.5705,108.3805 z M 149.4955,108.3805 L 152.1955,108.3805 C 152.7885,108.3805 153.1705,107.9945 153.1705,107.5055 L 153.1705,104.2805 C 153.1705,103.7925 152.7885,103.4055 152.1955,103.4055 L 149.4955,103.4055 C 148.83288,103.4055 148.4955,103.72324 148.4955,104.2805 L 148.4955,107.5055 C 148.4955,107.9945 148.9005,108.3805 149.4955,108.3805 z M 101.2705,100.0805 L 103.9455,100.0805 C 104.5395,100.0805 104.9705,99.670498 104.9705,99.1805 L 104.9705,95.9555 C 104.9705,95.4655 104.5395,95.0805 103.9455,95.0805 L 101.2705,95.0805 C 100.58177,95.0805 100.2955,95.48348 100.2955,95.9555 L 100.2955,99.1805 C 100.2955,99.884646 100.73381,100.0805 101.2705,100.0805 z M 108.8455,100.0805 L 114.8955,100.0805 C 115.5315,100.0805 115.9455,99.493499 115.9455,99.0055 L 115.9455,96.1805 C 115.9455,95.6915 115.5305,95.0805 114.8955,95.0805 L 108.8705,95.0805 C 108.16049,95.0805 107.7955,95.570327 107.7955,96.1805 L 107.7955,99.0055 C 107.7955,99.4935 108.2105,100.0805 108.8455,100.0805 z M 119.6955,100.0805 L 133.7455,100.0805 C 134.2315,100.0805 134.6955,99.646498 134.6955,99.1555 L 134.6955,96.0805 C 134.6955,95.5915 134.2315,95.0805 133.7455,95.0805 L 119.6955,95.0805 C 119.05102,95.0805 118.7455,95.537601 118.7455,96.0805 L 118.7455,99.1555 C 118.7455,99.6465 119.2095,100.0805 119.6955,100.0805 z M 138.5705,100.0805 L 144.6205,100.0805 C 145.2555,100.0805 145.6705,99.493499 145.6705,99.0055 L 145.6705,96.1805 C 145.6705,95.6915 145.2305,95.0805 144.5955,95.0805 L 138.5455,95.0805 C 137.83168,95.0805 137.49011,95.571602 137.4955,96.1805 L 137.5205,99.0055 C 137.52482,99.493481 137.9355,100.0805 138.5705,100.0805 z M 149.4955,100.0805 L 152.1955,100.0805 C 152.7885,100.0805 153.1705,99.670498 153.1705,99.1805 L 153.1705,95.9555 C 153.1705,95.4655 152.7885,95.0805 152.1955,95.0805 L 149.4955,95.0805 C 148.84867,95.0805 148.4955,95.412014 148.4955,95.9555 L 148.4955,99.1805 C 148.4955,99.6705 148.9005,100.0805 149.4955,100.0805 z M 107.7955,92.3305 L 145.6705,92.3305 L 145.6705,91.9805 C 145.6705,91.7835 145.3835,91.6055 145.0205,91.6055 L 108.4455,91.6055 C 108.0845,91.6055 107.7955,91.783501 107.7955,91.9805 L 107.7955,92.3305 z"
       id="path325"
       style="fill:#1a6e5d;fill-opacity:1;fill-rule:nonzero;stroke:#1a6e5d;stroke-width:0.139;stroke-linecap:butt;stroke-linejoin:miter;stroke-miterlimit:3.86400008;stroke-dasharray:none;stroke-opacity:1" /><path
       d="M 103.718,57.966 L 103.484,58.459 C 103.431,58.564 103.315,58.628 103.159,58.551 C 102.939,58.446 102.447,58.303 102.095,58.303 C 100.811,58.303 99.864,59.328 99.864,61.768 C 99.864,64.144 100.668,65.156 102.122,65.156 C 102.524,65.156 102.822,65.052 103.121,64.909 C 103.277,64.832 103.406,64.883 103.471,65.014 L 103.678,65.416 C 103.756,65.558 103.704,65.714 103.575,65.792 C 103.121,66.066 102.589,66.13 102.082,66.13 C 100.098,66.13 98.722,64.521 98.722,61.783 C 98.722,58.927 99.929,57.304 102.004,57.304 C 102.797,57.304 103.264,57.486 103.602,57.654 C 103.704,57.706 103.782,57.824 103.718,57.966 z M 111.875,57.628 L 111.875,65.805 C 111.875,65.961 111.746,66.066 111.602,66.066 L 111.109,66.066 C 110.966,66.066 110.837,65.961 110.837,65.805 L 110.837,62.443 L 107.554,62.443 L 107.554,65.805 C 107.554,65.961 107.424,66.066 107.281,66.066 L 106.788,66.066 C 106.646,66.066 106.516,65.961 106.516,65.805 L 106.516,57.628 C 106.516,57.486 106.646,57.37 106.788,57.37 L 107.281,57.37 C 107.424,57.37 107.554,57.486 107.554,57.628 L 107.554,61.51 L 110.837,61.51 L 110.837,57.628 C 110.837,57.486 110.966,57.37 111.109,57.37 L 111.602,57.37 C 111.746,57.37 111.875,57.486 111.875,57.628 z M 119.941,57.628 L 119.941,58.096 C 119.941,58.252 119.812,58.37 119.656,58.37 L 116.398,58.37 L 116.398,61.495 L 119.253,61.495 C 119.409,61.495 119.526,61.612 119.526,61.783 L 119.526,62.184 C 119.526,62.327 119.409,62.443 119.253,62.443 L 116.398,62.443 L 116.398,65.092 L 119.565,65.092 C 119.734,65.092 119.838,65.221 119.838,65.377 L 119.838,65.805 C 119.838,65.961 119.708,66.066 119.565,66.066 L 115.621,66.066 C 115.478,66.066 115.347,65.961 115.347,65.805 L 115.347,57.628 C 115.347,57.486 115.478,57.37 115.621,57.37 L 119.669,57.37 C 119.812,57.37 119.941,57.486 119.941,57.628 z M 130.032,57.591 L 129.383,65.819 C 129.37,65.987 129.253,66.066 129.097,66.066 L 128.124,66.066 C 127.994,66.066 127.877,65.974 127.851,65.857 L 126.437,60.459 C 126.32,60.029 126.281,59.472 126.243,58.991 C 126.19,59.472 126.152,60.043 126.048,60.446 L 124.633,65.857 C 124.607,65.961 124.504,66.066 124.374,66.066 L 123.375,66.066 C 123.22,66.066 123.09,65.961 123.076,65.819 L 122.414,57.628 C 122.401,57.486 122.493,57.37 122.622,57.37 L 123.271,57.37 C 123.4,57.37 123.478,57.459 123.491,57.603 L 123.867,63.638 C 123.894,63.962 123.894,64.975 123.894,65.391 C 123.971,64.949 124.023,64.209 124.179,63.638 L 125.568,58.524 C 125.62,58.343 125.685,58.265 125.84,58.265 L 126.606,58.265 C 126.762,58.265 126.826,58.343 126.878,58.524 L 128.266,63.638 C 128.409,64.17 128.487,65.026 128.539,65.391 C 128.539,64.949 128.565,63.935 128.578,63.625 L 128.915,57.591 C 128.928,57.459 129.006,57.37 129.162,57.37 L 129.85,57.37 C 129.992,57.37 130.044,57.459 130.032,57.591 z M 138.719,57.616 L 138.719,65.819 C 138.719,65.961 138.591,66.066 138.448,66.066 L 137.992,66.066 C 137.85,66.066 137.721,65.961 137.721,65.819 L 137.746,59.913 C 137.746,59.356 137.837,58.653 137.876,58.136 C 137.721,58.576 137.578,59.161 137.318,59.744 L 134.619,65.883 C 134.567,66 134.463,66.066 134.321,66.066 L 133.335,66.066 C 133.179,66.066 133.062,65.987 133.062,65.819 L 133.062,57.616 C 133.062,57.486 133.193,57.37 133.335,57.37 L 133.788,57.37 C 133.932,57.37 134.062,57.486 134.062,57.616 L 134.035,63.625 C 134.035,64.04 133.945,64.883 133.905,65.416 C 134.062,64.858 134.23,64.26 134.477,63.716 L 137.227,57.577 C 137.293,57.447 137.41,57.37 137.539,57.37 L 138.448,57.37 C 138.591,57.37 138.719,57.486 138.719,57.616 z M 144.126,57.642 L 144.126,57.927 C 144.126,58.07 144.021,58.2 143.865,58.2 L 143.217,58.2 L 143.217,65.233 L 143.865,65.233 C 144.021,65.233 144.126,65.363 144.126,65.507 L 144.126,65.792 C 144.126,65.935 144.021,66.066 143.865,66.066 L 141.53,66.066 C 141.374,66.066 141.271,65.935 141.271,65.792 L 141.271,65.507 C 141.271,65.363 141.374,65.233 141.53,65.233 L 142.18,65.233 L 142.18,58.2 L 141.53,58.2 C 141.374,58.2 141.271,58.07 141.271,57.927 L 141.271,57.642 C 141.271,57.499 141.374,57.37 141.53,57.37 L 143.865,57.37 C 144.021,57.37 144.126,57.499 144.126,57.642 z M 151.262,65.377 L 151.262,65.805 C 151.262,65.961 151.143,66.066 151.002,66.066 L 146.006,66.066 C 145.85,66.066 145.721,65.961 145.721,65.805 L 145.721,65.377 C 145.721,65.221 145.85,65.117 146.006,65.117 L 147.977,65.117 L 147.977,57.628 C 147.977,57.486 148.108,57.37 148.25,57.37 L 148.756,57.37 C 148.899,57.37 149.029,57.486 149.029,57.628 L 149.029,65.117 L 151.002,65.117 C 151.143,65.117 151.262,65.221 151.262,65.377 z M 158.016,57.628 L 158.016,58.083 C 158.016,58.225 157.9,58.343 157.756,58.343 L 154.422,58.343 C 154.162,58.343 153.902,58.291 153.748,58.265 C 153.902,58.381 154.085,58.576 154.227,58.836 L 157.73,64.909 C 157.808,65.039 157.873,65.195 157.873,65.338 L 157.873,65.805 C 157.873,65.961 157.756,66.066 157.614,66.066 L 153.229,66.066 C 153.073,66.066 152.943,65.961 152.943,65.805 L 152.943,65.377 C 152.943,65.233 153.073,65.117 153.229,65.117 L 156.212,65.117 C 156.51,65.117 156.77,65.144 156.966,65.195 C 156.81,65.065 156.616,64.871 156.485,64.65 L 152.943,58.524 C 152.89,58.433 152.826,58.303 152.826,58.161 L 152.826,57.628 C 152.826,57.486 152.943,57.37 153.085,57.37 L 157.756,57.37 C 157.9,57.37 158.016,57.486 158.016,57.628 z"
       id="path343"
       style="fill:#1a6e5d;fill-opacity:1;fill-rule:nonzero;stroke:#1a6e5d;stroke-width:0.139;stroke-linecap:butt;stroke-linejoin:miter;stroke-miterlimit:3.86400008;stroke-dasharray:none;stroke-opacity:1" /><path
       d="M 56.256,80.233 L 56.256,80.662 C 56.256,80.818 56.139,80.921 55.998,80.921 L 51.002,80.921 C 50.846,80.921 50.715,80.818 50.715,80.662 L 50.715,80.233 C 50.715,80.078 50.846,79.973 51.002,79.973 L 52.974,79.973 L 52.974,72.487 C 52.974,72.343 53.104,72.225 53.247,72.225 L 53.751,72.225 C 53.895,72.225 54.025,72.343 54.025,72.487 L 54.025,79.973 L 55.998,79.973 C 56.139,79.973 56.256,80.078 56.256,80.233 z M 63.064,72.487 L 63.064,72.953 C 63.064,73.109 62.934,73.225 62.779,73.225 L 59.522,73.225 L 59.522,76.354 L 62.376,76.354 C 62.531,76.354 62.649,76.471 62.649,76.639 L 62.649,77.041 C 62.649,77.184 62.531,77.3 62.376,77.3 L 59.522,77.3 L 59.522,79.949 L 62.688,79.949 C 62.856,79.949 62.959,80.078 62.959,80.233 L 62.959,80.662 C 62.959,80.818 62.83,80.921 62.688,80.921 L 58.742,80.921 C 58.6,80.921 58.471,80.818 58.471,80.662 L 58.471,72.487 C 58.471,72.343 58.6,72.225 58.742,72.225 L 62.791,72.225 C 62.934,72.225 63.064,72.343 63.064,72.487 z M 70.39,72.823 L 70.156,73.316 C 70.104,73.421 69.987,73.485 69.831,73.407 C 69.611,73.303 69.119,73.161 68.769,73.161 C 67.483,73.161 66.536,74.187 66.536,76.626 C 66.536,79.001 67.34,80.014 68.794,80.014 C 69.197,80.014 69.495,79.91 69.793,79.766 C 69.949,79.689 70.078,79.741 70.143,79.87 L 70.35,80.273 C 70.429,80.415 70.377,80.571 70.247,80.648 C 69.793,80.921 69.261,80.987 68.755,80.987 C 66.77,80.987 65.394,79.378 65.394,76.639 C 65.394,73.784 66.601,72.161 68.677,72.161 C 69.469,72.161 69.936,72.343 70.274,72.511 C 70.377,72.564 70.454,72.681 70.39,72.823 z M 78.547,72.487 L 78.547,80.662 C 78.547,80.818 78.418,80.921 78.275,80.921 L 77.781,80.921 C 77.639,80.921 77.509,80.818 77.509,80.662 L 77.509,77.3 L 74.226,77.3 L 74.226,80.662 C 74.226,80.818 74.097,80.921 73.953,80.921 L 73.461,80.921 C 73.318,80.921 73.188,80.818 73.188,80.662 L 73.188,72.487 C 73.188,72.343 73.318,72.225 73.461,72.225 L 73.953,72.225 C 74.097,72.225 74.226,72.343 74.226,72.487 L 74.226,76.365 L 77.509,76.365 L 77.509,72.487 C 77.509,72.343 77.639,72.225 77.781,72.225 L 78.275,72.225 C 78.418,72.225 78.547,72.343 78.547,72.487 z M 87.677,72.473 L 87.677,80.676 C 87.677,80.818 87.548,80.921 87.405,80.921 L 86.951,80.921 C 86.809,80.921 86.678,80.818 86.678,80.676 L 86.704,74.77 C 86.704,74.213 86.795,73.512 86.834,72.993 C 86.678,73.434 86.536,74.018 86.276,74.601 L 83.578,80.74 C 83.525,80.856 83.422,80.921 83.279,80.921 L 82.293,80.921 C 82.137,80.921 82.02,80.845 82.02,80.676 L 82.02,72.473 C 82.02,72.343 82.149,72.225 82.293,72.225 L 82.747,72.225 C 82.89,72.225 83.02,72.343 83.02,72.473 L 82.993,78.483 C 82.993,78.897 82.903,79.741 82.864,80.273 C 83.02,79.714 83.188,79.117 83.435,78.572 L 86.186,72.434 C 86.25,72.304 86.368,72.225 86.497,72.225 L 87.405,72.225 C 87.548,72.225 87.677,72.343 87.677,72.473 z M 93.084,72.499 L 93.084,72.784 C 93.084,72.927 92.979,73.057 92.824,73.057 L 92.175,73.057 L 92.175,80.091 L 92.824,80.091 C 92.979,80.091 93.084,80.22 93.084,80.364 L 93.084,80.648 C 93.084,80.792 92.979,80.921 92.824,80.921 L 90.488,80.921 C 90.332,80.921 90.229,80.792 90.229,80.648 L 90.229,80.364 C 90.229,80.22 90.332,80.091 90.488,80.091 L 91.138,80.091 L 91.138,73.057 L 90.488,73.057 C 90.332,73.057 90.229,72.927 90.229,72.784 L 90.229,72.499 C 90.229,72.355 90.332,72.225 90.488,72.225 L 92.824,72.225 C 92.979,72.225 93.084,72.355 93.084,72.499 z M 100.128,74.654 C 100.128,76.042 99.324,76.626 98.364,77.028 L 97.65,77.327 C 96.924,77.638 96.313,77.949 96.313,78.716 C 96.313,79.52 96.754,80.001 97.818,80.001 C 98.349,80.001 98.726,79.883 99.154,79.754 C 99.259,79.728 99.415,79.819 99.453,79.961 L 99.557,80.377 C 99.595,80.52 99.518,80.676 99.401,80.714 C 99.012,80.845 98.349,80.987 97.818,80.987 C 96.131,80.987 95.197,80.001 95.197,78.676 C 95.197,77.222 96.196,76.781 97.13,76.365 L 97.741,76.093 C 98.427,75.782 98.986,75.418 98.986,74.615 C 98.986,73.744 98.324,73.161 97.286,73.161 C 96.638,73.161 96.015,73.369 95.548,73.537 C 95.366,73.601 95.25,73.499 95.209,73.354 L 95.08,72.85 C 95.042,72.706 95.093,72.59 95.261,72.526 C 95.755,72.343 96.56,72.161 97.273,72.161 C 99.181,72.161 100.128,73.343 100.128,74.654 z M 107.313,72.823 L 107.079,73.316 C 107.028,73.421 106.911,73.485 106.755,73.407 C 106.534,73.303 106.041,73.161 105.691,73.161 C 104.407,73.161 103.459,74.187 103.459,76.626 C 103.459,79.001 104.264,80.014 105.716,80.014 C 106.119,80.014 106.417,79.91 106.716,79.766 C 106.872,79.689 107.002,79.741 107.066,79.87 L 107.274,80.273 C 107.352,80.415 107.299,80.571 107.17,80.648 C 106.716,80.921 106.184,80.987 105.678,80.987 C 103.692,80.987 102.316,79.378 102.316,76.639 C 102.316,73.784 103.524,72.161 105.6,72.161 C 106.391,72.161 106.858,72.343 107.196,72.511 C 107.299,72.564 107.379,72.681 107.313,72.823 z M 115.47,72.487 L 115.47,80.662 C 115.47,80.818 115.34,80.921 115.198,80.921 L 114.704,80.921 C 114.561,80.921 114.432,80.818 114.432,80.662 L 114.432,77.3 L 111.149,77.3 L 111.149,80.662 C 111.149,80.818 111.02,80.921 110.877,80.921 L 110.384,80.921 C 110.241,80.921 110.111,80.818 110.111,80.662 L 110.111,72.487 C 110.111,72.343 110.241,72.225 110.384,72.225 L 110.877,72.225 C 111.02,72.225 111.149,72.343 111.149,72.487 L 111.149,76.365 L 114.432,76.365 L 114.432,72.487 C 114.432,72.343 114.561,72.225 114.704,72.225 L 115.198,72.225 C 115.34,72.225 115.47,72.343 115.47,72.487 z M 123.537,72.487 L 123.537,72.953 C 123.537,73.109 123.406,73.225 123.25,73.225 L 119.995,73.225 L 119.995,76.354 L 122.848,76.354 C 123.005,76.354 123.122,76.471 123.122,76.639 L 123.122,77.041 C 123.122,77.184 123.005,77.3 122.848,77.3 L 119.995,77.3 L 119.995,79.949 L 123.16,79.949 C 123.328,79.949 123.433,80.078 123.433,80.233 L 123.433,80.662 C 123.433,80.818 123.302,80.921 123.16,80.921 L 119.216,80.921 C 119.073,80.921 118.944,80.818 118.944,80.662 L 118.944,72.487 C 118.944,72.343 119.073,72.225 119.216,72.225 L 123.264,72.225 C 123.406,72.225 123.537,72.343 123.537,72.487 z"
       id="path359"
       style="fill:#1a6e5d;fill-opacity:1;fill-rule:nonzero;stroke:#1a6e5d;stroke-width:0.139;stroke-linecap:butt;stroke-linejoin:miter;stroke-miterlimit:3.86400008;stroke-dasharray:none;stroke-opacity:1" /><path
       d="M 135.363,74.835 L 135.363,80.662 C 135.363,80.818 135.232,80.921 135.091,80.921 L 134.596,80.921 C 134.453,80.921 134.324,80.818 134.324,80.662 L 134.324,74.913 C 134.324,73.369 133.597,73.057 132.638,73.057 C 131.392,73.057 131.002,73.822 131.002,75.068 L 131.002,80.662 C 131.002,80.818 130.872,80.921 130.73,80.921 L 130.236,80.921 C 130.095,80.921 129.964,80.818 129.964,80.662 L 129.964,74.835 C 129.964,73.199 130.73,72.161 132.638,72.161 C 134.44,72.161 135.363,73.122 135.363,74.835 z M 144.43,72.473 L 144.43,80.676 C 144.43,80.818 144.3,80.921 144.157,80.921 L 143.703,80.921 C 143.56,80.921 143.43,80.818 143.43,80.676 L 143.457,74.77 C 143.457,74.213 143.547,73.512 143.586,72.993 C 143.43,73.434 143.288,74.018 143.028,74.601 L 140.329,80.74 C 140.277,80.856 140.174,80.921 140.031,80.921 L 139.045,80.921 C 138.89,80.921 138.773,80.845 138.773,80.676 L 138.773,72.473 C 138.773,72.343 138.903,72.225 139.045,72.225 L 139.499,72.225 C 139.641,72.225 139.772,72.343 139.772,72.473 L 139.746,78.483 C 139.746,78.897 139.654,79.741 139.616,80.273 C 139.772,79.714 139.941,79.117 140.186,78.572 L 142.937,72.434 C 143.002,72.304 143.119,72.225 143.248,72.225 L 144.157,72.225 C 144.3,72.225 144.43,72.343 144.43,72.473 z M 149.835,72.499 L 149.835,72.784 C 149.835,72.927 149.732,73.057 149.576,73.057 L 148.927,73.057 L 148.927,80.091 L 149.576,80.091 C 149.732,80.091 149.835,80.22 149.835,80.364 L 149.835,80.648 C 149.835,80.792 149.732,80.921 149.576,80.921 L 147.241,80.921 C 147.085,80.921 146.981,80.792 146.981,80.648 L 146.981,80.364 C 146.981,80.22 147.085,80.091 147.241,80.091 L 147.889,80.091 L 147.889,73.057 L 147.241,73.057 C 147.085,73.057 146.981,72.927 146.981,72.784 L 146.981,72.499 C 146.981,72.355 147.085,72.225 147.241,72.225 L 149.576,72.225 C 149.732,72.225 149.835,72.355 149.835,72.499 z M 157.879,80.662 C 157.918,80.805 157.814,80.921 157.671,80.921 L 157.113,80.921 C 156.971,80.921 156.841,80.818 156.801,80.662 L 155.115,74.381 C 155.024,74.056 154.907,73.394 154.83,72.953 C 154.764,73.407 154.648,74.056 154.556,74.381 L 152.87,80.662 C 152.819,80.845 152.702,80.921 152.533,80.921 L 151.871,80.921 C 151.73,80.921 151.625,80.805 151.677,80.648 L 154.104,72.487 C 154.141,72.343 154.311,72.225 154.454,72.225 L 155.18,72.225 C 155.324,72.225 155.491,72.343 155.53,72.487 L 157.879,80.662 z M 165.145,72.487 L 165.145,72.953 C 165.145,73.109 165.015,73.225 164.859,73.225 L 161.602,73.225 L 161.602,76.354 L 164.456,76.354 C 164.612,76.354 164.729,76.471 164.729,76.639 L 164.729,77.041 C 164.729,77.184 164.612,77.3 164.456,77.3 L 161.602,77.3 L 161.602,79.949 L 164.768,79.949 C 164.937,79.949 165.04,80.078 165.04,80.233 L 165.04,80.662 C 165.04,80.818 164.911,80.921 164.768,80.921 L 160.823,80.921 C 160.68,80.921 160.551,80.818 160.551,80.662 L 160.551,72.487 C 160.551,72.343 160.68,72.225 160.823,72.225 L 164.872,72.225 C 165.015,72.225 165.145,72.343 165.145,72.487 z M 168.3205,80.9305 C 168.1775,80.9305 168.0455,80.811498 168.0455,80.6555 L 168.0455,72.4805 C 168.0455,72.3365 168.1775,72.230497 168.3205,72.2305 L 168.8455,72.2305 C 168.9885,72.2305 169.1205,72.336498 169.1205,72.4805 L 169.1205,76.2055 L 169.7955,76.2055 C 170.7545,76.2055 171.1705,75.638498 171.4705,75.1055 C 171.8455,74.4445 172.0825,73.510502 172.4455,72.3805 C 172.4845,72.263502 172.5675,72.2305 172.6705,72.2305 L 173.4455,72.2305 C 173.543,72.230498 173.61625,72.25025 173.6455,72.3055 C 173.67475,72.36075 173.677,72.439499 173.6455,72.5305 C 173.1265,73.9845 172.73649,74.983498 172.6205,75.2305 C 172.478,75.536 172.25825,75.844375 171.9955,76.1055 C 171.86412,76.236062 171.73316,76.364484 171.5705,76.4555 C 171.40784,76.546515 171.21525,76.598001 171.0205,76.6305 L 171.1455,76.6555 C 172.5595,76.8105 173.0955,77.857502 173.0955,78.8055 C 173.0955,79.6215 172.6475,80.930501 170.5205,80.9305 L 168.3205,80.9305 z M 169.1205,79.9805 L 170.5205,79.9805 C 171.5205,79.9805 172.0205,79.420502 172.0205,78.6555 C 172.0205,77.6945 171.3955,77.130502 170.3705,77.1305 L 169.1205,77.1305 L 169.1205,79.9805 z M 180.669,74.654 C 180.669,76.042 179.864,76.626 178.905,77.028 L 178.19,77.327 C 177.463,77.638 176.854,77.949 176.854,78.716 C 176.854,79.52 177.295,80.001 178.358,80.001 C 178.89,80.001 179.268,79.883 179.696,79.754 C 179.799,79.728 179.955,79.819 179.994,79.961 L 180.099,80.377 C 180.137,80.52 180.059,80.676 179.942,80.714 C 179.552,80.845 178.89,80.987 178.358,80.987 C 176.672,80.987 175.738,80.001 175.738,78.676 C 175.738,77.222 176.737,76.781 177.672,76.365 L 178.281,76.093 C 178.968,75.782 179.527,75.418 179.527,74.615 C 179.527,73.744 178.865,73.161 177.827,73.161 C 177.178,73.161 176.556,73.369 176.087,73.537 C 175.906,73.601 175.79,73.499 175.751,73.354 L 175.621,72.85 C 175.583,72.706 175.634,72.59 175.803,72.526 C 176.296,72.343 177.1,72.161 177.814,72.161 C 179.721,72.161 180.669,73.343 180.669,74.654 z M 185.388,72.499 L 185.388,72.784 C 185.388,72.927 185.285,73.057 185.129,73.057 L 184.48,73.057 L 184.48,80.091 L 185.129,80.091 C 185.285,80.091 185.388,80.22 185.388,80.364 L 185.388,80.648 C 185.388,80.792 185.285,80.921 185.129,80.921 L 182.793,80.921 C 182.637,80.921 182.533,80.792 182.533,80.648 L 182.533,80.364 C 182.533,80.22 182.637,80.091 182.793,80.091 L 183.443,80.091 L 183.443,73.057 L 182.793,73.057 C 182.637,73.057 182.533,72.927 182.533,72.784 L 182.533,72.499 C 182.533,72.355 182.637,72.225 182.793,72.225 L 185.129,72.225 C 185.285,72.225 185.388,72.355 185.388,72.499 z M 192.522,80.233 L 192.522,80.662 C 192.522,80.818 192.406,80.921 192.264,80.921 L 187.268,80.921 C 187.113,80.921 186.982,80.818 186.982,80.662 L 186.982,80.233 C 186.982,80.078 187.113,79.973 187.268,79.973 L 189.24,79.973 L 189.24,72.487 C 189.24,72.343 189.371,72.225 189.512,72.225 L 190.019,72.225 C 190.161,72.225 190.291,72.343 190.291,72.487 L 190.291,79.973 L 192.264,79.973 C 192.406,79.973 192.522,80.078 192.522,80.233 z M 197.5705,83.0055 C 197.2075,83.005499 196.9455,82.7315 196.9455,82.3805 C 196.9455,82.016502 197.2325,81.7555 197.5955,81.7555 C 197.9065,81.755502 198.1955,82.0165 198.1955,82.3805 C 198.19549,82.731502 197.8825,83.0055 197.5705,83.0055 z M 195.2955,83.0055 C 194.9845,83.005499 194.7205,82.7315 194.7205,82.3805 C 194.7205,82.016502 194.9955,81.7555 195.3205,81.7555 C 195.6825,81.755502 195.9455,82.0165 195.9455,82.3805 C 195.9455,82.731502 195.6595,83.0055 195.2955,83.0055 z M 196.0455,80.9305 C 195.9035,80.930498 195.7475,80.8385 195.6955,80.6555 L 193.2955,72.5055 C 193.2445,72.349496 193.3265,72.2305 193.4705,72.2305 L 194.1205,72.2305 C 194.26349,72.230494 194.3815,72.3365 194.4205,72.4805 L 195.0205,74.6555 L 197.9205,74.6555 L 198.5455,72.4805 C 198.55525,72.444497 198.57202,72.411813 198.5955,72.3805 C 198.66595,72.286559 198.7875,72.2305 198.8955,72.2305 L 199.5705,72.2305 C 199.71151,72.230494 199.7975,72.3495 199.7455,72.5055 L 197.1955,80.6555 C 197.14351,80.838495 196.9905,80.9305 196.8455,80.9305 L 196.0455,80.9305 z M 196.4455,80.3555 C 196.4715,80.180501 196.48975,80.012498 196.5205,79.8305 C 196.55125,79.6485 196.5745,79.467498 196.6205,79.3055 L 197.6705,75.5305 L 195.2455,75.5305 L 196.2455,79.3055 C 196.3355,79.643498 196.4065,79.992498 196.4455,80.3555 z M 206.178,80.233 L 206.178,80.662 C 206.178,80.818 206.061,80.921 205.919,80.921 L 200.923,80.921 C 200.768,80.921 200.637,80.818 200.637,80.662 L 200.637,80.233 C 200.637,80.078 200.768,79.973 200.923,79.973 L 202.896,79.973 L 202.896,72.487 C 202.896,72.343 203.025,72.225 203.167,72.225 L 203.673,72.225 C 203.816,72.225 203.947,72.343 203.947,72.487 L 203.947,79.973 L 205.919,79.973 C 206.061,79.973 206.178,80.078 206.178,80.233 z"
       id="path379"
       style="fill:#1a6e5d;fill-opacity:1;fill-rule:nonzero;stroke:#1a6e5d;stroke-width:0.139;stroke-linecap:butt;stroke-linejoin:miter;stroke-miterlimit:3.86400008;stroke-dasharray:none;stroke-opacity:1" /></g></svg>