<svg xmlns="http://www.w3.org/2000/svg" width="194.5" height="97.3" version="1"><path fill="#1a6e5d" stroke="#1a6e5d" stroke-miterlimit="3.9" stroke-width=".1" d="M68 3.9a1.8 1.8 0 1 1 3.5 0 1.8 1.8 0 0 1-3.6 0zm34 1.7H88.2C89.2 2.3 92.3 0 95 0c2.9 0 6 2.6 7 5.5zm16.8-1.7a1.8 1.8 0 1 1 3.5 0 1.8 1.8 0 0 1-3.5 0zm-13.7 0a1.8 1.8 0 1 1 3.5 0 1.8 1.8 0 0 1-3.5 0zm-23.5 0a1.8 1.8 0 1 1 3.6 0 1.8 1.8 0 0 1-3.6 0zM68 6.9v2.3H57.2v3.4h.2c.6 0 1.2.4 1.2 1v4c0 1-.6 1.2-1.2 1.2h-.2v4.1h.2c.6 0 1.2.5 1.2 1.1v4c0 1-.6 1.2-1.2 1.2h-.2v4.1h.2c.6 0 1.2.5 1.2 1.1v4c0 1-.6 1.2-1.2 1.2h-.2v4.1h.2c.6 0 1.2.5 1.2 1.1v4c0 1-.6 1.2-1.2 1.2h-.2v3.4h10.7V57h54.4v-3.5h11V50h-.5c-.8 0-1.1-.6-1.1-1.1v-4c0-1 .5-1.2 1-1.2h.7v-4.1h-.6c-.6 0-1.1-.5-1.1-1.1v-4c0-.8.5-1.2 1-1.2h.7v-4.1h-.6c-.9 0-1.1-.4-1.1-1.1v-4c0-.7.5-1.2 1-1.2h.7v-4.2h-.6a1 1 0 0 1-1.1-1v-4c0-1 .5-1.1 1-1.1h.7V9.2h-11V6.9H67.8zm-4.6 5.7h3.3c.8 0 1.3.4 1.3 1v4c0 .7-.5 1.2-1.3 1.2h-3.3c-.8 0-1.2-.5-1.2-1.1v-4c0-1 .5-1.1 1.2-1.1zm9.5 0h7.5c.8 0 1.3.7 1.3 1.3v3.5c0 .6-.5 1.4-1.3 1.4h-7.5c-1 0-1.4-.6-1.4-1.4V14c0-.6.6-1.3 1.4-1.3zm13.5 0H104c.6 0 1.2.5 1.2 1v4c0 .6-.6 1.2-1.2 1.2H86.3c-.8 0-1.2-.6-1.2-1.2v-4c0-.5.6-1 1.2-1zm23.6 0h7.6c.8 0 1.3.7 1.3 1.3v3.5c0 .6-.6 1.4-1.4 1.4H110c-1 0-1.3-.6-1.3-1.4V14c0-.6.5-1.3 1.3-1.3zm13.7 0h3.3c.8 0 1.3.4 1.3 1v4c0 .7-.5 1.2-1.3 1.2h-3.3c-.9 0-1.3-.4-1.3-1.1v-4c0-.7.5-1.1 1.3-1.1zM63.3 22.9h3.3c.8 0 1.3.5 1.3 1.1v4c0 .7-.5 1.2-1.3 1.2h-3.3c-1 0-1.2-.4-1.2-1.1v-4c0-1 .5-1.2 1.2-1.2zm9.5 0h7.5c.8 0 1.3.8 1.3 1.4v3.5c0 .6-.5 1.4-1.3 1.4h-7.5c-1 0-1.4-.6-1.4-1.4v-3.5c0-.6.6-1.4 1.4-1.4zm13.5 0H104c.6 0 1.2.6 1.2 1.2v3.8c0 .6-.6 1.3-1.2 1.3H86.3c-.8 0-1.2-.6-1.2-1.3v-3.8c0-.6.6-1.2 1.2-1.2zm23.6 0h7.6c.8 0 1.3.8 1.3 1.4v3.5c0 .6-.6 1.4-1.4 1.4H110c-1 0-1.3-.6-1.3-1.4v-3.5c0-.6.5-1.4 1.3-1.4zm13.7 0h3.3c.8 0 1.3.5 1.3 1.1v4c0 .7-.5 1.2-1.3 1.2h-3.3c-.9 0-1.3-.4-1.3-1.1v-4c0-.7.5-1.2 1.3-1.2zM63.3 33.3h3.3c.8 0 1.3.5 1.3 1.1v4c0 .7-.5 1.2-1.3 1.2h-3.3c-.8 0-1.2-.4-1.2-1.1v-4c0-1 .5-1.2 1.2-1.2zm9.5 0h7.5c.8 0 1.3.8 1.3 1.4v3.5c0 .6-.5 1.4-1.3 1.4h-7.5c-1 0-1.4-.7-1.4-1.4v-3.5c0-.6.6-1.4 1.4-1.4zm13.5 0H104c.6 0 1.2.6 1.2 1.2v3.8c0 .7-.6 1.3-1.2 1.3H86.3c-.8 0-1.2-.6-1.2-1.3v-3.8c0-.6.6-1.2 1.2-1.2zm23.6 0h7.6c.8 0 1.3.8 1.3 1.4v3.5c0 .6-.6 1.4-1.4 1.4H110c-.9 0-1.3-.7-1.3-1.4v-3.5c0-.6.5-1.4 1.3-1.4zm13.7 0h3.3c.8 0 1.3.5 1.3 1.1v4c0 .7-.5 1.2-1.3 1.2h-3.3c-.9 0-1.3-.4-1.3-1.1v-4c0-.7.5-1.2 1.3-1.2zM63.3 43.7h3.3c.8 0 1.3.5 1.3 1.1v4c0 .7-.5 1.2-1.3 1.2h-3.3c-.9 0-1.2-.5-1.2-1.1v-4c0-1 .5-1.2 1.2-1.2zm9.5 0h7.5c.8 0 1.3.8 1.3 1.4v3.5c0 .6-.5 1.4-1.3 1.4h-7.5c-1 0-1.4-.6-1.4-1.4V45c0-.6.6-1.4 1.4-1.4zm13.5 0H104c.6 0 1.2.6 1.2 1.2v3.8c0 .6-.6 1.3-1.2 1.3H86.3c-.8 0-1.2-.6-1.2-1.3V45c0-.6.6-1.2 1.2-1.2zm23.6 0h7.6c.8 0 1.3.8 1.3 1.4v3.5c0 .6-.6 1.4-1.4 1.4H110c-1 0-1.3-.6-1.3-1.4V45c0-.6.5-1.4 1.3-1.4zm13.7 0h3.3c.8 0 1.3.5 1.3 1.1v4c0 .7-.5 1.2-1.3 1.2h-3.3c-.8 0-1.3-.4-1.3-1.1v-4c0-.7.5-1.2 1.3-1.2zm-52.2 9.7h47.4v.4c0 .3-.4.5-.8.5H72.2c-.4 0-.8-.2-.8-.5v-.4zm-5.1 43l-.3-.7s-.2-.2-.4 0l-1.3.2c-1.6 0-2.8-1.2-2.8-4.3 0-3 1-4.2 2.8-4.2.5 0 1 .1 1.3.3l.4-.1.3-.6-.1-.4c-.6-.4-1.3-.4-1.9-.4-2.5 0-4.2 2-4.2 5.4 0 3.6 1.5 5.6 4.1 5.6 1 0 1.6-.2 2-.4.1-.1.2-.3.1-.4zm10.2.4V86.6c0-.2-.1-.4-.3-.4h-.6c-.2 0-.4.2-.4.4v4.2h-4v-4.2c0-.2-.2-.4-.4-.4h-.6c-.2 0-.4.2-.4.4v10.2c0 .2.2.3.4.3h.6c.2 0 .3-.1.3-.3v-4.9h4.1v4.9c0 .2.2.3.4.3h.6c.2 0 .3-.1.3-.3zm10.1 0v-.6c0-.2-.1-.3-.3-.3h-4.1v-4h3.6c.2 0 .3-.1.3-.3V91c0-.2-.1-.3-.3-.3h-3.6v-3.3h4c.2 0 .3-.2.3-.4v-.5c0-.2-.2-.4-.4-.4h-4.9c-.2 0-.3.2-.3.4v10.2c0 .2.1.3.3.3h5c.3 0 .4-.1.4-.3zm12.6 0l-.8-10.3c0-.2-.1-.3-.3-.3h-1.3l-.3.3-1.8 6.7-.2 1.9-.2-1.8-1.8-6.8-.3-.3h-1.3c-.2 0-.3.2-.4.3l-.8 10.3c0 .2.1.3.3.3h.8l.3-.3.4-7.5V87c.2.5.2 1.5.4 2.2l1.8 6.4c0 .2.1.3.3.3h1l.3-.3 1.7-6.4.4-2.2v2.2l.4 7.5c0 .2.2.3.3.3h1l.1-.3zm10.9 0V86.5l-.3-.3h-.6c-.2 0-.4.2-.4.3V94l.2 2.2c-.2-.5-.3-1.2-.7-2l-3.3-7.6c-.1-.2-.2-.3-.4-.3h-1.2c-.2 0-.4.1-.4.3v10.3c0 .2.2.3.4.3h.5c.2 0 .4-.1.4-.3v-7.5L104 87l.7 2.2 3.4 7.6c.1.2.3.3.4.3h1.2c.1 0 .3-.1.3-.3zm6.8 0v-.4c0-.2-.2-.3-.4-.3h-.8v-8.8h.8c.2 0 .4-.2.4-.4v-.3c0-.2-.2-.4-.4-.4h-2.9c-.2 0-.3.2-.3.4v.3c0 .2.1.4.3.4h.8V96h-.8c-.2 0-.3.1-.3.3v.4c0 .1.1.3.3.3h3l.3-.3zm8.9-9.7v-.5c0-.2-.2-.4-.4-.4h-6.2c-.2 0-.4.2-.4.4v.5c0 .2.2.3.4.3h2.5v9.4c0 .2.1.3.3.3h.6c.2 0 .4-.1.4-.3v-9.4h2.4c.2 0 .4-.1.4-.3zm8.4 9.7v-.6c0-.2-.1-.3-.3-.3h-5c.2 0 .4-.3.6-.6l4.4-7.6.1-.6v-.5c0-.2-.1-.4-.3-.4h-5.5c-.2 0-.3.2-.3.4v.5c0 .2.1.3.3.3h4.7c-.2 0-.4.3-.6.6l-4.4 7.7-.2.4v.7c0 .2.2.3.3.3h5.9c.2 0 .3-.1.3-.3zM7 68.5V68c0-.2-.1-.3-.3-.3H.4c-.1 0-.3.1-.3.3v.5c0 .2.2.4.3.4H3v9.3c0 .2.2.3.4.3H4c.2 0 .3-.1.3-.3V69h2.5c.2 0 .3-.2.3-.4zm8.5 9.7v-.6c0-.2-.1-.3-.3-.3H11v-4h3.6c.2 0 .3 0 .3-.3v-.5c0-.2-.1-.3-.3-.3H11v-3.3h4c.2 0 .3-.2.3-.4V68c0-.2-.2-.3-.3-.3h-5c-.2 0-.3.1-.3.3v10.2c0 .2.1.3.3.3h5c.3 0 .4-.1.4-.3zm9.2-.4l-.3-.6c0-.2-.2-.2-.4-.1l-1.3.3c-1.7 0-2.8-1.3-2.8-4.4 0-3 1-4.2 2.8-4.2.5 0 .9.1 1.2.3.2.1.4 0 .5-.1l.2-.5c.1-.2 0-.4-.1-.5a4 4 0 0 0-1.9-.4c-2.4 0-4.2 2-4.2 5.4 0 3.6 1.5 5.6 4.1 5.6 1 0 1.6-.2 2-.4.2 0 .3-.2.2-.4zm10.2.4V68c0-.2-.2-.3-.4-.3H34c-.2 0-.3.1-.3.3v4.2h-4.1V68c0-.2-.2-.3-.4-.3h-.6c-.2 0-.3.1-.3.3v10.2c0 .2.1.3.3.3h.6c.2 0 .4-.1.4-.3v-4.8h4v4.8c0 .2.2.3.4.3h.6c.2 0 .4-.1.4-.3zm11.4 0V68c0-.2-.2-.3-.4-.3h-.5c-.2 0-.4.1-.4.3v7.4l.2 2.2c-.2-.6-.3-1.3-.7-2l-3.3-7.7c-.1-.2-.2-.2-.4-.2h-1.2c-.2 0-.4 0-.4.3v10.2c0 .2.2.3.4.3h.5c.2 0 .4-.1.4-.3v-7.5l-.2-2.2.7 2.1 3.4 7.7.4.2H46c.2 0 .4-.1.4-.3zm6.7 0v-.4c0-.1 0-.3-.3-.3H52v-8.8h.8c.2 0 .3-.2.3-.3V68c0-.2 0-.3-.3-.3h-2.9c-.2 0-.3.1-.3.3v.4c0 .1.1.3.3.3h.8v8.8h-.8c-.2 0-.3.2-.3.3v.4c0 .2.1.3.3.3h3c.1 0 .2-.1.2-.3zm8.9-2.7c0-1.7-1-2.5-2.3-3l-.8-.3c-1-.4-1.7-.8-1.7-1.8s.5-1.6 1.9-1.6c.6 0 1.1.2 1.6.3.2 0 .4 0 .4-.2l.1-.6c0-.1 0-.3-.2-.4a7 7 0 0 0-2-.3c-2 0-3.2 1.2-3.2 2.9 0 1.8 1.2 2.3 2.4 2.9l.8.3c.8.4 1.5.8 1.5 1.9 0 1-.8 1.8-2.1 1.8-.8 0-1.6-.3-2.2-.5-.2 0-.3 0-.4.2l-.2.7c0 .1 0 .3.3.4a8 8 0 0 0 2.5.4c2.4 0 3.6-1.5 3.6-3.1zm9 2.3l-.4-.6c0-.2-.2-.2-.4-.1l-1.3.3C67.2 77.4 66 76 66 73c0-3 1-4.2 2.8-4.2.5 0 1 .1 1.3.3.2.1.3 0 .4-.1l.3-.5-.1-.5c-.6-.3-1.3-.4-2-.4-2.4 0-4.1 2-4.1 5.4 0 3.6 1.5 5.6 4 5.6a4 4 0 0 0 2-.4c.2 0 .3-.2.2-.4zm10.1.4V68c0-.2-.1-.3-.3-.3H80c-.2 0-.4.1-.4.3v4.2h-4V68c0-.2-.2-.3-.4-.3h-.6c-.2 0-.4.1-.4.3v10.2c0 .2.2.3.4.3h.6c.2 0 .3-.1.3-.3v-4.8h4.1v4.8c0 .2.2.3.4.3h.6c.2 0 .3-.1.3-.3zm10.1 0v-.6c0-.2-.1-.3-.3-.3h-4.1v-4h3.6c.1 0 .3 0 .3-.3v-.5c0-.2-.2-.3-.3-.3h-3.6v-3.3h4c.2 0 .3-.2.3-.4V68c0-.2-.2-.3-.4-.3h-4.9c-.2 0-.3.1-.3.3v10.2c0 .2.1.3.3.3h5c.3 0 .4-.1.4-.3zm14.8-2.9V68c0-.2-.2-.3-.3-.3h-.7c-.1 0-.3.1-.3.3v7.2c0 2-1 2.3-2.1 2.3-1.6 0-2-1-2-2.5v-7c0-.2-.2-.3-.4-.3h-.6c-.2 0-.4.1-.4.3v7.3c0 2 1 3.3 3.4 3.3 2.2 0 3.4-1.2 3.4-3.3zm11.3 3V68c0-.2-.1-.3-.3-.3h-.6c-.2 0-.3.1-.3.3v7.4l.2 2.2-.7-2-3.4-7.7c0-.2-.2-.2-.4-.2h-1.2c-.2 0-.3 0-.3.3v10.2c0 .2.1.3.3.3h.6c.1 0 .3-.1.3-.3v-7.5l-.2-2.2.7 2.1 3.5 7.7.4.2h1c.3 0 .4-.1.4-.3zm6.8-.1v-.4c0-.1-.1-.3-.3-.3h-.8v-8.8h.8c.2 0 .3-.2.3-.3V68c0-.2-.1-.3-.3-.3h-3c-.2 0-.3.1-.3.3v.4c0 .1.1.3.3.3h.9v8.8h-.9c-.2 0-.3.2-.3.3v.4c0 .2.1.3.3.3h3c.2 0 .3-.1.3-.3zM134 68c0-.2 0-.3-.2-.3h-.7c-.2 0-.4.1-.4.3l-2.1 7.8-.4 1.8-.3-1.8-2.1-7.8c0-.2-.2-.3-.4-.3h-.9c-.1 0-.3.1-.2.3l3 10.2c0 .2.3.3.5.3h.9c.1 0 .4-.1.4-.3l3-10.2zm9.1 10.2v-.6c0-.2-.1-.3-.3-.3h-4.1v-4h3.6c.2 0 .3 0 .3-.3v-.5c0-.2-.1-.3-.3-.3h-3.6v-3.3h4c.2 0 .3-.2.3-.4V68c0-.2-.2-.3-.3-.3h-5c-.2 0-.3.1-.3.3v10.2c0 .2.1.3.3.3h5c.3 0 .4-.1.4-.3zm4-10.5c-.2 0-.3.1-.3.3v10.2c0 .2.1.3.3.3h.7c.1 0 .3-.1.3-.3v-4.6h.8c1.2 0 1.8.7 2.1 1.3.5.9.8 2 1.3 3.4 0 .2.1.2.2.2h1.3v-.3a60 60 0 0 0-1.3-3.4 4 4 0 0 0-1.3-1.6l-.7-.2h.1a2.6 2.6 0 0 0 2.5-2.7c0-1-.6-2.6-3.3-2.6h-2.7zm1 1.1h1.7c1.3 0 2 .7 2 1.7 0 1.2-.9 2-2.1 2H148v-3.7zm14.4 6.7c0-1.7-1-2.5-2.2-3l-.9-.3c-.9-.4-1.6-.8-1.6-1.8s.5-1.6 1.8-1.6c.7 0 1.2.2 1.7.3.1 0 .3 0 .4-.2l.1-.6c0-.1 0-.3-.2-.4a7 7 0 0 0-2-.3c-2 0-3.2 1.2-3.2 2.9 0 1.8 1.2 2.3 2.4 2.9l.7.3c.9.4 1.6.8 1.6 1.9 0 1-.8 1.8-2.1 1.8-.8 0-1.6-.3-2.2-.5-.2 0-.4 0-.4.2l-.2.7c0 .1 0 .3.2.4a8 8 0 0 0 2.6.4c2.3 0 3.5-1.5 3.5-3.1zm6 2.7v-.4c0-.1-.2-.3-.4-.3h-.8v-8.8h.8c.2 0 .3-.2.3-.3V68c0-.2-.1-.3-.3-.3h-3c-.1 0-.2.1-.2.3v.4c0 .1 0 .3.3.3h.8v8.8h-.8c-.2 0-.3.2-.3.3v.4c0 .2 0 .3.3.3h2.9c.2 0 .3-.1.3-.3zm8.8-9.7V68c0-.2-.1-.3-.3-.3h-6.2c-.2 0-.4.1-.4.3v.5c0 .2.2.4.4.4h2.4v9.3c0 .2.2.3.4.3h.6c.2 0 .4-.1.4-.3V69h2.4c.2 0 .3-.2.3-.4zm6.4-3.4c-.5 0-.8.3-.8.7 0 .5.3.8.8.8.4 0 .7-.3.7-.8 0-.4-.4-.7-.7-.7zm-2.9 0c-.4 0-.7.3-.7.7 0 .5.3.8.7.8.5 0 .8-.3.8-.8 0-.4-.3-.7-.8-.7zm1 2.6c-.2 0-.4 0-.5.3l-3 10.2c0 .2 0 .3.2.3h.8c.2 0 .4-.1.4-.3l.8-2.7h3.6l.8 2.7v.1c.1.2.3.2.4.2h.9c.1 0 .2-.1.2-.3L183.2 68c0-.2-.3-.3-.5-.3h-1zm.5.7v.6l.2.7 1.3 4.7h-3l1.2-4.7.3-1.3zm12.1.1V68c0-.2-.1-.3-.3-.3h-6.3c-.1 0-.3.1-.3.3v.5c0 .2.2.4.3.4h2.5v9.3c0 .2.2.3.4.3h.6c.2 0 .3-.1.3-.3V69h2.5c.2 0 .3-.2.3-.4z"/></svg>