<svg xmlns="http://www.w3.org/2000/svg" width="202.14" height="132.08"><path fill="#003E2F" d="M105.1 33.5a5.56 5.56 0 0 0-2.78-2.7 3.24 3.24 0 0 0-1.76-.29 4.58 4.58 0 0 0-3.04 1.8c-.36.44-.63.92-.8 1.48h8.5l-.12-.3m11.42.38a1.07 1.07 0 1 0-.01-2.15c-.6 0-1.08.47-1.08 1.07 0 .6.48 1.08 1.09 1.08m-8.4 0c.64 0 1.1-.45 1.11-1.06 0-.62-.45-1.09-1.05-1.1-.64 0-1.1.45-1.11 1.07 0 .61.45 1.08 1.05 1.09m-22.67 0c.62 0 1.07-.46 1.07-1.07 0-.62-.46-1.08-1.09-1.08-.6 0-1.07.46-1.07 1.07 0 .62.47 1.08 1.1 1.08m8.36 0c.62 0 1.1-.48 1.09-1.09 0-.6-.48-1.06-1.09-1.06-.6 0-1.07.46-1.08 1.06-.01.62.46 1.09 1.08 1.09m30.41 10.5l.1-.03v-2.51h-.37c-.37-.03-.63-.29-.64-.65V38.7c0-.36.26-.61.62-.64h.38V36h-6.76v-1.38H84.35v1.4h-6.51v2.02c.64.1.8.29.8.93v1.87c0 .75-.09.86-.8 1.05v2.47c.54.06.78.26.8.7v2.4c-.01.4-.25.65-.65.7l-.17.03v2.46c.67.12.82.3.82.95v1.87c0 .75-.09.87-.82 1.05v2.29l.01.17c.63.08.8.28.8.91v1.9c0 .74-.1.87-.79 1.05v2.06h6.52V65h33.22v-2.12h6.73V60.8h-.16c-.6-.02-.83-.25-.83-.84 0-.67.03-1.33 0-2-.04-.72.25-1.03.94-.97.02 0 .03-.02.06-.04V54.5c-.17-.02-.33-.03-.48-.06-.32-.07-.52-.3-.52-.63v-2.5c0-.32.24-.58.57-.62l.43-.04v-2.49l-.2-.01c-.6-.02-.8-.22-.8-.84v-1.97c0-.8.12-.92.9-.98m-15-5.5c0-.47.35-.8.82-.8h4.51c.53 0 .86.33.86.85v2.05c0 .5-.34.87-.84.87-1.52.02-3.03.02-4.55 0a.8.8 0 0 1-.8-.8c-.02-.73-.02-1.46 0-2.18m-14.34.08c0-.6.26-.87.86-.87h10.44c.62 0 .89.27.89.89v1.96c0 .62-.31.93-.94.93H95.78c-.61 0-.9-.3-.9-.92v-1.99m0 6.27c0-.56.28-.83.85-.83h10.43c.64 0 .9.27.9.9v1.97c0 .59-.31.9-.9.9h-10.4c-.6 0-.89-.29-.9-.9V45.2m11.26 9.25h-10.4c-.54 0-.84-.29-.85-.84v-2.16c0-.47.28-.76.76-.77.66-.02 1.32-.01 1.99-.01h8.44c.75 0 1 .25 1 .99v1.84c0 .65-.3.95-.94.95m.94 3.4v2c0 .61-.33.93-.94.93H95.79c-.6 0-.9-.3-.91-.88v-2.1c0-.53.3-.8.82-.8h10.49c.59 0 .88.28.88.87M80.78 38.8c0-.45.25-.72.69-.72.72-.01 1.44-.02 2.17 0 .45 0 .72.3.72.76v2.23c0 .46-.26.75-.72.76-.73.03-1.45.03-2.17 0-.45 0-.68-.27-.69-.72V38.8m0 12.62c0-.43.23-.7.66-.72.74-.02 1.49-.02 2.23 0 .43.01.69.31.69.73v2.3c0 .43-.28.72-.72.72-.73.02-1.45.02-2.17 0-.43 0-.68-.27-.69-.71v-2.32m2.73 9.37h-1.8c-.14 0-.27-.01-.4-.04-.33-.07-.52-.3-.53-.65v-2.37c0-.46.27-.72.72-.73h2.08c.49 0 .78.3.78.78v2.14c0 .58-.27.86-.85.87m.85-13.38c0 .42-.26.72-.67.73-.76.02-1.53.02-2.29 0-.37-.01-.61-.29-.62-.66v-2.41c0-.4.26-.68.67-.69h2.2c.44.01.7.3.7.75v1.15c0 .38.02.76 0 1.13m2.16-8.43c0-.59.33-.9.92-.91h4.4c.56 0 .9.34.9.9v1.97c0 .56-.35.9-.9.9-1.46.02-2.92.02-4.37 0-.62 0-.95-.34-.95-.96v-1.9m5.29 9.18h-4.37c-.57-.01-.91-.36-.92-.93v-1.96c0-.55.34-.9.89-.9h4.43c.56 0 .9.35.9.91v1.93c0 .6-.33.94-.93.95m.93 3.43v1.96c0 .58-.34.9-.9.9H87.4c-.53 0-.88-.35-.89-.89v-1.98c0-.54.33-.9.86-.9h4.49c.54 0 .87.36.87.91m-6.22 6.3c0-.55.35-.89.9-.89h4.45c.51 0 .86.34.87.85v2.05c0 .54-.36.89-.9.9h-4.4c-.56-.01-.91-.38-.92-.95V57.9m28.54 5.52c-.1.02-.21 0-.32 0h-27.5c-.12 0-.23.02-.33 0-.32-.05-.4-.15-.37-.5h28.88c.03.34-.04.45-.36.5m.36-3.51c0 .51-.35.89-.86.89h-4.49a.82.82 0 0 1-.85-.85v-2.1c0-.5.35-.84.85-.84h4.49c.53 0 .86.34.86.88v2.02m0-6.23c0 .46-.36.79-.83.79h-4.51c-.49 0-.84-.31-.85-.8-.02-.72-.02-1.45 0-2.17.01-.46.33-.8.79-.8h4.63c.44 0 .77.34.78.78.02.74.02 1.47 0 2.2m0-6.38c0 .52-.36.86-.88.86h-4.4c-.59 0-.92-.32-.93-.91v-2c.01-.53.35-.86.88-.86h4.48c.51 0 .85.32.85.83.02.7.02 1.39 0 2.08m5.74 11.6V60c0 .48-.2.76-.67.78-.74.03-1.49.03-2.23 0-.45-.02-.68-.32-.69-.78v-2.2c0-.52.3-.79.83-.79h1.98c.5 0 .78.27.78.77v1.13m0-6.32v1.15c0 .46-.27.72-.72.73h-2.11c-.47 0-.75-.29-.75-.77-.02-.74-.02-1.48 0-2.23 0-.47.26-.75.75-.77h2.1c.5.02.73.29.73.79v1.1m0-6.31v1.12c0 .47-.24.75-.7.76-.72.01-1.44.02-2.16 0-.44-.01-.72-.3-.72-.74-.02-.76-.02-1.53 0-2.3 0-.45.3-.72.75-.73h2.11c.47 0 .72.28.72.76v1.13m0-5.18c0 .47-.25.74-.73.75-.7.02-1.4.02-2.1 0-.5-.02-.75-.3-.76-.8v-2.17c0-.52.28-.79.79-.8h2.05c.49.01.75.27.75.76v2.26m-42.78 59.95l-.25-.51c-.05-.11-.17-.18-.34-.1-.23.11-.74.26-1.1.26-1.34 0-2.3-1.07-2.3-3.61 0-2.47.8-3.53 2.32-3.53.42 0 .73.11 1.04.26.17.08.3.03.37-.1l.22-.43a.29.29 0 0 0-.11-.39 2.98 2.98 0 0 0-1.56-.35c-2.07 0-3.5 1.68-3.5 4.53 0 2.97 1.26 4.66 3.42 4.66.83 0 1.31-.19 1.66-.36.11-.06.2-.18.13-.33m7.37.35v-8.52c0-.16-.14-.27-.29-.27h-.51a.27.27 0 0 0-.28.27v3.5h-3.43v-3.5a.27.27 0 0 0-.28-.27h-.52c-.14 0-.28.11-.28.27v8.52c0 .15.14.27.29.27h.51c.15 0 .28-.12.28-.27v-4.04h3.43v4.04c0 .15.13.27.28.27h.51c.15 0 .29-.12.29-.27m7 0v-.48a.3.3 0 0 0-.3-.29h-3.3v-3.26h3.04c.16 0 .28-.12.28-.3v-.41a.28.28 0 0 0-.28-.27h-3.03v-2.76h3.3c.17 0 .28-.14.28-.3v-.45c0-.16-.14-.26-.28-.26h-4.11c-.15 0-.29.1-.29.26v8.53c0 .14.14.27.29.27h4.1c.16 0 .3-.13.3-.28m9.67.04l-.67-8.57c-.02-.17-.14-.25-.3-.25h-1.01a.3.3 0 0 0-.29.21l-1.47 5.63c-.12.44-.16 1.02-.2 1.52-.06-.5-.1-1.1-.2-1.51l-1.48-5.64a.3.3 0 0 0-.27-.21h-1.04c-.16 0-.3.1-.31.25l-.7 8.53c0 .15.09.28.22.28h.68c.14 0 .22-.1.23-.25l.4-6.29c.02-.33.02-1.39.02-1.82.08.46.13 1.23.3 1.82l1.44 5.33c.06.2.12.27.29.27h.8c.16 0 .22-.08.28-.27l1.45-5.33c.14-.55.22-1.44.28-1.82l.04 1.84.35 6.29c.02.13.1.23.26.23h.71c.16 0 .2-.1.2-.24m8.03-.02v-8.55c0-.15-.14-.25-.28-.25h-.48c-.14 0-.28.1-.28.25v6.02c0 .66.08 1.4.16 1.99-.16-.46-.31-1.07-.58-1.68l-2.81-6.4c-.06-.12-.17-.18-.32-.18h-1.02c-.16 0-.29.08-.29.25v8.55c0 .13.14.25.29.25h.47c.15 0 .29-.12.29-.25v-6.13c0-.51-.1-1.42-.17-2 .17.58.34 1.2.6 1.77l2.87 6.4c.06.13.19.21.32.21h.95c.14 0 .28-.12.28-.25m4.59-.03v-.3c0-.15-.1-.28-.27-.28h-.68v-7.33h.68c.16 0 .27-.13.27-.28v-.3c0-.15-.1-.28-.27-.28h-2.43c-.17 0-.27.13-.27.28v.3c0 .14.1.28.27.28h.67v7.33h-.67c-.17 0-.27.13-.27.28v.3c0 .15.1.28.27.28h2.43c.16 0 .27-.13.27-.28m6.98-8.06v-.45a.26.26 0 0 0-.27-.26h-5.2c-.17 0-.3.1-.3.26v.45c0 .16.13.27.3.27h2.05v7.8c0 .15.13.28.28.28h.53c.15 0 .28-.13.28-.28v-7.8h2.06c.15 0 .27-.1.27-.27m6.47 8.07v-.47a.27.27 0 0 0-.27-.27h-3.48c-.27 0-.54.05-.7.08.16-.12.35-.32.5-.6l3.65-6.32c.08-.14.15-.3.15-.45v-.49a.26.26 0 0 0-.27-.27h-4.57c-.16 0-.3.11-.3.27v.45c0 .15.14.27.3.27h3.1c.32 0 .59-.02.79-.08-.16.14-.37.34-.5.57l-3.69 6.38a.75.75 0 0 0-.12.38v.55c0 .15.12.27.27.27h4.87c.15 0 .27-.12.27-.27M36.02 77.1v-.44a.26.26 0 0 0-.27-.27h-5.21c-.16 0-.3.1-.3.27v.45c0 .16.14.27.3.27h2.06v7.8c0 .15.13.27.28.27h.53c.15 0 .28-.12.28-.27v-7.8h2.06c.14 0 .27-.11.27-.27m6.02 8.07v-.49a.29.29 0 0 0-.3-.28h-3.28v-3.26h3.03c.16 0 .28-.12.28-.3v-.42a.27.27 0 0 0-.28-.27h-3.03v-2.75h3.3c.18 0 .29-.14.29-.3v-.45c0-.16-.14-.27-.29-.27h-4.1c-.16 0-.3.1-.3.27v8.52c0 .15.14.27.3.27h4.1c.15 0 .29-.12.29-.27m6.64-.35l-.24-.52c-.06-.1-.18-.17-.34-.1-.23.12-.75.27-1.11.27-1.34 0-2.3-1.07-2.3-3.61 0-2.48.81-3.53 2.32-3.53.43 0 .74.1 1.05.25.16.08.3.03.36-.1l.22-.42a.29.29 0 0 0-.11-.4 2.98 2.98 0 0 0-1.55-.35c-2.08 0-3.5 1.68-3.5 4.53 0 2.98 1.25 4.66 3.41 4.66a3.5 3.5 0 0 0 1.67-.36c.1-.05.18-.17.12-.32m7.37.35v-8.52c0-.16-.14-.27-.29-.27h-.51c-.15 0-.28.1-.28.27v3.5h-3.42v-3.5c0-.16-.14-.27-.29-.27h-.51c-.15 0-.29.1-.29.27v8.52c0 .15.14.27.29.27h.51c.15 0 .29-.12.29-.27v-4.04h3.42v4.04c0 .15.13.27.28.27h.51c.15 0 .29-.12.29-.27m8.2.01v-8.54a.27.27 0 0 0-.27-.26h-.48c-.15 0-.28.1-.28.26v6.01c0 .66.08 1.4.16 2-.16-.47-.31-1.08-.58-1.69l-2.82-6.4a.32.32 0 0 0-.3-.18h-1.03c-.17 0-.29.08-.29.26v8.54c0 .14.14.26.29.26h.47c.15 0 .28-.12.28-.26v-6.12c0-.52-.1-1.42-.16-2 .16.58.34 1.2.6 1.77l2.86 6.4c.07.13.2.21.33.21h.94c.15 0 .29-.12.29-.26m4.59-.02v-.3c0-.15-.11-.29-.27-.29h-.68v-7.32h.68c.16 0 .27-.14.27-.29v-.3a.27.27 0 0 0-.27-.28h-2.44a.27.27 0 0 0-.27.28v.3c0 .15.11.29.27.29h.68v7.32h-.68c-.16 0-.27.14-.27.29v.3c0 .14.11.28.27.28h2.44c.16 0 .27-.14.27-.28m6.5-2.25c0-1.45-.7-2.03-1.7-2.46l-.75-.33c-.75-.32-1.39-.64-1.39-1.44 0-.84.46-1.34 1.57-1.34.55 0 .94.12 1.4.26.1.02.26-.07.3-.22l.11-.43c.04-.15-.04-.31-.16-.35-.4-.14-1.1-.29-1.65-.29-1.76 0-2.73 1.03-2.73 2.4 0 1.52 1.02 2.01 2.01 2.43l.64.27c.71.31 1.16.7 1.16 1.54 0 .9-.55 1.52-1.64 1.52-.67 0-1.32-.22-1.8-.4-.2-.06-.32.04-.36.2l-.13.52c-.04.15.01.27.18.34.52.19 1.36.37 2.1.37 1.99 0 2.84-1.22 2.84-2.59m6.73 1.9l-.25-.5c-.05-.11-.17-.18-.34-.1-.23.1-.74.26-1.1.26-1.34 0-2.3-1.07-2.3-3.61 0-2.48.8-3.53 2.32-3.53.42 0 .73.1 1.04.25.17.08.3.03.37-.1l.21-.42a.29.29 0 0 0-.1-.4 2.99 2.99 0 0 0-1.56-.35c-2.07 0-3.5 1.68-3.5 4.53 0 2.98 1.26 4.66 3.42 4.66.82 0 1.31-.18 1.66-.36.11-.05.2-.17.13-.32m7.37.35v-8.52c0-.16-.14-.27-.29-.27h-.51c-.15 0-.28.1-.28.27v3.5h-3.43v-3.5a.27.27 0 0 0-.28-.27h-.51c-.15 0-.29.1-.29.27v8.52c0 .15.14.27.29.27h.51c.15 0 .28-.12.28-.27v-4.04h3.43v4.04c0 .15.13.27.28.27h.51c.15 0 .29-.12.29-.27m7 0v-.49c0-.16-.15-.28-.3-.28h-3.3v-3.26h3.04c.16 0 .28-.12.28-.3v-.42a.28.28 0 0 0-.28-.27h-3.03v-2.75h3.3c.17 0 .28-.14.28-.3v-.45c0-.16-.14-.27-.29-.27h-4.1c-.15 0-.29.1-.29.27v8.52c0 .15.14.27.28.27h4.11c.15 0 .3-.12.3-.27m11.2-2.45v-6.07c0-.16-.14-.27-.29-.27h-.51c-.15 0-.28.1-.28.27v5.99c0 1.6-.76 1.93-1.76 1.93-1.3 0-1.7-.8-1.7-2.1v-5.82c0-.16-.14-.27-.29-.27h-.51c-.15 0-.29.1-.29.27v6.07c0 1.7.8 2.78 2.79 2.78 1.88 0 2.84-1 2.84-2.78m8.2 2.46v-8.54c0-.15-.14-.26-.29-.26h-.47c-.15 0-.28.1-.28.26v6.01c0 .66.08 1.4.16 2-.16-.47-.31-1.08-.58-1.69l-2.82-6.4a.32.32 0 0 0-.3-.18h-1.04c-.16 0-.28.08-.28.26v8.54c0 .14.14.26.28.26h.48c.15 0 .28-.12.28-.26v-6.12c0-.52-.1-1.42-.16-2 .16.58.34 1.2.6 1.77l2.86 6.4c.07.13.2.21.33.21h.94c.15 0 .29-.12.29-.26m4.59-.02v-.3c0-.15-.11-.29-.27-.29h-.68v-7.32h.68c.16 0 .27-.14.27-.29v-.3a.27.27 0 0 0-.27-.28h-2.44a.27.27 0 0 0-.27.28v.3c0 .15.11.29.27.29h.68v7.32h-.68c-.16 0-.27.14-.27.29v.3c0 .14.11.28.27.28h2.44c.16 0 .27-.14.27-.28m7.6-8.51c.05-.15-.06-.27-.2-.27h-.59c-.15 0-.28.1-.32.27l-1.76 6.55c-.1.33-.22 1.02-.3 1.48a16.5 16.5 0 0 0-.28-1.48l-1.76-6.55c-.05-.19-.18-.27-.35-.27h-.7c-.14 0-.25.12-.2.28l2.53 8.5a.4.4 0 0 0 .37.28h.75c.16 0 .33-.12.37-.27l2.45-8.52zm6.24 8.52v-.49c0-.16-.13-.28-.3-.28h-3.28v-3.26h3.03c.16 0 .28-.12.28-.3v-.42a.28.28 0 0 0-.28-.27h-3.03v-2.75h3.3c.18 0 .28-.14.28-.3v-.45a.27.27 0 0 0-.28-.27h-4.11c-.15 0-.28.1-.28.27v8.52c0 .15.13.27.28.27h4.1c.16 0 .3-.12.3-.27m7.58-.06a47.5 47.5 0 0 0-1.06-2.8c-.3-.63-.84-1.33-1.65-1.47 1.22-.08 2.16-.92 2.16-2.26 0-.85-.47-2.2-2.69-2.2h-2.28c-.15 0-.29.1-.29.27v8.52c0 .15.14.27.29.27h.52c.15 0 .29-.12.29-.27V81.3h.71c1 0 1.42.6 1.73 1.15.4.7.65 1.65 1.03 2.83.04.12.14.16.24.16h.82c.2 0 .25-.14.19-.33m-1.68-6.36c0 1-.66 1.58-1.73 1.58h-1.31v-2.96h1.46c1.04 0 1.58.58 1.58 1.38m8.23 4.16c0-1.45-.7-2.03-1.7-2.46l-.75-.33c-.75-.32-1.39-.64-1.39-1.44 0-.84.46-1.34 1.57-1.34.55 0 .95.12 1.4.26.1.02.26-.07.3-.22l.11-.43c.04-.15-.04-.31-.16-.35-.4-.14-1.1-.29-1.65-.29-1.76 0-2.73 1.03-2.73 2.4 0 1.52 1.03 2.01 2.01 2.43l.64.27c.72.31 1.16.7 1.16 1.54 0 .9-.55 1.52-1.63 1.52-.68 0-1.33-.22-1.82-.4-.19-.06-.3.04-.35.2l-.13.52c-.04.15.01.27.19.34a6.7 6.7 0 0 0 2.1.37c1.98 0 2.83-1.22 2.83-2.59m4.12 2.25v-.3c0-.15-.1-.29-.27-.29h-.67v-7.32h.67c.16 0 .27-.14.27-.29v-.3c0-.15-.1-.28-.27-.28h-2.43a.27.27 0 0 0-.27.28v.3c0 .15.1.29.27.29h.67v7.32h-.67c-.16 0-.27.14-.27.29v.3c0 .14.1.28.27.28h2.43c.17 0 .27-.14.27-.28m6.98-8.06v-.45a.26.26 0 0 0-.26-.27h-5.21c-.16 0-.3.1-.3.27v.45c0 .16.14.27.3.27h2.05v7.8c0 .15.14.27.29.27h.52c.15 0 .29-.12.29-.27v-7.8h2.06c.14 0 .26-.11.26-.27m6.54 8.04l-2.65-8.5a.37.37 0 0 0-.36-.26h-.86a.37.37 0 0 0-.36.27l-2.49 8.5c-.05.16.04.29.19.29h.66c.15 0 .29-.12.33-.27l.6-2.26h3.03l.65 2.26c.04.15.22.27.37.27h.7c.15 0 .24-.14.2-.3M163.91 82h-2.53l1.04-3.92c.1-.35.16-.73.2-1.1.06.36.11.76.2 1.1l1.09 3.92zm-1.76-6.73c0-.37-.29-.64-.67-.64a.63.63 0 0 0-.62.64c0 .38.3.66.64.66.38 0 .65-.28.65-.66m2.37 0c0-.37-.29-.64-.67-.64a.63.63 0 0 0-.62.64c0 .38.3.66.63.66.39 0 .66-.28.66-.66m7.37 1.84v-.45a.26.26 0 0 0-.27-.27h-5.2c-.17 0-.3.1-.3.27v.45c0 .16.13.27.3.27h2.05v7.8c0 .15.14.27.28.27h.53c.15 0 .29-.12.29-.27v-7.8h2.05c.15 0 .27-.11.27-.27"/><path fill="none" d="M-.24 0H201.9v132.08H-.24z"/></svg>