<svg xmlns="http://www.w3.org/2000/svg" width="426.81" height="564.89" viewBox="0 0 112.93 149.46"><defs><linearGradient id="a"><stop offset="0" stop-color="#fee9d1"/><stop offset="1" stop-color="#feef9f"/></linearGradient></defs><g stroke="#4caf50"><path d="M1.9 49.25v81.03h12l-4.97 17.28 22.32-17.28h79.78V49.25z" opacity=".99" fill="#b7dfb8" stroke-width="3.8" stroke-linecap="round" stroke-linejoin="round" paint-order="fill markers stroke"/><g stroke-width="3.32" fill="#6ec071"><path d="M29.39 2.35s-11.53 44.68 27.07 46.9C73.84 14.7 29.4 2.35 29.4 2.35zM29.39 2.35s9.66 28.69 27.07 46.9" stroke-width="3.7995407999999995"/><g><path d="M85.1 2.35S40.64 14.7 58.03 49.25c38.6-2.22 27.07-46.9 27.07-46.9zM85.1 2.35S65.1 25.06 58.03 49.25" stroke-width="3.7995407999999995"/></g></g><path d="M81.1 95.55a24.63 24.63 0 1 1-49.27 0z" opacity=".99" fill="#6ec071" stroke-width="3.49" stroke-linejoin="round" paint-order="fill markers stroke"/><g fill="none" stroke-width="3.12" stroke-linecap="round" stroke-linejoin="round"><path d="M49.2 80.88a13.87 13.87 0 1 0-27.74 0M91.47 80.88a13.87 13.87 0 1 0-27.74 0" opacity=".99" paint-order="fill markers stroke"/></g></g></svg>